<svg width="1000" height="1415" version="1.1" viewBox="0 0 1000 1415" encoding="UTF-8" xmlns="http://www.w3.org/2000/svg"><rect x="0" y="0" height="100%" width="100%" fill="#ffffff"></rect><defs>
<g id="diaohao_fu" transform="translate(-50,-50)"><path d="m63.90001,57.81227l-8.81873,0l0,-1.70001l3.45433,0l0,-11.7568l-3.53561,1.04459l0,-1.80243l5.46599,-1.59762l0,14.11224l3.43402,0l0,1.70001l0,0.00001l0,0.00001z" fill="#1b1b1b"></path><rect height="2" width="11" y="46.85897" x="68" stroke-width="33" fill="#1b1b1b"></rect><rect height="2" width="11" y="51.32479" x="68" stroke-width="33" fill="#1b1b1b"></rect></g><g id="diaohao_zimu_c" transform="translate(-50,-50)"><path fill="#1b1b1b" d="m55.85,42.82703q-1.71571,-0.90955 -4.3203,-0.90955q-3.36943,0 -5.37457,2.13949t-2.00512,5.65363q0,3.76219 2.26351,6.06705t5.73631,2.30486q2.23251,0 3.70017,-0.64081l0,-2.10849q-1.67438,0.93021 -3.6795,0.93021q-2.60459,0 -4.25832,-1.73639t-1.65372,-4.69241q0,-2.81131 1.54002,-4.46502t4.02058,-1.65371q2.31519,0 4.03091,1.05424l0,-1.94311l0.00002,0.00001l0.00002,0z"></path></g><g id="paihao_xian" transform="translate(-50,-50)"><rect fill="#1b1b1b" stroke-width="33" stroke-linejoin="null" stroke-linecap="null" x="51" y="49" width="21" height="2"></rect></g><g id="shuzi_b_bian_2" transform="translate(-50,-50)"><path d="m54.73171,57.18378l-9.46388,0c0,-1.22058 0.25339,-2.21228 0.76018,-2.97604c0.27837,-0.40686 0.64955,-0.85298 1.1135,-1.33834c0.46396,-0.48537 1.03856,-1.00644 1.72379,-1.56274c0.60672,-0.49251 1.11886,-0.93149 1.53643,-1.31692c0.41757,-0.38546 0.75304,-0.74725 1.00644,-1.08674c0.2534,-0.33906 0.4354,-0.67274 0.54604,-1.00108s0.16596,-0.68166 0.16596,-1.05996c0,-0.59957 -0.16596,-1.06534 -0.49786,-1.39724c-0.3319,-0.33191 -0.81193,-0.49786 -1.44005,-0.49786c-0.25697,0 -0.50321,0.05175 -0.73877,0.15525c-0.23555,0.10349 -0.44433,0.25875 -0.62634,0.46575c-0.18202,0.20699 -0.33369,0.46218 -0.45504,0.76553c-0.12135,0.30336 -0.19629,0.65847 -0.22484,1.06532l-2.59104,0c0.05711,-0.69236 0.207,-1.32229 0.44968,-1.88975s0.56567,-1.04926 0.96897,-1.4454c0.40329,-0.39616 0.87974,-0.70308 1.42935,-0.92078c0.54918,-0.21771 1.15633,-0.32655 1.82016,-0.32655c0.71378,0 1.35039,0.10349 1.91116,0.31049c0.56032,0.20699 1.02964,0.49252 1.40794,0.85654c0.37831,0.36403 0.66738,0.79229 0.86725,1.28481c0.19986,0.49251 0.29978,1.02785 0.29978,1.60601c0,0.53534 -0.07138,1.02786 -0.21413,1.47752c-0.14276,0.44969 -0.35689,0.87796 -0.6424,1.28481c-0.27124,0.37117 -0.67452,0.83513 -1.20986,1.39188c-0.53534,0.55676 -1.19202,1.1599 -1.97005,1.80944c-0.22841,0.19272 -0.52107,0.45147 -0.87795,0.77625c-0.3569,0.32476 -0.70665,0.72626 -1.04927,1.20451l5.99535,0l0,2.36531l-0.00045,0l-0.00001,-0.00002z" fill="black"></path></g><g id="shuzi_b_bian_4" transform="translate(-50,-50)"><path d="m54.96645,54.05346l-1.77282,0l0,3.1344l-2.55111,0l0,-3.1344l-5.60941,0l0,-2.02145l6.16115,-9.21987l1.99982,0l0,8.92801l1.7728,0l0,2.31331l-0.00044,0l0.00001,0zm-4.32348,-2.31331l0,-4.43158l-2.81056,4.43158l2.81056,0z" fill="black"></path></g><g id="xiaojiexian" transform="translate(-50,-50)"><rect fill="#ffffff" stroke-width="0" x="45.05" y="35.85" width="9.9" height="28.4"></rect><rect height="29" width="1.5" y="35.5" x="49.25" stroke-width="null" fill="#1b1b1b"></rect></g><g id="shuzi_b_5" transform="translate(-50,-50)"><rect height="17.9" width="11.1" y="41.05" x="44.45" stroke-width="0" fill="#ffffff"></rect><path fill="black" d="m48.01051,46.989c0.65007,-0.30746 1.43137,-0.4612 2.34499,-0.4612c0.72037,0 1.41217,0.13176 2.07542,0.39531c0.66326,0.26355 1.24911,0.65228 1.75917,1.16618c0.50953,0.51392 0.91362,1.15081 1.21231,1.91015c0.29813,0.75989 0.44802,1.63618 0.44802,2.62886c0,0.87848 -0.14274,1.69767 -0.42826,2.45756s-0.6874,1.4182 -1.20571,1.97659s-1.14862,0.99488 -1.89038,1.31113c-0.74287,0.31626 -1.56591,0.47438 -2.47073,0.47438c-0.73794,0 -1.43194,-0.112 -2.08201,-0.33601c-0.65008,-0.22401 -1.22768,-0.56443 -1.73281,-1.02124c-0.50513,-0.45681 -0.92461,-1.02782 -1.25842,-1.71304s-0.54466,-1.48902 -0.63251,-2.41143l3.18889,0c0.05271,0.48315 0.15374,0.90484 0.30307,1.26502c0.14935,0.36017 0.33602,0.65886 0.56004,0.89605c0.224,0.23719 0.47657,0.41289 0.75768,0.52708c0.28111,0.11421 0.5798,0.1713 0.89606,0.1713c0.42166,0 0.8038,-0.08784 1.14641,-0.26354c0.3426,-0.1757 0.6369,-0.41947 0.88287,-0.73134c0.24597,-0.31131 0.43704,-0.67423 0.57321,-1.08657s0.20425,-0.85652 0.20425,-1.3309c0,-0.5798 -0.07029,-1.08931 -0.21084,-1.52856c-0.14056,-0.43924 -0.33602,-0.80546 -0.5864,-1.1003c-0.25036,-0.29428 -0.54905,-0.51775 -0.89605,-0.67204c-0.34699,-0.15374 -0.73133,-0.23061 -1.15301,-0.23061c-0.97512,0 -1.85798,0.44363 -2.64862,1.3309l-2.43724,0l0.76428,-9.46071l9.59248,0l0,2.89899l-6.85162,0l-0.22456,2.93797z"></path></g><g id="shuzi_b_3" transform="translate(-50,-50)"><rect height="17.9" width="11.1" y="41.05" x="44.45" stroke-width="0" fill="#ffffff"></rect><path fill="black" d="m54.93183,45.6956c0,0.30541 -0.03266,0.61626 -0.09799,0.93421c-0.06533,0.31793 -0.16333,0.62716 -0.29398,0.92767c-0.13066,0.30051 -0.29398,0.58361 -0.48997,0.84929c-0.19599,0.26566 -0.42464,0.49868 -0.68596,0.69902c0.38327,0.20034 0.72298,0.45513 1.01915,0.76435c0.29561,0.30923 0.54441,0.65548 0.74475,1.03874c0.20035,0.38326 0.35278,0.79266 0.4573,1.2282c0.10453,0.43553 0.1568,0.87977 0.1568,1.33272c0,0.80138 -0.14809,1.53743 -0.44425,2.20814s-0.7012,1.24562 -1.21513,1.72415c-0.51393,0.47909 -1.12366,0.85146 -1.82923,1.11714s-1.46338,0.39851 -2.27293,0.39851c-0.81879,0 -1.56791,-0.13066 -2.24733,-0.39198c-0.67942,-0.26131 -1.26957,-0.62933 -1.76989,-1.10406c-0.50087,-0.47473 -0.89937,-1.04963 -1.19553,-1.7247c-0.29616,-0.67453 -0.46602,-1.42582 -0.50957,-2.25388l3.20061,0c0,0.39199 0.05443,0.76219 0.16332,1.11061c0.10888,0.34843 0.27003,0.6533 0.48343,0.91461c0.21342,0.26131 0.47691,0.4682 0.79049,0.62063c0.31358,0.15243 0.67506,0.22865 1.08447,0.22865c0.39198,0 0.74857,-0.06968 1.07141,-0.20905c0.3223,-0.13936 0.59668,-0.33319 0.82316,-0.58143c0.22647,-0.24825 0.40068,-0.54441 0.52263,-0.88848c0.12195,-0.34406 0.18293,-0.72026 0.18293,-1.13019c0,-0.41811 -0.06316,-0.80138 -0.18946,-1.1498c-0.12632,-0.34843 -0.31359,-0.64677 -0.56184,-0.89502c-0.24825,-0.24825 -0.55312,-0.44206 -0.91462,-0.58143c-0.36149,-0.13883 -0.78178,-0.20905 -1.26085,-0.20905l-1.3066,0l0,-2.60012l0.99301,0c0.8188,0 1.43073,-0.21559 1.83576,-0.64677c0.40505,-0.43117 0.60757,-1.01697 0.60757,-1.75736c0,-0.6533 -0.16986,-1.14708 -0.50957,-1.48299c-0.33973,-0.33536 -0.82317,-0.50304 -1.45033,-0.50304c-1.29788,0 -2.03828,0.83622 -2.22121,2.50811l-3.16195,0c0.09582,-0.83621 0.29562,-1.57227 0.60104,-2.20814c0.30487,-0.63533 0.69249,-1.1694 1.16286,-1.60057c0.47037,-0.43118 1.00988,-0.75566 1.62017,-0.97342c0.60974,-0.21777 1.26303,-0.32664 1.95988,-0.32664c0.78396,0 1.4917,0.11324 2.12321,0.33971c0.63153,0.22647 1.17158,0.54441 1.62017,0.9538c0.4486,0.4094 0.79485,0.89502 1.03874,1.45685c0.24335,0.56292 0.3653,1.18356 0.3653,1.86299z"></path></g><g id="shuzi_b_4" transform="translate(-50,-50)"><rect height="17.9" width="11.1" y="41.05" x="44.45" stroke-width="0" fill="#ffffff"></rect><path fill="black" d="m56.19011,55.05219l-2.20961,0l0,3.90667l-3.17968,0l0,-3.90667l-6.99149,0l0,-2.51951l7.67918,-11.49153l2.49255,0l0,11.12776l2.20959,0l0,2.88328l-0.00055,0zm-5.38873,-2.88328l0,-5.52346l-3.50304,5.52346l3.50304,0z"></path></g><g id="shuzi_b_6" transform="translate(-50,-50)"><rect height="17.9" width="11.1" y="41.05" x="44.45" stroke-width="0" fill="#ffffff"></rect><path fill="black" d="m50.29938,43.72362c-0.35482,0 -0.68151,0.10386 -0.98061,0.31155c-0.29856,0.2077 -0.56468,0.50194 -0.79834,0.88272c-0.23367,0.38078 -0.43704,0.84377 -0.61011,1.38898s-0.30344,1.15532 -0.38943,1.83033c0.44947,-0.3202 0.91896,-0.57983 1.40845,-0.77886c0.48895,-0.19905 1.00603,-0.29858 1.55123,-0.29858c0.79619,0 1.51394,0.15578 2.15433,0.46732c0.64039,0.31155 1.18778,0.73776 1.64212,1.27864c0.45434,0.54089 0.80212,1.16831 1.04499,1.88227c0.24177,0.71396 0.36347,1.47335 0.36347,2.27765s-0.12983,1.56638 -0.38943,2.28468c-0.25963,0.71828 -0.62742,1.34354 -1.1034,1.87576s-1.04931,0.95412 -1.71999,1.26567c-0.6707,0.31154 -1.4171,0.46732 -2.23925,0.46732c-0.94329,0 -1.78274,-0.19039 -2.51834,-0.57117c-0.73504,-0.38079 -1.35436,-0.92815 -1.85629,-1.64212c-0.50194,-0.71395 -0.88489,-1.58586 -1.1483,-2.6157c-0.26395,-1.02983 -0.39592,-2.19759 -0.39592,-3.50436c0,-1.52257 0.12764,-2.86829 0.38295,-4.03659c0.25528,-1.1683 0.63607,-2.14838 1.14233,-2.94022c0.50627,-0.79185 1.13964,-1.3906 1.90173,-1.79789c0.76102,-0.40674 1.64861,-0.61011 2.66059,-0.61011c0.65771,0 1.26999,0.10385 1.83683,0.31154c0.5663,0.2077 1.07257,0.51492 1.51878,0.92166c0.44516,0.40674 0.81783,0.9195 1.11584,1.53827c0.29857,0.61877 0.50789,1.3349 0.62959,2.14838l-3.16686,0c-0.18065,-1.55828 -0.86,-2.33715 -2.03695,-2.33715zm-0.18174,6.03569c-0.90003,0 -1.81357,0.463 -2.73849,1.38844c0.02596,0.79618 0.1098,1.51015 0.25314,2.14189c0.1428,0.63175 0.33264,1.1683 0.57117,1.60966c0.23745,0.44136 0.52573,0.78103 0.86325,1.01902c0.33751,0.23798 0.71395,0.35697 1.12935,0.35697c0.36347,0 0.68962,-0.0822 0.98008,-0.24663c0.2899,-0.16443 0.53656,-0.3916 0.73991,-0.68151s0.35915,-0.62742 0.46733,-1.01253c0.10818,-0.38457 0.16225,-0.79834 0.16225,-1.23969c0,-0.45001 -0.05624,-0.87623 -0.16874,-1.27864c-0.11305,-0.40241 -0.27531,-0.75723 -0.48679,-1.06446c-0.21257,-0.30667 -0.46733,-0.54953 -0.76589,-0.72693c-0.2991,-0.17687 -0.63444,-0.26558 -1.00658,-0.26558z"></path></g><g id="yanyinfu" transform="translate(-50,-50)"><rect height="17.9" width="11.1" y="41.05" x="44.45" stroke-width="0" fill="#ffffff"></rect><rect height="3.2" width="11" y="48.4" x="44.5" stroke-width="null" fill="#1b1b1b"></rect></g><g id="shuzi_b_2" transform="translate(-50,-50)"><rect height="17.9" width="11.1" y="41.05" x="44.45" stroke-width="0" fill="#ffffff"></rect><path fill="black" d="m55.87582,58.9208l-11.7522,0c0,-1.51571 0.31466,-2.7472 0.94398,-3.69563c0.34569,-0.50523 0.80661,-1.05922 1.38274,-1.66194c0.57614,-0.60274 1.28968,-1.24979 2.14059,-1.94061c0.75342,-0.61159 1.38939,-1.15672 1.90792,-1.63535c0.51854,-0.47865 0.93513,-0.92792 1.24979,-1.34951c0.31466,-0.42104 0.54068,-0.83541 0.67807,-1.24313s0.20608,-0.84649 0.20608,-1.31626c0,-0.74455 -0.20608,-1.32293 -0.61824,-1.73509c-0.41216,-0.41216 -1.00825,-0.61824 -1.78825,-0.61824c-0.3191,0 -0.62489,0.06426 -0.9174,0.1928c-0.2925,0.12851 -0.55177,0.32131 -0.77779,0.57836c-0.22603,0.25704 -0.41438,0.57393 -0.56507,0.95063c-0.15069,0.37671 -0.24375,0.81768 -0.2792,1.32291l-3.21754,0c0.07092,-0.85977 0.25705,-1.64201 0.55841,-2.34668s0.70245,-1.30296 1.20326,-1.7949c0.5008,-0.49194 1.09246,-0.87307 1.77496,-1.14342c0.68196,-0.27035 1.43592,-0.40551 2.26026,-0.40551c0.88637,0 1.67691,0.12852 2.37326,0.38556c0.6958,0.25705 1.2786,0.61161 1.74837,1.06366c0.46978,0.45205 0.82875,0.98386 1.07695,1.59547c0.24818,0.6116 0.37227,1.27638 0.37227,1.99434c0,0.66478 -0.08864,1.27638 -0.26591,1.83478c-0.17728,0.55843 -0.44318,1.09025 -0.79773,1.59548c-0.33683,0.46091 -0.83762,1.03705 -1.5024,1.72842c-0.66478,0.69138 -1.48024,1.44036 -2.44639,2.24696c-0.28364,0.23932 -0.64706,0.56063 -1.09024,0.96394c-0.44319,0.40329 -0.87751,0.90186 -1.30297,1.49575l7.44499,0l0,2.93723l-0.00056,0z"></path></g><g id="shuzi_b_1" transform="translate(-50,-50)"><rect height="17.9" width="11.1" y="41.05" x="44.45" stroke-width="0" fill="#ffffff"></rect><path fill="black" d="m51.67429,58.96851l-3.22071,0l0,-12.75941c-0.95127,0.34427 -2.26945,0.5164 -3.95398,0.5164l0,-2.70432c2.64486,0 4.15782,-0.99656 4.53833,-2.98969l2.63636,0l0,17.93701l0,0.00001z"></path></g><g id="shuzi_b_0" transform="translate(-50,-50)"><rect height="17.9" width="11.1" y="41.05" x="44.45" stroke-width="0" fill="#ffffff"></rect><path fill="black" d="m49.99374,41.08005c0.94927,0 1.7798,0.19606 2.48943,0.58818c0.71017,0.39212 1.3027,0.97158 1.77761,1.7384s0.83218,1.71009 1.07181,2.82927c0.23963,1.11972 0.35943,2.40719 0.35943,3.86185c0,2.89299 -0.47707,5.08615 -1.43124,6.58057c-0.95415,1.49442 -2.37614,2.24163 -4.26704,2.24163c-1.89962,0 -3.32215,-0.74721 -4.26759,-2.24163c-0.9449,-1.49442 -1.41818,-3.68758 -1.41818,-6.58057c0,-1.45466 0.11764,-2.74213 0.35292,-3.86185c0.23528,-1.11973 0.58982,-2.063 1.06471,-2.82927s1.06746,-1.34629 1.77817,-1.7384c0.71018,-0.39212 1.54017,-0.58818 2.48997,-0.58818zm0,15.23937c0.41827,0 0.7837,-0.10892 1.09793,-0.32676c0.31371,-0.2173 0.57729,-0.57294 0.79078,-1.06527c0.2135,-0.49232 0.37471,-1.1328 0.48362,-1.9214c0.10893,-0.7886 0.16339,-1.75801 0.16339,-2.90823s-0.05446,-2.13053 -0.16339,-2.94036s-0.27011,-1.47264 -0.48362,-1.98621c-0.21402,-0.51411 -0.47707,-0.89098 -0.79078,-1.13062c-0.31369,-0.23963 -0.67967,-0.35944 -1.09793,-0.35944c-0.40954,0 -0.77117,0.11763 -1.08488,0.35291c-0.31314,0.23527 -0.57892,0.60997 -0.79731,1.12354c-0.21731,0.51411 -0.38123,1.17636 -0.48962,1.98676c-0.10891,0.81038 -0.16338,1.79504 -0.16338,2.95343c0,1.15023 0.05447,2.12181 0.16338,2.91478c0.10839,0.79295 0.27231,1.43341 0.48962,1.9214c0.21785,0.48797 0.48417,0.84087 0.79731,1.05873c0.31371,0.21784 0.67533,0.32676 1.08488,0.32676z"></path></g><g id="jieshufu" transform="translate(-50,-50)"><rect fill="#ffffff" stroke-width="0" x="42.45" y="35.65" width="11.7" height="28.4"></rect><rect height="29" width="1" y="35.5" x="45.65" stroke-width="null" fill="#1b1b1b"></rect><rect height="29" width="2.4" y="35.5" x="48.35" stroke-width="null" fill="#1b1b1b"></rect></g><g id="fudian" transform="translate(-50,-50)"><ellipse fill="#1b1b1b" cx="62.35" cy="49.75" rx="2.45" ry="2.45"></ellipse></g><g id="lianyinxian_zuo" transform="translate(-50,-50)"><path stroke="#1b1b1b" d="m50.75,50.75c0,0 -8.39389,0.56947 -12.21896,8.88383" stroke-linecap="round" stroke-linejoin="null" stroke-width="1.2" fill="none"></path></g><g id="lianyinxian_you" transform="translate(-50,-50)"><path stroke="#1b1b1b" d="m50.75,50.75c0,0 7.64178,0.56947 11.12411,8.88383" stroke-linecap="round" stroke-linejoin="null" stroke-width="1.2" fill="none"></path></g></defs>
<text x="500" y="110" dy="35.091" text-anchor="middle" fill="#1b1b1b" style="font-weight:bold;" font-size="42" font-family="Microsoft YaHei">咏十八</text>
<use x="80" y="182" xlink:href="#diaohao_fu" xmlns:xlink="http://www.w3.org/1999/xlink"></use>
<use x="120" y="182" xlink:href="#diaohao_zimu_c" code="c" data-diaohao="true" xmlns:xlink="http://www.w3.org/1999/xlink"></use>
<use x="130" y="182" xlink:href="#paihao_xian" xmlns:xlink="http://www.w3.org/1999/xlink"></use>
<use x="140" y="170" xlink:href="#shuzi_b_bian_2" xmlns:xlink="http://www.w3.org/1999/xlink"></use>
<use x="140" y="194" xlink:href="#shuzi_b_bian_4" fill="#414141" xmlns:xlink="http://www.w3.org/1999/xlink"></use>
<text x="80" y="223" dy="5.368" fill="#1b1b1b" font-size="16" font-family="Microsoft YaHei">进行曲</text>
<text x="920" y="232" dy="-2.632" text-anchor="end" fill="#1b1b1b" font-size="16" font-family="Microsoft YaHei">朱健仁 曲</text>
<use x="83" y="272" xlink:href="#xiaojiexian" notepos="0_1_1" time="0" audio="" code="|" xmlns:xlink="http://www.w3.org/1999/xlink"></use>
<use x="134.75757575758" y="272" xlink:href="#shuzi_b_5" time="1" audio="5" notepos="0_1_2" code="5" xmlns:xlink="http://www.w3.org/1999/xlink"></use>
<text x="120.75757575758" y="310" dy="9.394" fill="#101010" font-size="28" font-family="Microsoft YaHei" cipos="0_1_2">他</text>
<use x="190.21212121212" y="272" xlink:href="#shuzi_b_3" time="0.5" audio="3" notepos="0_1_3" code="3/^" xmlns:xlink="http://www.w3.org/1999/xlink"></use>
<text x="176.21212121212" y="310" dy="9.394" fill="#101010" font-size="28" font-family="Microsoft YaHei" cipos="0_1_3">们</text>
<use x="245.66666666667" y="272" xlink:href="#shuzi_b_4" time="0.5" audio="4" notepos="0_1_4" code="4/" xmlns:xlink="http://www.w3.org/1999/xlink"></use>
<text x="231.66666666667" y="310" dy="9.394" fill="#101010" font-size="28" font-family="Microsoft YaHei" cipos="0_1_4">的</text>
<use x="297.42424242424" y="272" xlink:href="#xiaojiexian" notepos="0_1_5" time="0" audio="" code="|" xmlns:xlink="http://www.w3.org/1999/xlink"></use>
<use x="349.18181818182" y="272" xlink:href="#shuzi_b_5" time="0.5" audio="5" notepos="0_1_6" code="5/" xmlns:xlink="http://www.w3.org/1999/xlink"></use>
<text x="335.18181818182" y="310" dy="9.394" fill="#101010" font-size="28" font-family="Microsoft YaHei" cipos="0_1_6">声</text>
<use x="404.63636363636" y="272" xlink:href="#shuzi_b_5" time="1.5" audio="5" notepos="0_1_7" code="5." xmlns:xlink="http://www.w3.org/1999/xlink"></use>
<text x="390.63636363636" y="310" dy="9.394" fill="#101010" font-size="28" font-family="Microsoft YaHei" cipos="0_1_7">音</text>
<use x="474.87878787879" y="272" xlink:href="#xiaojiexian" notepos="0_1_8" time="0" audio="" code="|" xmlns:xlink="http://www.w3.org/1999/xlink"></use>
<use x="526.63636363636" y="272" xlink:href="#shuzi_b_5" time="0.5" audio="5" notepos="0_1_9" code="5/^" xmlns:xlink="http://www.w3.org/1999/xlink"></use>
<text x="512.63636363636" y="310" dy="9.394" fill="#101010" font-size="28" font-family="Microsoft YaHei" cipos="0_1_9">传</text>
<use x="582.09090909091" y="272" xlink:href="#shuzi_b_5" time="0.5" audio="5" notepos="0_1_10" code="5/^" xmlns:xlink="http://www.w3.org/1999/xlink"></use>
<text x="568.09090909091" y="310" dy="9.394" fill="#101010" font-size="28" font-family="Microsoft YaHei" cipos="0_1_10">遍</text>
<use x="637.54545454545" y="272" xlink:href="#shuzi_b_6" time="0.5" audio="6" notepos="0_1_11" code="6(/^" xmlns:xlink="http://www.w3.org/1999/xlink"></use>
<text x="623.54545454545" y="310" dy="9.394" fill="#101010" font-size="28" font-family="Microsoft YaHei" cipos="0_1_11">大</text>
<use x="693" y="272" xlink:href="#shuzi_b_5" time="0.5" audio="5" notepos="0_1_12" code="5/)" xmlns:xlink="http://www.w3.org/1999/xlink"></use>
<use x="744.75757575758" y="272" xlink:href="#xiaojiexian" notepos="0_1_13" time="0" audio="" code="|" xmlns:xlink="http://www.w3.org/1999/xlink"></use>
<use x="796.51515151515" y="272" xlink:href="#shuzi_b_5" time="1" audio="5" notepos="0_1_14" code="5" xmlns:xlink="http://www.w3.org/1999/xlink"></use>
<text x="782.51515151515" y="310" dy="9.394" fill="#101010" font-size="28" font-family="Microsoft YaHei" cipos="0_1_14">地</text>
<use x="851.9696969697" y="272" xlink:href="#yanyinfu" time="1" audio="" notepos="0_1_15" code="-" xmlns:xlink="http://www.w3.org/1999/xlink"></use>
<use x="923" y="272" xlink:href="#xiaojiexian" notepos="0_1_16" time="0" audio="" code="|" xmlns:xlink="http://www.w3.org/1999/xlink"></use>
<use x="83" y="388" xlink:href="#xiaojiexian" notepos="0_2_1" time="0" audio="" code="|" xmlns:xlink="http://www.w3.org/1999/xlink"></use>
<use x="144" y="388" xlink:href="#shuzi_b_6" time="1" audio="6" notepos="0_2_2" code="6" xmlns:xlink="http://www.w3.org/1999/xlink"></use>
<text x="130" y="426" dy="9.394" fill="#101010" font-size="28" font-family="Microsoft YaHei" cipos="0_2_2">传</text>
<use x="209.35714285714" y="388" xlink:href="#shuzi_b_6" time="0.5" audio="6" notepos="0_2_3" code="6(/^" xmlns:xlink="http://www.w3.org/1999/xlink"></use>
<text x="195.35714285714" y="426" dy="9.394" fill="#101010" font-size="28" font-family="Microsoft YaHei" cipos="0_2_3">遍</text>
<use x="274.71428571429" y="388" xlink:href="#shuzi_b_5" time="0.5" audio="5" notepos="0_2_4" code="5/)" xmlns:xlink="http://www.w3.org/1999/xlink"></use>
<use x="335.71428571429" y="388" xlink:href="#xiaojiexian" notepos="0_2_5" time="0" audio="" code="|" xmlns:xlink="http://www.w3.org/1999/xlink"></use>
<use x="396.71428571429" y="388" xlink:href="#shuzi_b_3" time="1" audio="3" notepos="0_2_6" code="3(" xmlns:xlink="http://www.w3.org/1999/xlink"></use>
<text x="382.71428571429" y="426" dy="9.394" fill="#101010" font-size="28" font-family="Microsoft YaHei" cipos="0_2_6">大</text>
<use x="462.07142857143" y="388" xlink:href="#shuzi_b_2" time="1" audio="2" notepos="0_2_7" code="2)" xmlns:xlink="http://www.w3.org/1999/xlink"></use>
<use x="523.07142857143" y="388" xlink:href="#xiaojiexian" notepos="0_2_8" time="0" audio="" code="|" xmlns:xlink="http://www.w3.org/1999/xlink"></use>
<use x="584.07142857143" y="388" xlink:href="#shuzi_b_1" time="1" audio="1" notepos="0_2_9" code="1(" xmlns:xlink="http://www.w3.org/1999/xlink"></use>
<text x="570.07142857143" y="426" dy="9.394" fill="#101010" font-size="28" font-family="Microsoft YaHei" cipos="0_2_9">地</text>
<text x="598.07142857143" y="426" dy="9.394" fill="#101010" font-size="28" font-family="Microsoft YaHei">。</text>
<use x="649.42857142857" y="388" xlink:href="#yanyinfu" time="1" audio="" notepos="0_2_10" code="-" xmlns:xlink="http://www.w3.org/1999/xlink"></use>
<use x="710.42857142857" y="388" xlink:href="#xiaojiexian" notepos="0_2_11" time="0" audio="" code="|" xmlns:xlink="http://www.w3.org/1999/xlink"></use>
<use x="771.42857142857" y="388" xlink:href="#shuzi_b_1" time="1" audio="0" notepos="0_2_12" code="1)" xmlns:xlink="http://www.w3.org/1999/xlink"></use>
<text x="757.42857142857" y="426" dy="9.394" fill="#101010" font-size="28" font-family="Microsoft YaHei" cipos="0_2_12"></text>
<use x="836.78571428571" y="388" xlink:href="#shuzi_b_0" time="1" audio="0" notepos="0_2_13" code="0" xmlns:xlink="http://www.w3.org/1999/xlink"></use>
<text x="822.78571428571" y="426" dy="9.394" fill="#101010" font-size="28" font-family="Microsoft YaHei" cipos="0_2_13"></text>
<use x="923" y="388" xlink:href="#jieshufu" notepos="0_2_14" time="0" audio="" code="|j" xmlns:xlink="http://www.w3.org/1999/xlink"></use>
<line x1="184.21212121212" y1="285" x2="196.21212121212" y2="285" data-type="jianshixian" stroke-width="2" stroke="#1b1b1b"></line>
<line x1="239.66666666667" y1="285" x2="251.66666666667" y2="285" data-type="jianshixian" stroke-width="2" stroke="#1b1b1b"></line>
<line x1="343.18181818182" y1="285" x2="355.18181818182" y2="285" data-type="jianshixian" stroke-width="2" stroke="#1b1b1b"></line>
<line x1="520.63636363636" y1="285" x2="532.63636363636" y2="285" data-type="jianshixian" stroke-width="2" stroke="#1b1b1b"></line>
<line x1="576.09090909091" y1="285" x2="588.09090909091" y2="285" data-type="jianshixian" stroke-width="2" stroke="#1b1b1b"></line>
<line x1="631.54545454545" y1="285" x2="643.54545454545" y2="285" data-type="jianshixian" stroke-width="2" stroke="#1b1b1b"></line>
<line x1="687" y1="285" x2="699" y2="285" data-type="jianshixian" stroke-width="2" stroke="#1b1b1b"></line>
<line x1="203.35714285714" y1="401" x2="215.35714285714" y2="401" data-type="jianshixian" stroke-width="2" stroke="#1b1b1b"></line>
<line x1="268.71428571429" y1="401" x2="280.71428571429" y2="401" data-type="jianshixian" stroke-width="2" stroke="#1b1b1b"></line>
<use x="404.63636363636" y="272" xlink:href="#fudian" xmlns:xlink="http://www.w3.org/1999/xlink"></use>
<path d="M 638.54545454545,256 C 654.18181818182,246,676.36363636364,246,692,256 M 692,256 C  676.36363636364,247,654.18181818182,247,638.54545454545,256" stroke-width="0.5" stroke="#1b1b1b"></path>
<path d="M 210.35714285714,372 C 228.96428571429,362,255.10714285714,362,273.71428571429,372 M 273.71428571429,372 C  255.10714285714,363,228.96428571429,363,210.35714285714,372" stroke-width="0.5" stroke="#1b1b1b"></path>
<path d="M 397.71428571429,372 C 416.32142857143,362,442.46428571429,362,461.07142857143,372 M 461.07142857143,372 C  442.46428571429,363,416.32142857143,363,397.71428571429,372" stroke-width="0.5" stroke="#1b1b1b"></path>
<use x="596.07142857143" y="362.05" xlink:href="#lianyinxian_zuo" xmlns:xlink="http://www.w3.org/1999/xlink"></use>
<use x="759.42857142857" y="362.05" xlink:href="#lianyinxian_you" xmlns:xlink="http://www.w3.org/1999/xlink"></use>
<line x1="596.87142857143" y1="362.8" x2="760.42857142857" y2="362.8" stroke-width="1.2" stroke="#1b1b1b" fill="none"></line>
<g id="custom">
</g></svg>
