<svg width="1193" height="840" version="1.1" viewBox="0 0 1193 840" encoding="UTF-8" xmlns="http://www.w3.org/2000/svg"><rect x="0" y="0" height="100%" width="100%" fill="#ffffff"></rect><defs>
<g id="diaohao_fu" transform="translate(-50,-50)"><path d="m63.90001,57.81227l-8.81873,0l0,-1.70001l3.45433,0l0,-11.7568l-3.53561,1.04459l0,-1.80243l5.46599,-1.59762l0,14.11224l3.43402,0l0,1.70001l0,0.00001l0,0.00001z" fill="#1b1b1b"></path><rect height="2" width="11" y="46.85897" x="68" stroke-width="33" fill="#1b1b1b"></rect><rect height="2" width="11" y="51.32479" x="68" stroke-width="33" fill="#1b1b1b"></rect></g><g id="diaohao_zimu_c" transform="translate(-50,-50)"><path fill="#1b1b1b" d="m55.85,42.82703q-1.71571,-0.90955 -4.3203,-0.90955q-3.36943,0 -5.37457,2.13949t-2.00512,5.65363q0,3.76219 2.26351,6.06705t5.73631,2.30486q2.23251,0 3.70017,-0.64081l0,-2.10849q-1.67438,0.93021 -3.6795,0.93021q-2.60459,0 -4.25832,-1.73639t-1.65372,-4.69241q0,-2.81131 1.54002,-4.46502t4.02058,-1.65371q2.31519,0 4.03091,1.05424l0,-1.94311l0.00002,0.00001l0.00002,0z"></path></g><g id="paihao_xian" transform="translate(-50,-50)"><rect fill="#1b1b1b" stroke-width="33" stroke-linejoin="null" stroke-linecap="null" x="51" y="49" width="21" height="2"></rect></g><g id="shuzi_b_bian_6" transform="translate(-50,-50)"><path d="m50.243,44.90533c-0.28801,0 -0.5532,0.0843 -0.79599,0.2529c-0.24235,0.16859 -0.45836,0.40743 -0.64803,0.71652c-0.18968,0.30909 -0.35476,0.68491 -0.49524,1.12747s-0.24631,0.9378 -0.31611,1.48572c0.36485,-0.25991 0.74594,-0.47066 1.14327,-0.63222c0.39689,-0.16157 0.81662,-0.24237 1.25917,-0.24237c0.64629,0 1.2289,0.12645 1.74872,0.37934c0.51982,0.2529 0.96415,0.59885 1.33294,1.0379c0.3688,0.43905 0.6511,0.94835 0.84824,1.52788c0.19625,0.57954 0.29504,1.19595 0.29504,1.84882s-0.10538,1.27147 -0.3161,1.85453c-0.21075,0.58304 -0.50929,1.09058 -0.89566,1.52259s-0.85175,0.77448 -1.39616,1.02737c-0.54442,0.25288 -1.15029,0.37933 -1.81765,0.37933c-0.76569,0 -1.44709,-0.15454 -2.04419,-0.46363c-0.59665,-0.3091 -1.09936,-0.7534 -1.50679,-1.33295c-0.40744,-0.57952 -0.71828,-1.28728 -0.9321,-2.12322c-0.21426,-0.83594 -0.32138,-1.78384 -0.32138,-2.84457c0,-1.2359 0.10361,-2.32826 0.31085,-3.27659c0.20721,-0.94833 0.51631,-1.74389 0.92725,-2.38664c0.41095,-0.64276 0.92508,-1.12878 1.54368,-1.45939c0.61774,-0.33015 1.33821,-0.49524 2.15966,-0.49524c0.53388,0 1.03088,0.08429 1.491,0.25288c0.45968,0.16859 0.87063,0.41797 1.23283,0.74813c0.36134,0.33016 0.66385,0.74638 0.90575,1.24865c0.24236,0.50227 0.41227,1.08357 0.51105,1.74389l-2.57061,0c-0.14664,-1.26489 -0.69809,-1.89712 -1.65344,-1.89712l-0.00001,0.00001zm-0.14752,4.89931c-0.73058,0 -1.47212,0.37583 -2.2229,1.12703c0.02107,0.64628 0.08913,1.22582 0.20548,1.73862c0.11591,0.51281 0.27001,0.94833 0.46363,1.3066c0.19274,0.35826 0.42675,0.63398 0.70072,0.82716c0.27396,0.19317 0.57953,0.28976 0.91672,0.28976c0.29504,0 0.55978,-0.06673 0.79555,-0.2002c0.23532,-0.13347 0.43554,-0.31787 0.6006,-0.5532s0.29153,-0.50929 0.37934,-0.82189c0.08781,-0.31216 0.13171,-0.64803 0.13171,-1.00629c0,-0.36528 -0.04565,-0.71126 -0.13697,-1.0379c-0.09177,-0.32664 -0.22347,-0.61466 -0.39514,-0.86404c-0.17255,-0.24893 -0.37934,-0.44606 -0.62169,-0.59007c-0.24279,-0.14357 -0.51499,-0.21558 -0.81707,-0.21558l0.00001,-0.00001z" fill="black"></path></g><g id="shuzi_b_bian_8" transform="translate(-50,-50)"><path d="m54.13453,46.38159c0,0.60387 -0.14614,1.17966 -0.4371,1.72736c-0.29142,0.5477 -0.73203,1.0322 -1.32185,1.45351c0.37215,0.21066 0.70042,0.45292 0.98437,0.72676c0.28437,0.27385 0.52135,0.56701 0.71095,0.87948c0.18958,0.31247 0.33177,0.63722 0.42657,0.97427c0.09524,0.33706 0.14219,0.6776 0.14219,1.02166c0,0.60387 -0.11235,1.15157 -0.33704,1.6431c-0.22514,0.49152 -0.54068,0.91459 -0.94794,1.26919c-0.40725,0.35459 -0.89702,0.62844 -1.46931,0.82155s-1.20247,0.28965 -1.89061,0.28965c-0.68814,0 -1.31659,-0.09655 -1.88536,-0.28965s-1.05677,-0.46519 -1.46405,-0.81628c-0.40726,-0.3511 -0.7228,-0.77415 -0.94749,-1.2692c-0.22514,-0.49459 -0.33749,-1.04404 -0.33749,-1.64791c0,-0.34408 0.04565,-0.68463 0.13737,-1.02168c0.09129,-0.33704 0.23129,-0.66136 0.42131,-0.97427c0.18958,-0.31203 0.42482,-0.60564 0.70524,-0.87948c0.28088,-0.27386 0.61134,-0.51611 0.99008,-0.72676c-0.56876,-0.42131 -1.00411,-0.90713 -1.30605,-1.45877c-0.30194,-0.55121 -0.4529,-1.12481 -0.4529,-1.72209c0,-0.51961 0.10051,-0.99841 0.30062,-1.43727s0.481,-0.81629 0.84261,-1.13227c0.36118,-0.31598 0.79653,-0.56174 1.30605,-0.73729c0.50864,-0.17554 1.07214,-0.26332 1.69049,-0.26332c0.61748,0 1.17966,0.08953 1.68523,0.26859c0.50513,0.17905 0.94092,0.42657 1.30605,0.74255c0.36513,0.31598 0.64777,0.69165 0.84789,1.127c0.19968,0.43447 0.30017,0.91195 0.30017,1.43156l0.00002,0.00002zm-2.04379,6.78261c0,-0.46343 -0.17027,-0.89528 -0.51083,-1.29552c-0.34012,-0.40025 -0.86851,-0.76537 -1.58473,-1.09541c-0.21767,0.10533 -0.4494,0.23348 -0.69516,0.38444c-0.24621,0.15098 -0.47221,0.32652 -0.67937,0.52664c-0.20714,0.20011 -0.37917,0.42482 -0.5161,0.67409c-0.13736,0.24929 -0.20538,0.51787 -0.20538,0.80576c0,0.61088 0.19135,1.08487 0.57402,1.42191s0.88958,0.50558 1.52198,0.50558c0.30895,0 0.59158,-0.04388 0.84787,-0.13165s0.47749,-0.21416 0.66357,-0.37918c0.18607,-0.16457 0.33001,-0.36689 0.43184,-0.60562c0.10138,-0.23875 0.15228,-0.50909 0.15228,-0.81102l0,-0.00001zm-3.68599,-6.78261c0,0.81453 0.53015,1.47808 1.59043,1.99068c1.06732,-0.51962 1.60053,-1.18273 1.60053,-1.99068c0,-0.47002 -0.14043,-0.83339 -0.4213,-1.08969s-0.6741,-0.38444 -1.17966,-0.38444c-0.49855,0 -0.88826,0.12815 -1.16913,0.38444s-0.42088,0.61967 -0.42088,1.08969z" fill="black"></path></g><g id="shuzi_b_5" transform="translate(-50,-50)"><rect height="17.9" width="11.1" y="41.05" x="44.45" stroke-width="0" fill="#ffffff"></rect><path fill="black" d="m48.01051,46.989c0.65007,-0.30746 1.43137,-0.4612 2.34499,-0.4612c0.72037,0 1.41217,0.13176 2.07542,0.39531c0.66326,0.26355 1.24911,0.65228 1.75917,1.16618c0.50953,0.51392 0.91362,1.15081 1.21231,1.91015c0.29813,0.75989 0.44802,1.63618 0.44802,2.62886c0,0.87848 -0.14274,1.69767 -0.42826,2.45756s-0.6874,1.4182 -1.20571,1.97659s-1.14862,0.99488 -1.89038,1.31113c-0.74287,0.31626 -1.56591,0.47438 -2.47073,0.47438c-0.73794,0 -1.43194,-0.112 -2.08201,-0.33601c-0.65008,-0.22401 -1.22768,-0.56443 -1.73281,-1.02124c-0.50513,-0.45681 -0.92461,-1.02782 -1.25842,-1.71304s-0.54466,-1.48902 -0.63251,-2.41143l3.18889,0c0.05271,0.48315 0.15374,0.90484 0.30307,1.26502c0.14935,0.36017 0.33602,0.65886 0.56004,0.89605c0.224,0.23719 0.47657,0.41289 0.75768,0.52708c0.28111,0.11421 0.5798,0.1713 0.89606,0.1713c0.42166,0 0.8038,-0.08784 1.14641,-0.26354c0.3426,-0.1757 0.6369,-0.41947 0.88287,-0.73134c0.24597,-0.31131 0.43704,-0.67423 0.57321,-1.08657s0.20425,-0.85652 0.20425,-1.3309c0,-0.5798 -0.07029,-1.08931 -0.21084,-1.52856c-0.14056,-0.43924 -0.33602,-0.80546 -0.5864,-1.1003c-0.25036,-0.29428 -0.54905,-0.51775 -0.89605,-0.67204c-0.34699,-0.15374 -0.73133,-0.23061 -1.15301,-0.23061c-0.97512,0 -1.85798,0.44363 -2.64862,1.3309l-2.43724,0l0.76428,-9.46071l9.59248,0l0,2.89899l-6.85162,0l-0.22456,2.93797z"></path></g><g id="shuzi_b_6" transform="translate(-50,-50)"><rect height="17.9" width="11.1" y="41.05" x="44.45" stroke-width="0" fill="#ffffff"></rect><path fill="black" d="m50.29938,43.72362c-0.35482,0 -0.68151,0.10386 -0.98061,0.31155c-0.29856,0.2077 -0.56468,0.50194 -0.79834,0.88272c-0.23367,0.38078 -0.43704,0.84377 -0.61011,1.38898s-0.30344,1.15532 -0.38943,1.83033c0.44947,-0.3202 0.91896,-0.57983 1.40845,-0.77886c0.48895,-0.19905 1.00603,-0.29858 1.55123,-0.29858c0.79619,0 1.51394,0.15578 2.15433,0.46732c0.64039,0.31155 1.18778,0.73776 1.64212,1.27864c0.45434,0.54089 0.80212,1.16831 1.04499,1.88227c0.24177,0.71396 0.36347,1.47335 0.36347,2.27765s-0.12983,1.56638 -0.38943,2.28468c-0.25963,0.71828 -0.62742,1.34354 -1.1034,1.87576s-1.04931,0.95412 -1.71999,1.26567c-0.6707,0.31154 -1.4171,0.46732 -2.23925,0.46732c-0.94329,0 -1.78274,-0.19039 -2.51834,-0.57117c-0.73504,-0.38079 -1.35436,-0.92815 -1.85629,-1.64212c-0.50194,-0.71395 -0.88489,-1.58586 -1.1483,-2.6157c-0.26395,-1.02983 -0.39592,-2.19759 -0.39592,-3.50436c0,-1.52257 0.12764,-2.86829 0.38295,-4.03659c0.25528,-1.1683 0.63607,-2.14838 1.14233,-2.94022c0.50627,-0.79185 1.13964,-1.3906 1.90173,-1.79789c0.76102,-0.40674 1.64861,-0.61011 2.66059,-0.61011c0.65771,0 1.26999,0.10385 1.83683,0.31154c0.5663,0.2077 1.07257,0.51492 1.51878,0.92166c0.44516,0.40674 0.81783,0.9195 1.11584,1.53827c0.29857,0.61877 0.50789,1.3349 0.62959,2.14838l-3.16686,0c-0.18065,-1.55828 -0.86,-2.33715 -2.03695,-2.33715zm-0.18174,6.03569c-0.90003,0 -1.81357,0.463 -2.73849,1.38844c0.02596,0.79618 0.1098,1.51015 0.25314,2.14189c0.1428,0.63175 0.33264,1.1683 0.57117,1.60966c0.23745,0.44136 0.52573,0.78103 0.86325,1.01902c0.33751,0.23798 0.71395,0.35697 1.12935,0.35697c0.36347,0 0.68962,-0.0822 0.98008,-0.24663c0.2899,-0.16443 0.53656,-0.3916 0.73991,-0.68151s0.35915,-0.62742 0.46733,-1.01253c0.10818,-0.38457 0.16225,-0.79834 0.16225,-1.23969c0,-0.45001 -0.05624,-0.87623 -0.16874,-1.27864c-0.11305,-0.40241 -0.27531,-0.75723 -0.48679,-1.06446c-0.21257,-0.30667 -0.46733,-0.54953 -0.76589,-0.72693c-0.2991,-0.17687 -0.63444,-0.26558 -1.00658,-0.26558z"></path></g><g id="shuzi_b_1" transform="translate(-50,-50)"><rect height="17.9" width="11.1" y="41.05" x="44.45" stroke-width="0" fill="#ffffff"></rect><path fill="black" d="m51.67429,58.96851l-3.22071,0l0,-12.75941c-0.95127,0.34427 -2.26945,0.5164 -3.95398,0.5164l0,-2.70432c2.64486,0 4.15782,-0.99656 4.53833,-2.98969l2.63636,0l0,17.93701l0,0.00001z"></path></g><g id="xiaojiexian" transform="translate(-50,-50)"><rect fill="#ffffff" stroke-width="0" x="45.05" y="35.85" width="9.9" height="28.4"></rect><rect height="29" width="1.5" y="35.5" x="49.25" stroke-width="null" fill="#1b1b1b"></rect></g><g id="shuzi_b_2" transform="translate(-50,-50)"><rect height="17.9" width="11.1" y="41.05" x="44.45" stroke-width="0" fill="#ffffff"></rect><path fill="black" d="m55.87582,58.9208l-11.7522,0c0,-1.51571 0.31466,-2.7472 0.94398,-3.69563c0.34569,-0.50523 0.80661,-1.05922 1.38274,-1.66194c0.57614,-0.60274 1.28968,-1.24979 2.14059,-1.94061c0.75342,-0.61159 1.38939,-1.15672 1.90792,-1.63535c0.51854,-0.47865 0.93513,-0.92792 1.24979,-1.34951c0.31466,-0.42104 0.54068,-0.83541 0.67807,-1.24313s0.20608,-0.84649 0.20608,-1.31626c0,-0.74455 -0.20608,-1.32293 -0.61824,-1.73509c-0.41216,-0.41216 -1.00825,-0.61824 -1.78825,-0.61824c-0.3191,0 -0.62489,0.06426 -0.9174,0.1928c-0.2925,0.12851 -0.55177,0.32131 -0.77779,0.57836c-0.22603,0.25704 -0.41438,0.57393 -0.56507,0.95063c-0.15069,0.37671 -0.24375,0.81768 -0.2792,1.32291l-3.21754,0c0.07092,-0.85977 0.25705,-1.64201 0.55841,-2.34668s0.70245,-1.30296 1.20326,-1.7949c0.5008,-0.49194 1.09246,-0.87307 1.77496,-1.14342c0.68196,-0.27035 1.43592,-0.40551 2.26026,-0.40551c0.88637,0 1.67691,0.12852 2.37326,0.38556c0.6958,0.25705 1.2786,0.61161 1.74837,1.06366c0.46978,0.45205 0.82875,0.98386 1.07695,1.59547c0.24818,0.6116 0.37227,1.27638 0.37227,1.99434c0,0.66478 -0.08864,1.27638 -0.26591,1.83478c-0.17728,0.55843 -0.44318,1.09025 -0.79773,1.59548c-0.33683,0.46091 -0.83762,1.03705 -1.5024,1.72842c-0.66478,0.69138 -1.48024,1.44036 -2.44639,2.24696c-0.28364,0.23932 -0.64706,0.56063 -1.09024,0.96394c-0.44319,0.40329 -0.87751,0.90186 -1.30297,1.49575l7.44499,0l0,2.93723l-0.00056,0z"></path></g><g id="shuzi_b_3" transform="translate(-50,-50)"><rect height="17.9" width="11.1" y="41.05" x="44.45" stroke-width="0" fill="#ffffff"></rect><path fill="black" d="m54.93183,45.6956c0,0.30541 -0.03266,0.61626 -0.09799,0.93421c-0.06533,0.31793 -0.16333,0.62716 -0.29398,0.92767c-0.13066,0.30051 -0.29398,0.58361 -0.48997,0.84929c-0.19599,0.26566 -0.42464,0.49868 -0.68596,0.69902c0.38327,0.20034 0.72298,0.45513 1.01915,0.76435c0.29561,0.30923 0.54441,0.65548 0.74475,1.03874c0.20035,0.38326 0.35278,0.79266 0.4573,1.2282c0.10453,0.43553 0.1568,0.87977 0.1568,1.33272c0,0.80138 -0.14809,1.53743 -0.44425,2.20814s-0.7012,1.24562 -1.21513,1.72415c-0.51393,0.47909 -1.12366,0.85146 -1.82923,1.11714s-1.46338,0.39851 -2.27293,0.39851c-0.81879,0 -1.56791,-0.13066 -2.24733,-0.39198c-0.67942,-0.26131 -1.26957,-0.62933 -1.76989,-1.10406c-0.50087,-0.47473 -0.89937,-1.04963 -1.19553,-1.7247c-0.29616,-0.67453 -0.46602,-1.42582 -0.50957,-2.25388l3.20061,0c0,0.39199 0.05443,0.76219 0.16332,1.11061c0.10888,0.34843 0.27003,0.6533 0.48343,0.91461c0.21342,0.26131 0.47691,0.4682 0.79049,0.62063c0.31358,0.15243 0.67506,0.22865 1.08447,0.22865c0.39198,0 0.74857,-0.06968 1.07141,-0.20905c0.3223,-0.13936 0.59668,-0.33319 0.82316,-0.58143c0.22647,-0.24825 0.40068,-0.54441 0.52263,-0.88848c0.12195,-0.34406 0.18293,-0.72026 0.18293,-1.13019c0,-0.41811 -0.06316,-0.80138 -0.18946,-1.1498c-0.12632,-0.34843 -0.31359,-0.64677 -0.56184,-0.89502c-0.24825,-0.24825 -0.55312,-0.44206 -0.91462,-0.58143c-0.36149,-0.13883 -0.78178,-0.20905 -1.26085,-0.20905l-1.3066,0l0,-2.60012l0.99301,0c0.8188,0 1.43073,-0.21559 1.83576,-0.64677c0.40505,-0.43117 0.60757,-1.01697 0.60757,-1.75736c0,-0.6533 -0.16986,-1.14708 -0.50957,-1.48299c-0.33973,-0.33536 -0.82317,-0.50304 -1.45033,-0.50304c-1.29788,0 -2.03828,0.83622 -2.22121,2.50811l-3.16195,0c0.09582,-0.83621 0.29562,-1.57227 0.60104,-2.20814c0.30487,-0.63533 0.69249,-1.1694 1.16286,-1.60057c0.47037,-0.43118 1.00988,-0.75566 1.62017,-0.97342c0.60974,-0.21777 1.26303,-0.32664 1.95988,-0.32664c0.78396,0 1.4917,0.11324 2.12321,0.33971c0.63153,0.22647 1.17158,0.54441 1.62017,0.9538c0.4486,0.4094 0.79485,0.89502 1.03874,1.45685c0.24335,0.56292 0.3653,1.18356 0.3653,1.86299z"></path></g><g id="shuzi_b_0" transform="translate(-50,-50)"><rect height="17.9" width="11.1" y="41.05" x="44.45" stroke-width="0" fill="#ffffff"></rect><path fill="black" d="m49.99374,41.08005c0.94927,0 1.7798,0.19606 2.48943,0.58818c0.71017,0.39212 1.3027,0.97158 1.77761,1.7384s0.83218,1.71009 1.07181,2.82927c0.23963,1.11972 0.35943,2.40719 0.35943,3.86185c0,2.89299 -0.47707,5.08615 -1.43124,6.58057c-0.95415,1.49442 -2.37614,2.24163 -4.26704,2.24163c-1.89962,0 -3.32215,-0.74721 -4.26759,-2.24163c-0.9449,-1.49442 -1.41818,-3.68758 -1.41818,-6.58057c0,-1.45466 0.11764,-2.74213 0.35292,-3.86185c0.23528,-1.11973 0.58982,-2.063 1.06471,-2.82927s1.06746,-1.34629 1.77817,-1.7384c0.71018,-0.39212 1.54017,-0.58818 2.48997,-0.58818zm0,15.23937c0.41827,0 0.7837,-0.10892 1.09793,-0.32676c0.31371,-0.2173 0.57729,-0.57294 0.79078,-1.06527c0.2135,-0.49232 0.37471,-1.1328 0.48362,-1.9214c0.10893,-0.7886 0.16339,-1.75801 0.16339,-2.90823s-0.05446,-2.13053 -0.16339,-2.94036s-0.27011,-1.47264 -0.48362,-1.98621c-0.21402,-0.51411 -0.47707,-0.89098 -0.79078,-1.13062c-0.31369,-0.23963 -0.67967,-0.35944 -1.09793,-0.35944c-0.40954,0 -0.77117,0.11763 -1.08488,0.35291c-0.31314,0.23527 -0.57892,0.60997 -0.79731,1.12354c-0.21731,0.51411 -0.38123,1.17636 -0.48962,1.98676c-0.10891,0.81038 -0.16338,1.79504 -0.16338,2.95343c0,1.15023 0.05447,2.12181 0.16338,2.91478c0.10839,0.79295 0.27231,1.43341 0.48962,1.9214c0.21785,0.48797 0.48417,0.84087 0.79731,1.05873c0.31371,0.21784 0.67533,0.32676 1.08488,0.32676z"></path></g><g id="jieshufu" transform="translate(-50,-50)"><rect fill="#ffffff" stroke-width="0" x="42.45" y="35.65" width="11.7" height="28.4"></rect><rect height="29" width="1" y="35.5" x="45.65" stroke-width="null" fill="#1b1b1b"></rect><rect height="29" width="2.4" y="35.5" x="48.35" stroke-width="null" fill="#1b1b1b"></rect></g><g id="yingao_di" transform="translate(-50,-50)"><ellipse ry="1.9" rx="1.9" cy="63" cx="49.3" fill="#1b1b1b"></ellipse></g><g id="fudian" transform="translate(-50,-50)"><ellipse fill="#1b1b1b" cx="62.35" cy="49.75" rx="2.45" ry="2.45"></ellipse></g><g id="lianyinxian_zuo" transform="translate(-50,-50)"><path stroke="#1b1b1b" d="m50.75,50.75c0,0 -8.39389,0.56947 -12.21896,8.88383" stroke-linecap="round" stroke-linejoin="null" stroke-width="1.2" fill="none"></path></g><g id="lianyinxian_you" transform="translate(-50,-50)"><path stroke="#1b1b1b" d="m50.75,50.75c0,0 7.64178,0.56947 11.12411,8.88383" stroke-linecap="round" stroke-linejoin="null" stroke-width="1.2" fill="none"></path></g></defs>
<text x="596.5" y="110" dy="30.078" text-anchor="middle" fill="#1b1b1b" style="font-weight:bold;" font-size="36" font-family="Microsoft YaHei">咏七七</text>
<text x="596.5" y="166" dy="23.394" text-anchor="middle" fill="#1b1b1b" font-size="28" font-family="Microsoft YaHei">光荣十字圣架</text>
<use x="80" y="176" xlink:href="#diaohao_fu" xmlns:xlink="http://www.w3.org/1999/xlink"></use>
<use x="120" y="176" xlink:href="#diaohao_zimu_c" code="C" data-diaohao="true" xmlns:xlink="http://www.w3.org/1999/xlink"></use>
<use x="130" y="176" xlink:href="#paihao_xian" xmlns:xlink="http://www.w3.org/1999/xlink"></use>
<use x="140" y="164" xlink:href="#shuzi_b_bian_6" xmlns:xlink="http://www.w3.org/1999/xlink"></use>
<use x="140" y="188" xlink:href="#shuzi_b_bian_8" fill="#414141" xmlns:xlink="http://www.w3.org/1999/xlink"></use>
<text x="80" y="217" dy="5.368" fill="#1b1b1b" font-size="16" font-family="Microsoft YaHei">庄严</text>
<text x="1113" y="226" dy="-2.632" text-anchor="end" fill="#1b1b1b" font-size="16" font-family="Microsoft YaHei">朱健仁 曲</text>
<use x="83" y="266" xlink:href="#shuzi_b_5" time="0.5" audio="5," notepos="0_1_1" code="5,/^" xmlns:xlink="http://www.w3.org/1999/xlink"></use>
<text x="69" y="304" dy="9.394" fill="#101010" font-size="28" font-family="Microsoft YaHei" cipos="0_1_1">你</text>
<use x="127.74358974359" y="266" xlink:href="#shuzi_b_6" time="0.5" audio="6," notepos="0_1_2" code="6,/^" xmlns:xlink="http://www.w3.org/1999/xlink"></use>
<text x="113.74358974359" y="304" dy="9.394" fill="#101010" font-size="28" font-family="Microsoft YaHei" cipos="0_1_2">们</text>
<use x="172.48717948718" y="266" xlink:href="#shuzi_b_1" time="0.5" audio="1" notepos="0_1_3" code="1/" xmlns:xlink="http://www.w3.org/1999/xlink"></use>
<text x="158.48717948718" y="304" dy="9.394" fill="#101010" font-size="28" font-family="Microsoft YaHei" cipos="0_1_3">要</text>
<use x="214.24786324786" y="266" xlink:href="#xiaojiexian" notepos="0_1_4" time="0" audio="" code="|" xmlns:xlink="http://www.w3.org/1999/xlink"></use>
<use x="256.00854700855" y="266" xlink:href="#shuzi_b_2" time="0.5" audio="2" notepos="0_1_5" code="2/^" xmlns:xlink="http://www.w3.org/1999/xlink"></use>
<text x="242.00854700855" y="304" dy="9.394" fill="#101010" font-size="28" font-family="Microsoft YaHei" cipos="0_1_5">常</text>
<use x="300.75213675214" y="266" xlink:href="#shuzi_b_3" time="0.5" audio="3" notepos="0_1_6" code="3/^" xmlns:xlink="http://www.w3.org/1999/xlink"></use>
<text x="286.75213675214" y="304" dy="9.394" fill="#101010" font-size="28" font-family="Microsoft YaHei" cipos="0_1_6">记</text>
<use x="345.49572649573" y="266" xlink:href="#shuzi_b_3" time="0.5" audio="3" notepos="0_1_7" code="3(/" xmlns:xlink="http://www.w3.org/1999/xlink"></use>
<text x="331.49572649573" y="304" dy="9.394" fill="#101010" font-size="28" font-family="Microsoft YaHei" cipos="0_1_7">住</text>
<use x="390.23931623932" y="266" xlink:href="#shuzi_b_3" time="1.5" audio="3" notepos="0_1_8" code="3." xmlns:xlink="http://www.w3.org/1999/xlink"></use>
<use x="446.91452991453" y="266" xlink:href="#xiaojiexian" notepos="0_1_9" time="0" audio="" code="|" xmlns:xlink="http://www.w3.org/1999/xlink"></use>
<use x="488.67521367521" y="266" xlink:href="#shuzi_b_3" time="1.5" audio="0" notepos="0_1_10" code="3)." xmlns:xlink="http://www.w3.org/1999/xlink"></use>
<use x="548.33333333333" y="266" xlink:href="#shuzi_b_6" time="0.5" audio="6" notepos="0_1_11" code="6/" xmlns:xlink="http://www.w3.org/1999/xlink"></use>
<text x="534.33333333333" y="304" dy="9.394" fill="#101010" font-size="28" font-family="Microsoft YaHei" cipos="0_1_11">天</text>
<use x="593.07692307692" y="266" xlink:href="#shuzi_b_5" time="0.5" audio="5" notepos="0_1_12" code="5/^" xmlns:xlink="http://www.w3.org/1999/xlink"></use>
<text x="579.07692307692" y="304" dy="9.394" fill="#101010" font-size="28" font-family="Microsoft YaHei" cipos="0_1_12">主</text>
<use x="637.82051282051" y="266" xlink:href="#shuzi_b_6" time="0.5" audio="6" notepos="0_1_13" code="6/" xmlns:xlink="http://www.w3.org/1999/xlink"></use>
<text x="623.82051282051" y="304" dy="9.394" fill="#101010" font-size="28" font-family="Microsoft YaHei" cipos="0_1_13">的</text>
<use x="679.5811965812" y="266" xlink:href="#xiaojiexian" notepos="0_1_14" time="0" audio="" code="|" xmlns:xlink="http://www.w3.org/1999/xlink"></use>
<use x="721.34188034188" y="266" xlink:href="#shuzi_b_1" time="0.5" audio="1" notepos="0_1_15" code="1/" xmlns:xlink="http://www.w3.org/1999/xlink"></use>
<text x="707.34188034188" y="304" dy="9.394" fill="#101010" font-size="28" font-family="Microsoft YaHei" cipos="0_1_15">伟</text>
<use x="766.08547008547" y="266" xlink:href="#shuzi_b_3" time="1" audio="3" notepos="0_1_16" code="3(" xmlns:xlink="http://www.w3.org/1999/xlink"></use>
<text x="752.08547008547" y="304" dy="9.394" fill="#101010" font-size="28" font-family="Microsoft YaHei" cipos="0_1_16">业</text>
<text x="780.08547008547" y="304" dy="9.394" fill="#101010" font-size="28" font-family="Microsoft YaHei">。</text>
<use x="810.82905982906" y="266" xlink:href="#shuzi_b_3" time="1.5" audio="3" notepos="0_1_17" code="3." xmlns:xlink="http://www.w3.org/1999/xlink"></use>
<use x="867.50427350427" y="266" xlink:href="#xiaojiexian" notepos="0_1_18" time="0" audio="" code="|" xmlns:xlink="http://www.w3.org/1999/xlink"></use>
<use x="909.26495726496" y="266" xlink:href="#shuzi_b_3" time="1.5" audio="0" notepos="0_1_19" code="3)." xmlns:xlink="http://www.w3.org/1999/xlink"></use>
<use x="968.92307692308" y="266" xlink:href="#shuzi_b_5" time="0.5" audio="5," notepos="0_1_20" code="5,/" xmlns:xlink="http://www.w3.org/1999/xlink"></use>
<text x="954.92307692308" y="304" dy="9.394" fill="#101010" font-size="28" font-family="Microsoft YaHei" cipos="0_1_20">你</text>
<use x="1013.6666666667" y="266" xlink:href="#shuzi_b_6" time="0.5" audio="6," notepos="0_1_21" code="6,/^" xmlns:xlink="http://www.w3.org/1999/xlink"></use>
<text x="999.66666666667" y="304" dy="9.394" fill="#101010" font-size="28" font-family="Microsoft YaHei" cipos="0_1_21">们</text>
<use x="1058.4102564103" y="266" xlink:href="#shuzi_b_1" time="0.5" audio="1" notepos="0_1_22" code="1/" xmlns:xlink="http://www.w3.org/1999/xlink"></use>
<text x="1044.4102564103" y="304" dy="9.394" fill="#101010" font-size="28" font-family="Microsoft YaHei" cipos="0_1_22">要</text>
<use x="1116" y="266" xlink:href="#xiaojiexian" notepos="0_1_23" time="0" audio="" code="|" xmlns:xlink="http://www.w3.org/1999/xlink"></use>
<use x="83" y="382" xlink:href="#shuzi_b_2" time="0.5" audio="2" notepos="0_2_1" code="2/^" xmlns:xlink="http://www.w3.org/1999/xlink"></use>
<text x="69" y="420" dy="9.394" fill="#101010" font-size="28" font-family="Microsoft YaHei" cipos="0_2_1">常</text>
<use x="141.60074626866" y="382" xlink:href="#shuzi_b_3" time="0.5" audio="3" notepos="0_2_2" code="3/^" xmlns:xlink="http://www.w3.org/1999/xlink"></use>
<text x="127.60074626866" y="420" dy="9.394" fill="#101010" font-size="28" font-family="Microsoft YaHei" cipos="0_2_2">记</text>
<use x="200.20149253731" y="382" xlink:href="#shuzi_b_2" time="0.5" audio="2" notepos="0_2_3" code="2(/" xmlns:xlink="http://www.w3.org/1999/xlink"></use>
<text x="186.20149253731" y="420" dy="9.394" fill="#101010" font-size="28" font-family="Microsoft YaHei" cipos="0_2_3">住</text>
<use x="258.80223880597" y="382" xlink:href="#shuzi_b_2" time="1.5" audio="2" notepos="0_2_4" code="2." xmlns:xlink="http://www.w3.org/1999/xlink"></use>
<use x="333.02985074627" y="382" xlink:href="#xiaojiexian" notepos="0_2_5" time="0" audio="" code="|" xmlns:xlink="http://www.w3.org/1999/xlink"></use>
<use x="387.72388059701" y="382" xlink:href="#shuzi_b_2" time="1.5" audio="0" notepos="0_2_6" code="2)." xmlns:xlink="http://www.w3.org/1999/xlink"></use>
<use x="465.85820895522" y="382" xlink:href="#shuzi_b_3" time="0.5" audio="3" notepos="0_2_7" code="3/" xmlns:xlink="http://www.w3.org/1999/xlink"></use>
<text x="451.85820895522" y="420" dy="9.394" fill="#101010" font-size="28" font-family="Microsoft YaHei" cipos="0_2_7">天</text>
<use x="524.45895522388" y="382" xlink:href="#shuzi_b_2" time="0.5" audio="2" notepos="0_2_8" code="2/^" xmlns:xlink="http://www.w3.org/1999/xlink"></use>
<text x="510.45895522388" y="420" dy="9.394" fill="#101010" font-size="28" font-family="Microsoft YaHei" cipos="0_2_8">主</text>
<use x="583.05970149254" y="382" xlink:href="#shuzi_b_3" time="0.5" audio="3" notepos="0_2_9" code="3/" xmlns:xlink="http://www.w3.org/1999/xlink"></use>
<text x="569.05970149254" y="420" dy="9.394" fill="#101010" font-size="28" font-family="Microsoft YaHei" cipos="0_2_9">的</text>
<use x="637.75373134328" y="382" xlink:href="#xiaojiexian" notepos="0_2_10" time="0" audio="" code="|" xmlns:xlink="http://www.w3.org/1999/xlink"></use>
<use x="692.44776119403" y="382" xlink:href="#shuzi_b_6" time="0.5" audio="6," notepos="0_2_11" code="6,/" xmlns:xlink="http://www.w3.org/1999/xlink"></use>
<text x="678.44776119403" y="420" dy="9.394" fill="#101010" font-size="28" font-family="Microsoft YaHei" cipos="0_2_11">伟</text>
<use x="751.04850746269" y="382" xlink:href="#shuzi_b_1" time="1" audio="1" notepos="0_2_12" code="1(" xmlns:xlink="http://www.w3.org/1999/xlink"></use>
<text x="737.04850746269" y="420" dy="9.394" fill="#101010" font-size="28" font-family="Microsoft YaHei" cipos="0_2_12">业</text>
<text x="765.04850746269" y="420" dy="9.394" fill="#101010" font-size="28" font-family="Microsoft YaHei">。</text>
<use x="809.64925373134" y="382" xlink:href="#shuzi_b_1" time="1.5" audio="1" notepos="0_2_13" code="1." xmlns:xlink="http://www.w3.org/1999/xlink"></use>
<text x="795.64925373134" y="420" dy="9.394" fill="#101010" font-size="28" font-family="Microsoft YaHei" cipos="0_2_13"></text>
<use x="883.87686567164" y="382" xlink:href="#xiaojiexian" notepos="0_2_14" time="0" audio="" code="|" xmlns:xlink="http://www.w3.org/1999/xlink"></use>
<use x="938.57089552239" y="382" xlink:href="#shuzi_b_1" time="1.5" audio="0" notepos="0_2_15" code="1)." xmlns:xlink="http://www.w3.org/1999/xlink"></use>
<text x="924.57089552239" y="420" dy="9.394" fill="#101010" font-size="28" font-family="Microsoft YaHei" cipos="0_2_15"></text>
<use x="1016.7052238806" y="382" xlink:href="#shuzi_b_0" time="1.5" audio="0" notepos="0_2_16" code="0." xmlns:xlink="http://www.w3.org/1999/xlink"></use>
<text x="1002.7052238806" y="420" dy="9.394" fill="#101010" font-size="28" font-family="Microsoft YaHei" cipos="0_2_16"></text>
<use x="1116" y="382" xlink:href="#jieshufu" notepos="0_2_17" time="0" audio="" code="|j" xmlns:xlink="http://www.w3.org/1999/xlink"></use>
<line x1="77" y1="279" x2="89" y2="279" data-type="jianshixian" stroke-width="2" stroke="#1b1b1b"></line>
<line x1="121.74358974359" y1="279" x2="133.74358974359" y2="279" data-type="jianshixian" stroke-width="2" stroke="#1b1b1b"></line>
<line x1="166.48717948718" y1="279" x2="178.48717948718" y2="279" data-type="jianshixian" stroke-width="2" stroke="#1b1b1b"></line>
<line x1="250.00854700855" y1="279" x2="262.00854700855" y2="279" data-type="jianshixian" stroke-width="2" stroke="#1b1b1b"></line>
<line x1="294.75213675214" y1="279" x2="306.75213675214" y2="279" data-type="jianshixian" stroke-width="2" stroke="#1b1b1b"></line>
<line x1="339.49572649573" y1="279" x2="351.49572649573" y2="279" data-type="jianshixian" stroke-width="2" stroke="#1b1b1b"></line>
<line x1="542.33333333333" y1="279" x2="554.33333333333" y2="279" data-type="jianshixian" stroke-width="2" stroke="#1b1b1b"></line>
<line x1="587.07692307692" y1="279" x2="599.07692307692" y2="279" data-type="jianshixian" stroke-width="2" stroke="#1b1b1b"></line>
<line x1="631.82051282051" y1="279" x2="643.82051282051" y2="279" data-type="jianshixian" stroke-width="2" stroke="#1b1b1b"></line>
<line x1="715.34188034188" y1="279" x2="727.34188034188" y2="279" data-type="jianshixian" stroke-width="2" stroke="#1b1b1b"></line>
<line x1="962.92307692308" y1="279" x2="974.92307692308" y2="279" data-type="jianshixian" stroke-width="2" stroke="#1b1b1b"></line>
<line x1="1007.6666666667" y1="279" x2="1019.6666666667" y2="279" data-type="jianshixian" stroke-width="2" stroke="#1b1b1b"></line>
<line x1="1052.4102564103" y1="279" x2="1064.4102564103" y2="279" data-type="jianshixian" stroke-width="2" stroke="#1b1b1b"></line>
<line x1="77" y1="395" x2="89" y2="395" data-type="jianshixian" stroke-width="2" stroke="#1b1b1b"></line>
<line x1="135.60074626866" y1="395" x2="147.60074626866" y2="395" data-type="jianshixian" stroke-width="2" stroke="#1b1b1b"></line>
<line x1="194.20149253731" y1="395" x2="206.20149253731" y2="395" data-type="jianshixian" stroke-width="2" stroke="#1b1b1b"></line>
<line x1="459.85820895522" y1="395" x2="471.85820895522" y2="395" data-type="jianshixian" stroke-width="2" stroke="#1b1b1b"></line>
<line x1="518.45895522388" y1="395" x2="530.45895522388" y2="395" data-type="jianshixian" stroke-width="2" stroke="#1b1b1b"></line>
<line x1="577.05970149254" y1="395" x2="589.05970149254" y2="395" data-type="jianshixian" stroke-width="2" stroke="#1b1b1b"></line>
<line x1="686.44776119403" y1="395" x2="698.44776119403" y2="395" data-type="jianshixian" stroke-width="2" stroke="#1b1b1b"></line>
<use x="83" y="271" xlink:href="#yingao_di" xmlns:xlink="http://www.w3.org/1999/xlink"></use>
<use x="127.74358974359" y="271" xlink:href="#yingao_di" xmlns:xlink="http://www.w3.org/1999/xlink"></use>
<use x="390.23931623932" y="266" xlink:href="#fudian" xmlns:xlink="http://www.w3.org/1999/xlink"></use>
<use x="488.67521367521" y="266" xlink:href="#fudian" xmlns:xlink="http://www.w3.org/1999/xlink"></use>
<use x="810.82905982906" y="266" xlink:href="#fudian" xmlns:xlink="http://www.w3.org/1999/xlink"></use>
<use x="909.26495726496" y="266" xlink:href="#fudian" xmlns:xlink="http://www.w3.org/1999/xlink"></use>
<use x="968.92307692308" y="271" xlink:href="#yingao_di" xmlns:xlink="http://www.w3.org/1999/xlink"></use>
<use x="1013.6666666667" y="271" xlink:href="#yingao_di" xmlns:xlink="http://www.w3.org/1999/xlink"></use>
<use x="258.80223880597" y="382" xlink:href="#fudian" xmlns:xlink="http://www.w3.org/1999/xlink"></use>
<use x="387.72388059701" y="382" xlink:href="#fudian" xmlns:xlink="http://www.w3.org/1999/xlink"></use>
<use x="692.44776119403" y="387" xlink:href="#yingao_di" xmlns:xlink="http://www.w3.org/1999/xlink"></use>
<use x="809.64925373134" y="382" xlink:href="#fudian" xmlns:xlink="http://www.w3.org/1999/xlink"></use>
<use x="938.57089552239" y="382" xlink:href="#fudian" xmlns:xlink="http://www.w3.org/1999/xlink"></use>
<use x="1016.7052238806" y="382" xlink:href="#fudian" xmlns:xlink="http://www.w3.org/1999/xlink"></use>
<use x="357.49572649573" y="240.05" xlink:href="#lianyinxian_zuo" xmlns:xlink="http://www.w3.org/1999/xlink"></use>
<use x="476.67521367521" y="240.05" xlink:href="#lianyinxian_you" xmlns:xlink="http://www.w3.org/1999/xlink"></use>
<line x1="358.29572649573" y1="240.8" x2="477.67521367521" y2="240.8" stroke-width="1.2" stroke="#1b1b1b" fill="none"></line>
<use x="778.08547008547" y="240.05" xlink:href="#lianyinxian_zuo" xmlns:xlink="http://www.w3.org/1999/xlink"></use>
<use x="897.26495726496" y="240.05" xlink:href="#lianyinxian_you" xmlns:xlink="http://www.w3.org/1999/xlink"></use>
<line x1="778.88547008547" y1="240.8" x2="898.26495726496" y2="240.8" stroke-width="1.2" stroke="#1b1b1b" fill="none"></line>
<use x="212.20149253731" y="356.05" xlink:href="#lianyinxian_zuo" xmlns:xlink="http://www.w3.org/1999/xlink"></use>
<use x="375.72388059701" y="356.05" xlink:href="#lianyinxian_you" xmlns:xlink="http://www.w3.org/1999/xlink"></use>
<line x1="213.00149253731" y1="356.8" x2="376.72388059701" y2="356.8" stroke-width="1.2" stroke="#1b1b1b" fill="none"></line>
<use x="763.04850746269" y="356.05" xlink:href="#lianyinxian_zuo" xmlns:xlink="http://www.w3.org/1999/xlink"></use>
<use x="926.57089552239" y="356.05" xlink:href="#lianyinxian_you" xmlns:xlink="http://www.w3.org/1999/xlink"></use>
<line x1="763.84850746269" y1="356.8" x2="927.57089552239" y2="356.8" stroke-width="1.2" stroke="#1b1b1b" fill="none"></line>
<g id="custom">
</g></svg>
