<svg xmlns="http://www.w3.org/2000/svg" width="1200" height="675"><rect width="100%" height="100%" fill="#fff"/><defs><g id="a" fill="#1b1b1b"><path d="M13.9 7.812H5.081v-1.7h3.455V-5.645L5-4.6v-1.802L10.466-8V6.112H13.9z"/><path stroke-width="33" d="M18-3.141h11v2H18zM18 1.325h11v2H18z"/></g><g id="e"><path fill="#fff" stroke-width="0" d="M-4.95-14.15h9.9v28.4h-9.9z"/><path fill="#1b1b1b" stroke-width="null" d="M-.75-14.5h1.5v29h-1.5z"/></g><g id="f"><path fill="#fff" stroke-width="0" d="M-5.55-8.95h11.1v17.9h-11.1z"/><path d="M.3-6.276q-.533 0-.981.311-.448.312-.799.883-.35.57-.61 1.389c-.26.819-.303 1.155-.39 1.83q.675-.48 1.41-.779A4.1 4.1 0 0 1 .48-2.94q1.195 0 2.155.467.96.468 1.642 1.279.68.81 1.045 1.882.363 1.07.363 2.278c0 1.208-.13 1.566-.389 2.284q-.39 1.078-1.103 1.876c-.713.798-1.05.954-1.72 1.266q-1.006.467-2.24.467-1.414 0-2.518-.571A5.14 5.14 0 0 1-4.14 6.646Q-4.894 5.575-5.29 4.03q-.395-1.545-.395-3.504 0-2.285.383-4.037t1.142-2.94q.759-1.187 1.902-1.798 1.141-.61 2.66-.61.987 0 1.837.311a4.6 4.6 0 0 1 1.519.922q.668.61 1.116 1.538.447.929.63 2.149H2.335Q2.066-6.277.3-6.276M.117-.241q-1.35 0-2.739 1.389.039 1.194.253 2.142.214.947.571 1.61.357.66.864 1.018.506.357 1.13.357.544 0 .98-.246.434-.247.739-.682c.305-.435.36-.627.467-1.012q.163-.578.163-1.24 0-.675-.17-1.279A3.6 3.6 0 0 0 1.89.752a2.5 2.5 0 0 0-.766-.727A1.94 1.94 0 0 0 .118-.241"/></g><g id="g"><path fill="#fff" stroke-width="0" d="M-5.55-8.95h11.1v17.9h-11.1z"/><path d="M4.932-4.304q0 .457-.098.934a4.7 4.7 0 0 1-.294.927q-.195.451-.49.85a3.5 3.5 0 0 1-.686.699q.575.3 1.02.764.442.465.744 1.039.3.575.457 1.228.157.654.157 1.333 0 1.202-.444 2.208c-.444 1.006-.702 1.246-1.215 1.724q-.771.72-1.83 1.117c-1.059.397-1.463.399-2.273.399q-1.228 0-2.247-.392a5.3 5.3 0 0 1-1.77-1.104 5.25 5.25 0 0 1-1.195-1.725q-.445-1.012-.51-2.254h3.2q0 .588.164 1.11.163.524.483.915.32.393.79.621.471.229 1.085.229.588 0 1.072-.21.483-.209.823-.58.339-.374.523-.89a3.4 3.4 0 0 0 .183-1.13q0-.626-.19-1.15a2.4 2.4 0 0 0-.562-.894A2.6 2.6 0 0 0 .915.882 3.5 3.5 0 0 0-.346.673h-1.307v-2.6h.993q1.228 0 1.836-.647.607-.646.607-1.757 0-.98-.51-1.483-.508-.503-1.45-.503-1.946 0-2.22 2.508H-5.56q.144-1.254.601-2.208a5.2 5.2 0 0 1 1.163-1.6 4.7 4.7 0 0 1 1.62-.974 5.8 5.8 0 0 1 1.96-.327q1.176 0 2.124.34a4.75 4.75 0 0 1 1.62.954q.673.615 1.038 1.457.366.844.366 1.863"/></g><g id="h"><path fill="#fff" stroke-width="0" d="M-5.55-8.95h11.1v17.9h-11.1z"/><path d="M-1.99-3.011q.975-.46 2.345-.461 1.08 0 2.076.395.994.395 1.76 1.166.764.771 1.211 1.91.448 1.14.448 2.63 0 1.317-.428 2.457c-.428 1.14-.687 1.418-1.206 1.976s-1.148.995-1.89 1.312q-1.114.474-2.47.474a6.4 6.4 0 0 1-2.083-.336A5 5 0 0 1-3.959 7.49q-.759-.686-1.259-1.713c-.5-1.027-.545-1.49-.632-2.412h3.188q.08.725.304 1.265.224.541.56.896.336.356.757.527.422.172.896.172.633 0 1.147-.264t.883-.731.573-1.087c.204-.619.204-.856.204-1.33q0-.87-.21-1.53a3.2 3.2 0 0 0-.587-1.1 2.5 2.5 0 0 0-.896-.672 2.8 2.8 0 0 0-1.153-.23q-1.463 0-2.649 1.33H-5.27l.764-9.46h9.593v2.899h-6.852z"/></g><g id="i"><path fill="#fff" stroke-width="0" d="M-5.55-8.95h11.1v17.9h-11.1z"/><path fill="#1b1b1b" stroke-width="null" d="M-5.5-1.6h11v3.2h-11z"/></g><g id="j"><path fill="#fff" stroke-width="0" d="M-5.55-8.95h11.1v17.9h-11.1z"/><path d="M1.674 8.969h-3.22v-12.76q-1.428.517-3.954.517V-5.98q3.966 0 4.538-2.99h2.636z"/></g><g id="k"><path fill="#fff" stroke-width="0" d="M-5.55-8.95h11.1v17.9h-11.1z"/><path d="M5.876 8.92H-5.876q0-2.272.944-3.695.518-.758 1.382-1.662a23 23 0 0 1 2.14-1.94A40 40 0 0 0 .5-.013q.777-.717 1.25-1.35.471-.63.678-1.242c.207-.612.206-.847.206-1.317q0-1.116-.618-1.735-.62-.618-1.789-.618-.479 0-.917.193a2.2 2.2 0 0 0-.778.578 3.3 3.3 0 0 0-.565.95q-.226.567-.28 1.324H-5.53q.106-1.29.559-2.347c.453-1.057.702-1.303 1.203-1.795a5.3 5.3 0 0 1 1.775-1.143q1.023-.405 2.26-.406 1.33 0 2.373.386 1.044.385 1.749 1.063.705.679 1.077 1.596t.372 1.994q0 .998-.266 1.835a5.9 5.9 0 0 1-.798 1.596q-.504.69-1.502 1.728Q2.274 2.314.825 3.524q-.426.359-1.09.964A9.5 9.5 0 0 0-1.57 5.984h7.445z"/></g><g id="l"><path fill="#fff" stroke-width="0" d="M-7.55-14.35h11.7v28.4h-11.7z"/><path fill="#1b1b1b" stroke-width="null" d="M-4.35-14.5h1v29h-1zM-1.65-14.5h2.4v29h-2.4z"/></g><path id="b" d="M43.5 42.01v15.98h4.545q3.635 0 6.045-2.114t2.41-5.665q0-3.72-2.41-5.96t-6.193-2.241zm2.05 14.141V43.828h2.326q3.044 0 4.756 1.67t1.712 4.65q0 3.002-1.755 4.502t-4.608 1.501z" transform="translate(-50 -50)"/><path id="c" fill="#1b1b1b" stroke-linecap="null" stroke-linejoin="null" stroke-width="33" d="M51 49h21v2H51z" transform="translate(-50 -50)"/><path id="d" d="M54.966 54.053h-1.772v3.135h-2.551v-3.135h-5.61v-2.021l6.161-9.22h2v8.928h1.773zm-4.323-2.313V47.31l-2.81 4.431z" transform="translate(-50 -50)"/><circle id="m" cx="62.35" cy="49.75" r="2.45" fill="#1b1b1b" transform="translate(-50 -50)"/><circle id="n" cx="49.3" cy="63" r="1.9" fill="#1b1b1b" transform="translate(-50 -50)"/></defs><text x="596.5" y="110" fill="#1b1b1b" dy="35.091" font-family="PingFang SC, Microsoft YaHei, Open Sans, sans-serif" font-size="42" style="font-weight:700" text-anchor="middle">咏九七</text><use xmlns:xlink="http://www.w3.org/1999/xlink" xlink:href="#a" x="80" y="182"/><use xmlns:xlink="http://www.w3.org/1999/xlink" xlink:href="#b" x="120" y="182" data-diaohao="true"/><use xmlns:xlink="http://www.w3.org/1999/xlink" xlink:href="#c" x="130" y="182"/><use xmlns:xlink="http://www.w3.org/1999/xlink" xlink:href="#d" x="140" y="170"/><use xmlns:xlink="http://www.w3.org/1999/xlink" xlink:href="#d" x="140" y="194" fill="#414141"/><text x="80" y="223" fill="#1b1b1b" dy="5.368" font-family="PingFang SC, Microsoft YaHei, Open Sans, sans-serif" font-size="16">轻快、进行曲</text><text x="1113" y="232" fill="#1b1b1b" dy="-2.632" font-family="PingFang SC, Microsoft YaHei, Open Sans, sans-serif" font-size="16" text-anchor="end">朱健仁 曲</text><use xmlns:xlink="http://www.w3.org/1999/xlink" xlink:href="#e" x="83" y="272"/><use xmlns:xlink="http://www.w3.org/1999/xlink" xlink:href="#f" x="127.963" y="272"/><text x="115.963" y="310" fill="#101010" dy="8.052" font-family="PingFang SC, Microsoft YaHei, Open Sans, sans-serif" font-size="24">上</text><use xmlns:xlink="http://www.w3.org/1999/xlink" xlink:href="#g" x="176.138" y="272"/><text x="164.138" y="310" fill="#101010" dy="8.052" font-family="PingFang SC, Microsoft YaHei, Open Sans, sans-serif" font-size="24">主</text><use xmlns:xlink="http://www.w3.org/1999/xlink" xlink:href="#f" x="224.313" y="272"/><text x="212.313" y="310" fill="#101010" dy="8.052" font-family="PingFang SC, Microsoft YaHei, Open Sans, sans-serif" font-size="24">行</text><use xmlns:xlink="http://www.w3.org/1999/xlink" xlink:href="#f" x="256.429" y="272"/><text x="244.429" y="310" fill="#101010" dy="8.052" font-family="PingFang SC, Microsoft YaHei, Open Sans, sans-serif" font-size="24">了</text><use xmlns:xlink="http://www.w3.org/1999/xlink" xlink:href="#h" x="304.604" y="272"/><text x="292.604" y="310" fill="#101010" dy="8.052" font-family="PingFang SC, Microsoft YaHei, Open Sans, sans-serif" font-size="24">奇</text><use xmlns:xlink="http://www.w3.org/1999/xlink" xlink:href="#e" x="349.567" y="272"/><use xmlns:xlink="http://www.w3.org/1999/xlink" xlink:href="#g" x="394.531" y="272"/><text x="382.531" y="310" fill="#101010" dy="8.052" font-family="PingFang SC, Microsoft YaHei, Open Sans, sans-serif" font-size="24">事</text><text x="406.531" y="310" fill="#101010" dy="8.052" font-family="PingFang SC, Microsoft YaHei, Open Sans, sans-serif" font-size="24">，</text><use xmlns:xlink="http://www.w3.org/1999/xlink" xlink:href="#i" x="442.706" y="272"/><use xmlns:xlink="http://www.w3.org/1999/xlink" xlink:href="#i" x="490.88" y="272"/><use xmlns:xlink="http://www.w3.org/1999/xlink" xlink:href="#j" x="539.055" y="272"/><text x="527.055" y="310" fill="#101010" dy="8.052" font-family="PingFang SC, Microsoft YaHei, Open Sans, sans-serif" font-size="24">我</text><use xmlns:xlink="http://www.w3.org/1999/xlink" xlink:href="#k" x="571.172" y="272"/><text x="559.172" y="310" fill="#101010" dy="8.052" font-family="PingFang SC, Microsoft YaHei, Open Sans, sans-serif" font-size="24">们</text><use xmlns:xlink="http://www.w3.org/1999/xlink" xlink:href="#e" x="616.135" y="272"/><use xmlns:xlink="http://www.w3.org/1999/xlink" xlink:href="#g" x="661.098" y="272"/><text x="649.098" y="310" fill="#101010" dy="8.052" font-family="PingFang SC, Microsoft YaHei, Open Sans, sans-serif" font-size="24">要</text><use xmlns:xlink="http://www.w3.org/1999/xlink" xlink:href="#g" x="725.331" y="272"/><text x="713.331" y="310" fill="#101010" dy="8.052" font-family="PingFang SC, Microsoft YaHei, Open Sans, sans-serif" font-size="24">高</text><use xmlns:xlink="http://www.w3.org/1999/xlink" xlink:href="#g" x="773.506" y="272"/><text x="761.506" y="310" fill="#101010" dy="8.052" font-family="PingFang SC, Microsoft YaHei, Open Sans, sans-serif" font-size="24">唱</text><use xmlns:xlink="http://www.w3.org/1999/xlink" xlink:href="#h" x="821.681" y="272"/><text x="809.681" y="310" fill="#101010" dy="8.052" font-family="PingFang SC, Microsoft YaHei, Open Sans, sans-serif" font-size="24">新</text><use xmlns:xlink="http://www.w3.org/1999/xlink" xlink:href="#e" x="866.644" y="272"/><use xmlns:xlink="http://www.w3.org/1999/xlink" xlink:href="#g" x="911.607" y="272"/><text x="899.607" y="310" fill="#101010" dy="8.052" font-family="PingFang SC, Microsoft YaHei, Open Sans, sans-serif" font-size="24">歌</text><text x="923.607" y="310" fill="#101010" dy="8.052" font-family="PingFang SC, Microsoft YaHei, Open Sans, sans-serif" font-size="24">。</text><use xmlns:xlink="http://www.w3.org/1999/xlink" xlink:href="#i" x="959.782" y="272"/><use xmlns:xlink="http://www.w3.org/1999/xlink" xlink:href="#i" x="1007.957" y="272"/><use xmlns:xlink="http://www.w3.org/1999/xlink" xlink:href="#i" x="1056.132" y="272"/><use xmlns:xlink="http://www.w3.org/1999/xlink" xlink:href="#e" x="1116" y="272"/><use xmlns:xlink="http://www.w3.org/1999/xlink" xlink:href="#e" x="83" y="384"/><use xmlns:xlink="http://www.w3.org/1999/xlink" xlink:href="#g" x="126.625" y="384"/><text x="114.625" y="422" fill="#101010" dy="8.052" font-family="PingFang SC, Microsoft YaHei, Open Sans, sans-serif" font-size="24">上</text><use xmlns:xlink="http://www.w3.org/1999/xlink" xlink:href="#f" x="173.366" y="384"/><text x="161.366" y="422" fill="#101010" dy="8.052" font-family="PingFang SC, Microsoft YaHei, Open Sans, sans-serif" font-size="24">主</text><use xmlns:xlink="http://www.w3.org/1999/xlink" xlink:href="#g" x="220.107" y="384"/><text x="208.107" y="422" fill="#101010" dy="8.052" font-family="PingFang SC, Microsoft YaHei, Open Sans, sans-serif" font-size="24">行</text><use xmlns:xlink="http://www.w3.org/1999/xlink" xlink:href="#g" x="251.268" y="384"/><text x="239.268" y="422" fill="#101010" dy="8.052" font-family="PingFang SC, Microsoft YaHei, Open Sans, sans-serif" font-size="24">了</text><use xmlns:xlink="http://www.w3.org/1999/xlink" xlink:href="#g" x="298.009" y="384"/><text x="286.009" y="422" fill="#101010" dy="8.052" font-family="PingFang SC, Microsoft YaHei, Open Sans, sans-serif" font-size="24">奇</text><use xmlns:xlink="http://www.w3.org/1999/xlink" xlink:href="#e" x="341.634" y="384"/><use xmlns:xlink="http://www.w3.org/1999/xlink" xlink:href="#k" x="385.259" y="384"/><text x="373.259" y="422" fill="#101010" dy="8.052" font-family="PingFang SC, Microsoft YaHei, Open Sans, sans-serif" font-size="24">事</text><text x="397.259" y="422" fill="#101010" dy="8.052" font-family="PingFang SC, Microsoft YaHei, Open Sans, sans-serif" font-size="24">，</text><use xmlns:xlink="http://www.w3.org/1999/xlink" xlink:href="#i" x="432" y="384"/><use xmlns:xlink="http://www.w3.org/1999/xlink" xlink:href="#i" x="478.741" y="384"/><use xmlns:xlink="http://www.w3.org/1999/xlink" xlink:href="#j" x="525.482" y="384"/><text x="513.482" y="422" fill="#101010" dy="8.052" font-family="PingFang SC, Microsoft YaHei, Open Sans, sans-serif" font-size="24">我</text><use xmlns:xlink="http://www.w3.org/1999/xlink" xlink:href="#k" x="556.643" y="384"/><text x="544.643" y="422" fill="#101010" dy="8.052" font-family="PingFang SC, Microsoft YaHei, Open Sans, sans-serif" font-size="24">们</text><use xmlns:xlink="http://www.w3.org/1999/xlink" xlink:href="#e" x="600.268" y="384"/><use xmlns:xlink="http://www.w3.org/1999/xlink" xlink:href="#k" x="643.893" y="384"/><text x="631.893" y="422" fill="#101010" dy="8.052" font-family="PingFang SC, Microsoft YaHei, Open Sans, sans-serif" font-size="24">要</text><use xmlns:xlink="http://www.w3.org/1999/xlink" xlink:href="#k" x="706.214" y="384"/><text x="694.214" y="422" fill="#101010" dy="8.052" font-family="PingFang SC, Microsoft YaHei, Open Sans, sans-serif" font-size="24">高</text><use xmlns:xlink="http://www.w3.org/1999/xlink" xlink:href="#k" x="752.955" y="384"/><text x="740.955" y="422" fill="#101010" dy="8.052" font-family="PingFang SC, Microsoft YaHei, Open Sans, sans-serif" font-size="24">唱</text><use xmlns:xlink="http://www.w3.org/1999/xlink" xlink:href="#k" x="799.696" y="384"/><text x="787.696" y="422" fill="#101010" dy="8.052" font-family="PingFang SC, Microsoft YaHei, Open Sans, sans-serif" font-size="24">新</text><use xmlns:xlink="http://www.w3.org/1999/xlink" xlink:href="#j" x="830.857" y="384"/><use xmlns:xlink="http://www.w3.org/1999/xlink" xlink:href="#e" x="874.482" y="384"/><use xmlns:xlink="http://www.w3.org/1999/xlink" xlink:href="#f" x="918.107" y="384"/><text x="906.107" y="422" fill="#101010" dy="8.052" font-family="PingFang SC, Microsoft YaHei, Open Sans, sans-serif" font-size="24">歌</text><text x="930.107" y="422" fill="#101010" dy="8.052" font-family="PingFang SC, Microsoft YaHei, Open Sans, sans-serif" font-size="24">。</text><use xmlns:xlink="http://www.w3.org/1999/xlink" xlink:href="#i" x="964.848" y="384"/><use xmlns:xlink="http://www.w3.org/1999/xlink" xlink:href="#i" x="1011.589" y="384"/><use xmlns:xlink="http://www.w3.org/1999/xlink" xlink:href="#i" x="1058.33" y="384"/><use xmlns:xlink="http://www.w3.org/1999/xlink" xlink:href="#l" x="1116" y="384"/><path stroke="#1b1b1b" stroke-width="2" d="M218.313 285h44.116M533.055 285h44.117M719.331 285h12M214.107 397h43.161M519.482 397h43.161M700.214 397h12M793.696 397h43.161" data-type="jianshixian"/><use xmlns:xlink="http://www.w3.org/1999/xlink" xlink:href="#m" x="661.098" y="272"/><use xmlns:xlink="http://www.w3.org/1999/xlink" xlink:href="#n" x="173.366" y="385"/><use xmlns:xlink="http://www.w3.org/1999/xlink" xlink:href="#m" x="643.893" y="384"/><use xmlns:xlink="http://www.w3.org/1999/xlink" xlink:href="#n" x="918.107" y="385"/><path stroke="#1b1b1b" stroke-width=".5" d="M800.696 368c8.349-10 20.813-10 29.161 0m0 0c-8.348-9-20.812-9-29.16 0"/></svg>