<svg xmlns="http://www.w3.org/2000/svg" width="1200" height="675"><rect width="100%" height="100%" fill="#fff"/><defs><g id="a" fill="#1b1b1b"><path d="M13.9 7.812H5.081v-1.7h3.455V-5.645L5-4.6v-1.802L10.466-8V6.112H13.9z"/><path stroke-width="33" d="M18-3.141h11v2H18zM18 1.325h11v2H18z"/></g><g id="e"><path fill="#fff" stroke-width="0" d="M-5.55-8.95h11.1v17.9h-11.1z"/><path d="M.3-6.276q-.533 0-.981.311-.448.312-.799.883-.35.57-.61 1.389c-.26.819-.303 1.155-.39 1.83q.675-.48 1.41-.779A4.1 4.1 0 0 1 .48-2.94q1.195 0 2.155.467.96.468 1.642 1.279.68.81 1.045 1.882.363 1.07.363 2.278c0 1.208-.13 1.566-.389 2.284q-.39 1.078-1.103 1.876c-.713.798-1.05.954-1.72 1.266q-1.006.467-2.24.467-1.414 0-2.518-.571A5.14 5.14 0 0 1-4.14 6.646Q-4.894 5.575-5.29 4.03q-.395-1.545-.395-3.504 0-2.285.383-4.037t1.142-2.94q.759-1.187 1.902-1.798 1.141-.61 2.66-.61.987 0 1.837.311a4.6 4.6 0 0 1 1.519.922q.668.61 1.116 1.538.447.929.63 2.149H2.335Q2.066-6.277.3-6.276M.117-.241q-1.35 0-2.739 1.389.039 1.194.253 2.142.214.947.571 1.61.357.66.864 1.018.506.357 1.13.357.544 0 .98-.246.434-.247.739-.682c.305-.435.36-.627.467-1.012q.163-.578.163-1.24 0-.675-.17-1.279A3.6 3.6 0 0 0 1.89.752a2.5 2.5 0 0 0-.766-.727A1.94 1.94 0 0 0 .118-.241"/></g><g id="f"><path fill="#fff" stroke-width="0" d="M-5.55-8.95h11.1v17.9h-11.1z"/><path d="M5.88-6.864-.292 8.953h-3.527L2.313-5.968h-8.194v-2.985H5.881z"/></g><g id="g"><path fill="#fff" stroke-width="0" d="M-5.55-8.95h11.1v17.9h-11.1z"/><path d="M1.674 8.969h-3.22v-12.76q-1.428.517-3.954.517V-5.98q3.966 0 4.538-2.99h2.636z"/></g><g id="h"><path fill="#fff" stroke-width="0" d="M-4.95-14.15h9.9v28.4h-9.9z"/><path fill="#1b1b1b" stroke-width="null" d="M-.75-14.5h1.5v29h-1.5z"/></g><g id="i"><path fill="#fff" stroke-width="0" d="M-5.55-8.95h11.1v17.9h-11.1z"/><path fill="#1b1b1b" stroke-width="null" d="M-5.5-1.6h11v3.2h-11z"/></g><path id="b" d="M54 43.936h-6.005v5.251h5.573v1.792h-5.573v6.898H46V42.123h8z" transform="translate(-50 -50)"/><path id="c" fill="#1b1b1b" stroke-linecap="null" stroke-linejoin="null" stroke-width="33" d="M51 49h21v2H51z" transform="translate(-50 -50)"/><path id="d" d="M54.966 54.053h-1.772v3.135h-2.551v-3.135h-5.61v-2.021l6.161-9.22h2v8.928h1.773zm-4.323-2.313V47.31l-2.81 4.431z" transform="translate(-50 -50)"/><circle id="j" cx="49.3" cy="63" r="1.9" fill="#1b1b1b" transform="translate(-50 -50)"/></defs><text x="596.5" y="110" fill="#1b1b1b" dy="35.091" font-family="PingFang SC, Microsoft YaHei, Open Sans, sans-serif" font-size="42" style="font-weight:700" text-anchor="middle">咏九四</text><use xmlns:xlink="http://www.w3.org/1999/xlink" xlink:href="#a" x="80" y="182"/><use xmlns:xlink="http://www.w3.org/1999/xlink" xlink:href="#b" x="120" y="182" data-diaohao="true"/><use xmlns:xlink="http://www.w3.org/1999/xlink" xlink:href="#c" x="130" y="182"/><use xmlns:xlink="http://www.w3.org/1999/xlink" xlink:href="#d" x="140" y="170"/><use xmlns:xlink="http://www.w3.org/1999/xlink" xlink:href="#d" x="140" y="194" fill="#414141"/><text x="80" y="223" fill="#1b1b1b" dy="5.368" font-family="PingFang SC, Microsoft YaHei, Open Sans, sans-serif" font-size="16">庄严</text><text x="1113" y="232" fill="#1b1b1b" dy="-2.632" font-family="PingFang SC, Microsoft YaHei, Open Sans, sans-serif" font-size="16" text-anchor="end">朱健仁 曲</text><use xmlns:xlink="http://www.w3.org/1999/xlink" xlink:href="#e" x="83" y="272"/><text x="71" y="310" fill="#101010" dy="8.052" font-family="PingFang SC, Microsoft YaHei, Open Sans, sans-serif" font-size="24">你</text><use xmlns:xlink="http://www.w3.org/1999/xlink" xlink:href="#e" x="127.49" y="272"/><text x="115.49" y="310" fill="#101010" dy="8.052" font-family="PingFang SC, Microsoft YaHei, Open Sans, sans-serif" font-size="24">们</text><use xmlns:xlink="http://www.w3.org/1999/xlink" xlink:href="#f" x="171.98" y="272"/><text x="159.98" y="310" fill="#101010" dy="8.052" font-family="PingFang SC, Microsoft YaHei, Open Sans, sans-serif" font-size="24">要</text><use xmlns:xlink="http://www.w3.org/1999/xlink" xlink:href="#g" x="201.64" y="272"/><text x="189.64" y="310" fill="#101010" dy="8.052" font-family="PingFang SC, Microsoft YaHei, Open Sans, sans-serif" font-size="24">听</text><use xmlns:xlink="http://www.w3.org/1999/xlink" xlink:href="#f" x="246.13" y="272"/><use xmlns:xlink="http://www.w3.org/1999/xlink" xlink:href="#e" x="290.62" y="272"/><text x="278.62" y="310" fill="#101010" dy="8.052" font-family="PingFang SC, Microsoft YaHei, Open Sans, sans-serif" font-size="24">从</text><use xmlns:xlink="http://www.w3.org/1999/xlink" xlink:href="#h" x="332.144" y="272"/><use xmlns:xlink="http://www.w3.org/1999/xlink" xlink:href="#g" x="373.669" y="272"/><text x="361.669" y="310" fill="#101010" dy="8.052" font-family="PingFang SC, Microsoft YaHei, Open Sans, sans-serif" font-size="24">他</text><use xmlns:xlink="http://www.w3.org/1999/xlink" xlink:href="#e" x="403.329" y="272"/><text x="391.329" y="310" fill="#101010" dy="8.052" font-family="PingFang SC, Microsoft YaHei, Open Sans, sans-serif" font-size="24">的</text><use xmlns:xlink="http://www.w3.org/1999/xlink" xlink:href="#g" x="447.819" y="272"/><text x="435.819" y="310" fill="#101010" dy="8.052" font-family="PingFang SC, Microsoft YaHei, Open Sans, sans-serif" font-size="24">声</text><use xmlns:xlink="http://www.w3.org/1999/xlink" xlink:href="#g" x="492.309" y="272"/><text x="480.309" y="310" fill="#101010" dy="8.052" font-family="PingFang SC, Microsoft YaHei, Open Sans, sans-serif" font-size="24">音</text><text x="504.309" y="310" fill="#101010" dy="8.052" font-family="PingFang SC, Microsoft YaHei, Open Sans, sans-serif" font-size="24">，</text><use xmlns:xlink="http://www.w3.org/1999/xlink" xlink:href="#i" x="536.799" y="272"/><use xmlns:xlink="http://www.w3.org/1999/xlink" xlink:href="#h" x="578.323" y="272"/><use xmlns:xlink="http://www.w3.org/1999/xlink" xlink:href="#f" x="619.847" y="272"/><text x="607.847" y="310" fill="#101010" dy="8.052" font-family="PingFang SC, Microsoft YaHei, Open Sans, sans-serif" font-size="24">不</text><use xmlns:xlink="http://www.w3.org/1999/xlink" xlink:href="#f" x="649.507" y="272"/><text x="637.507" y="310" fill="#101010" dy="8.052" font-family="PingFang SC, Microsoft YaHei, Open Sans, sans-serif" font-size="24">要</text><use xmlns:xlink="http://www.w3.org/1999/xlink" xlink:href="#f" x="693.997" y="272"/><text x="681.997" y="310" fill="#101010" dy="8.052" font-family="PingFang SC, Microsoft YaHei, Open Sans, sans-serif" font-size="24">再</text><use xmlns:xlink="http://www.w3.org/1999/xlink" xlink:href="#f" x="723.657" y="272"/><text x="711.657" y="310" fill="#101010" dy="8.052" font-family="PingFang SC, Microsoft YaHei, Open Sans, sans-serif" font-size="24">那</text><use xmlns:xlink="http://www.w3.org/1999/xlink" xlink:href="#f" x="768.147" y="272"/><text x="756.147" y="310" fill="#101010" dy="8.052" font-family="PingFang SC, Microsoft YaHei, Open Sans, sans-serif" font-size="24">样</text><use xmlns:xlink="http://www.w3.org/1999/xlink" xlink:href="#g" x="812.637" y="272"/><text x="800.637" y="310" fill="#101010" dy="8.052" font-family="PingFang SC, Microsoft YaHei, Open Sans, sans-serif" font-size="24">心</text><use xmlns:xlink="http://www.w3.org/1999/xlink" xlink:href="#f" x="842.297" y="272"/><use xmlns:xlink="http://www.w3.org/1999/xlink" xlink:href="#h" x="883.822" y="272"/><use xmlns:xlink="http://www.w3.org/1999/xlink" xlink:href="#e" x="925.346" y="272"/><text x="913.346" y="310" fill="#101010" dy="8.052" font-family="PingFang SC, Microsoft YaHei, Open Sans, sans-serif" font-size="24">硬</text><text x="937.346" y="310" fill="#101010" dy="8.052" font-family="PingFang SC, Microsoft YaHei, Open Sans, sans-serif" font-size="24">！</text><use xmlns:xlink="http://www.w3.org/1999/xlink" xlink:href="#i" x="969.836" y="272"/><use xmlns:xlink="http://www.w3.org/1999/xlink" xlink:href="#i" x="1014.326" y="272"/><use xmlns:xlink="http://www.w3.org/1999/xlink" xlink:href="#i" x="1058.816" y="272"/><use xmlns:xlink="http://www.w3.org/1999/xlink" xlink:href="#h" x="1116" y="272"/><use xmlns:xlink="http://www.w3.org/1999/xlink" xlink:href="#e" x="83" y="384"/><text x="71" y="422" fill="#101010" dy="8.052" font-family="PingFang SC, Microsoft YaHei, Open Sans, sans-serif" font-size="24">你</text><use xmlns:xlink="http://www.w3.org/1999/xlink" xlink:href="#e" x="127.49" y="384"/><text x="115.49" y="422" fill="#101010" dy="8.052" font-family="PingFang SC, Microsoft YaHei, Open Sans, sans-serif" font-size="24">们</text><use xmlns:xlink="http://www.w3.org/1999/xlink" xlink:href="#f" x="171.98" y="384"/><text x="159.98" y="422" fill="#101010" dy="8.052" font-family="PingFang SC, Microsoft YaHei, Open Sans, sans-serif" font-size="24">要</text><use xmlns:xlink="http://www.w3.org/1999/xlink" xlink:href="#g" x="201.64" y="384"/><text x="189.64" y="422" fill="#101010" dy="8.052" font-family="PingFang SC, Microsoft YaHei, Open Sans, sans-serif" font-size="24">听</text><use xmlns:xlink="http://www.w3.org/1999/xlink" xlink:href="#f" x="246.13" y="384"/><use xmlns:xlink="http://www.w3.org/1999/xlink" xlink:href="#e" x="290.62" y="384"/><text x="278.62" y="422" fill="#101010" dy="8.052" font-family="PingFang SC, Microsoft YaHei, Open Sans, sans-serif" font-size="24">从</text><use xmlns:xlink="http://www.w3.org/1999/xlink" xlink:href="#h" x="332.144" y="384"/><use xmlns:xlink="http://www.w3.org/1999/xlink" xlink:href="#g" x="373.669" y="384"/><text x="361.669" y="422" fill="#101010" dy="8.052" font-family="PingFang SC, Microsoft YaHei, Open Sans, sans-serif" font-size="24">他</text><use xmlns:xlink="http://www.w3.org/1999/xlink" xlink:href="#e" x="403.329" y="384"/><text x="391.329" y="422" fill="#101010" dy="8.052" font-family="PingFang SC, Microsoft YaHei, Open Sans, sans-serif" font-size="24">的</text><use xmlns:xlink="http://www.w3.org/1999/xlink" xlink:href="#g" x="447.819" y="384"/><text x="435.819" y="422" fill="#101010" dy="8.052" font-family="PingFang SC, Microsoft YaHei, Open Sans, sans-serif" font-size="24">声</text><use xmlns:xlink="http://www.w3.org/1999/xlink" xlink:href="#g" x="492.309" y="384"/><text x="480.309" y="422" fill="#101010" dy="8.052" font-family="PingFang SC, Microsoft YaHei, Open Sans, sans-serif" font-size="24">音</text><text x="504.309" y="422" fill="#101010" dy="8.052" font-family="PingFang SC, Microsoft YaHei, Open Sans, sans-serif" font-size="24">，</text><use xmlns:xlink="http://www.w3.org/1999/xlink" xlink:href="#i" x="536.799" y="384"/><use xmlns:xlink="http://www.w3.org/1999/xlink" xlink:href="#h" x="578.323" y="384"/><use xmlns:xlink="http://www.w3.org/1999/xlink" xlink:href="#f" x="619.847" y="384"/><text x="607.847" y="422" fill="#101010" dy="8.052" font-family="PingFang SC, Microsoft YaHei, Open Sans, sans-serif" font-size="24">不</text><use xmlns:xlink="http://www.w3.org/1999/xlink" xlink:href="#f" x="649.507" y="384"/><text x="637.507" y="422" fill="#101010" dy="8.052" font-family="PingFang SC, Microsoft YaHei, Open Sans, sans-serif" font-size="24">要</text><use xmlns:xlink="http://www.w3.org/1999/xlink" xlink:href="#f" x="693.997" y="384"/><text x="681.997" y="422" fill="#101010" dy="8.052" font-family="PingFang SC, Microsoft YaHei, Open Sans, sans-serif" font-size="24">再</text><use xmlns:xlink="http://www.w3.org/1999/xlink" xlink:href="#f" x="723.657" y="384"/><text x="711.657" y="422" fill="#101010" dy="8.052" font-family="PingFang SC, Microsoft YaHei, Open Sans, sans-serif" font-size="24">那</text><use xmlns:xlink="http://www.w3.org/1999/xlink" xlink:href="#f" x="768.147" y="384"/><text x="756.147" y="422" fill="#101010" dy="8.052" font-family="PingFang SC, Microsoft YaHei, Open Sans, sans-serif" font-size="24">样</text><use xmlns:xlink="http://www.w3.org/1999/xlink" xlink:href="#g" x="812.637" y="384"/><text x="800.637" y="422" fill="#101010" dy="8.052" font-family="PingFang SC, Microsoft YaHei, Open Sans, sans-serif" font-size="24">心</text><use xmlns:xlink="http://www.w3.org/1999/xlink" xlink:href="#f" x="842.297" y="384"/><use xmlns:xlink="http://www.w3.org/1999/xlink" xlink:href="#h" x="883.822" y="384"/><use xmlns:xlink="http://www.w3.org/1999/xlink" xlink:href="#e" x="925.346" y="384"/><text x="913.346" y="422" fill="#101010" dy="8.052" font-family="PingFang SC, Microsoft YaHei, Open Sans, sans-serif" font-size="24">硬</text><text x="937.346" y="422" fill="#101010" dy="8.052" font-family="PingFang SC, Microsoft YaHei, Open Sans, sans-serif" font-size="24">！</text><use xmlns:xlink="http://www.w3.org/1999/xlink" xlink:href="#i" x="969.836" y="384"/><use xmlns:xlink="http://www.w3.org/1999/xlink" xlink:href="#i" x="1014.326" y="384"/><use xmlns:xlink="http://www.w3.org/1999/xlink" xlink:href="#i" x="1058.816" y="384"/><use xmlns:xlink="http://www.w3.org/1999/xlink" xlink:href="#h" x="1116" y="384"/><path stroke="#1b1b1b" stroke-width="2" d="M77 285h12M165.98 285h41.66M240.13 285h12M367.669 285h41.66M613.847 285h41.66M687.997 285h41.66M806.637 285h41.66M77 397h12M165.98 397h41.66M240.13 397h12M367.669 397h41.66M613.847 397h41.66M687.997 397h41.66M806.637 397h41.66" data-type="jianshixian"/><use xmlns:xlink="http://www.w3.org/1999/xlink" xlink:href="#j" x="83" y="277"/><use xmlns:xlink="http://www.w3.org/1999/xlink" xlink:href="#j" x="127.49" y="273"/><use xmlns:xlink="http://www.w3.org/1999/xlink" xlink:href="#j" x="171.98" y="277"/><use xmlns:xlink="http://www.w3.org/1999/xlink" xlink:href="#j" x="246.13" y="277"/><use xmlns:xlink="http://www.w3.org/1999/xlink" xlink:href="#j" x="290.62" y="273"/><use xmlns:xlink="http://www.w3.org/1999/xlink" xlink:href="#j" x="403.329" y="277"/><use xmlns:xlink="http://www.w3.org/1999/xlink" xlink:href="#j" x="619.847" y="277"/><use xmlns:xlink="http://www.w3.org/1999/xlink" xlink:href="#j" x="649.507" y="277"/><use xmlns:xlink="http://www.w3.org/1999/xlink" xlink:href="#j" x="693.997" y="277"/><use xmlns:xlink="http://www.w3.org/1999/xlink" xlink:href="#j" x="723.657" y="277"/><use xmlns:xlink="http://www.w3.org/1999/xlink" xlink:href="#j" x="768.147" y="273"/><use xmlns:xlink="http://www.w3.org/1999/xlink" xlink:href="#j" x="842.297" y="277"/><use xmlns:xlink="http://www.w3.org/1999/xlink" xlink:href="#j" x="925.346" y="273"/><use xmlns:xlink="http://www.w3.org/1999/xlink" xlink:href="#j" x="83" y="389"/><use xmlns:xlink="http://www.w3.org/1999/xlink" xlink:href="#j" x="127.49" y="385"/><use xmlns:xlink="http://www.w3.org/1999/xlink" xlink:href="#j" x="171.98" y="389"/><use xmlns:xlink="http://www.w3.org/1999/xlink" xlink:href="#j" x="246.13" y="389"/><use xmlns:xlink="http://www.w3.org/1999/xlink" xlink:href="#j" x="290.62" y="385"/><use xmlns:xlink="http://www.w3.org/1999/xlink" xlink:href="#j" x="403.329" y="389"/><use xmlns:xlink="http://www.w3.org/1999/xlink" xlink:href="#j" x="619.847" y="389"/><use xmlns:xlink="http://www.w3.org/1999/xlink" xlink:href="#j" x="649.507" y="389"/><use xmlns:xlink="http://www.w3.org/1999/xlink" xlink:href="#j" x="693.997" y="389"/><use xmlns:xlink="http://www.w3.org/1999/xlink" xlink:href="#j" x="723.657" y="389"/><use xmlns:xlink="http://www.w3.org/1999/xlink" xlink:href="#j" x="768.147" y="385"/><use xmlns:xlink="http://www.w3.org/1999/xlink" xlink:href="#j" x="842.297" y="389"/><use xmlns:xlink="http://www.w3.org/1999/xlink" xlink:href="#j" x="925.346" y="385"/><path stroke="#1b1b1b" stroke-width=".5" d="M202.64 256c12.347-10 30.143-10 42.49 0m0 0c-12.347-9-30.143-9-42.49 0M813.637 256c7.898-10 19.762-10 27.66 0m0 0c-7.898-9-19.762-9-27.66 0M202.64 368c12.347-10 30.143-10 42.49 0m0 0c-12.347-9-30.143-9-42.49 0M813.637 368c7.898-10 19.762-10 27.66 0m0 0c-7.898-9-19.762-9-27.66 0"/></svg>