<svg xmlns="http://www.w3.org/2000/svg" width="1200" height="675"><rect width="100%" height="100%" fill="#fff"/><defs><g id="a" fill="#1b1b1b"><path d="M13.9 7.812H5.081v-1.7h3.455V-5.645L5-4.6v-1.802L10.466-8V6.112H13.9z"/><path stroke-width="33" d="M18-3.141h11v2H18zM18 1.325h11v2H18z"/></g><g id="e"><path fill="#fff" stroke-width="0" d="M-5.55-8.95h11.1v17.9h-11.1z"/><path d="M-1.99-3.011q.975-.46 2.345-.461 1.08 0 2.076.395.994.395 1.76 1.166.764.771 1.211 1.91.448 1.14.448 2.63 0 1.317-.428 2.457c-.428 1.14-.687 1.418-1.206 1.976s-1.148.995-1.89 1.312q-1.114.474-2.47.474a6.4 6.4 0 0 1-2.083-.336A5 5 0 0 1-3.959 7.49q-.759-.686-1.259-1.713c-.5-1.027-.545-1.49-.632-2.412h3.188q.08.725.304 1.265.224.541.56.896.336.356.757.527.422.172.896.172.633 0 1.147-.264t.883-.731.573-1.087c.204-.619.204-.856.204-1.33q0-.87-.21-1.53a3.2 3.2 0 0 0-.587-1.1 2.5 2.5 0 0 0-.896-.672 2.8 2.8 0 0 0-1.153-.23q-1.463 0-2.649 1.33H-5.27l.764-9.46h9.593v2.899h-6.852z"/></g><g id="f"><path fill="#fff" stroke-width="0" d="M-4.95-14.15h9.9v28.4h-9.9z"/><path fill="#1b1b1b" stroke-width="null" d="M-.75-14.5h1.5v29h-1.5z"/></g><g id="g"><path fill="#fff" stroke-width="0" d="M-5.55-8.95h11.1v17.9h-11.1z"/><path d="M1.674 8.969h-3.22v-12.76q-1.428.517-3.954.517V-5.98q3.966 0 4.538-2.99h2.636z"/></g><g id="h"><path fill="#fff" stroke-width="0" d="M-5.55-8.95h11.1v17.9h-11.1z"/><path d="M5.876 8.92H-5.876q0-2.272.944-3.695.518-.758 1.382-1.662a23 23 0 0 1 2.14-1.94A40 40 0 0 0 .5-.013q.777-.717 1.25-1.35.471-.63.678-1.242c.207-.612.206-.847.206-1.317q0-1.116-.618-1.735-.62-.618-1.789-.618-.479 0-.917.193a2.2 2.2 0 0 0-.778.578 3.3 3.3 0 0 0-.565.95q-.226.567-.28 1.324H-5.53q.106-1.29.559-2.347c.453-1.057.702-1.303 1.203-1.795a5.3 5.3 0 0 1 1.775-1.143q1.023-.405 2.26-.406 1.33 0 2.373.386 1.044.385 1.749 1.063.705.679 1.077 1.596t.372 1.994q0 .998-.266 1.835a5.9 5.9 0 0 1-.798 1.596q-.504.69-1.502 1.728Q2.274 2.314.825 3.524q-.426.359-1.09.964A9.5 9.5 0 0 0-1.57 5.984h7.445z"/></g><g id="i"><path fill="#fff" stroke-width="0" d="M-5.55-8.95h11.1v17.9h-11.1z"/><path d="M4.932-4.304q0 .457-.098.934a4.7 4.7 0 0 1-.294.927q-.195.451-.49.85a3.5 3.5 0 0 1-.686.699q.575.3 1.02.764.442.465.744 1.039.3.575.457 1.228.157.654.157 1.333 0 1.202-.444 2.208c-.444 1.006-.702 1.246-1.215 1.724q-.771.72-1.83 1.117c-1.059.397-1.463.399-2.273.399q-1.228 0-2.247-.392a5.3 5.3 0 0 1-1.77-1.104 5.25 5.25 0 0 1-1.195-1.725q-.445-1.012-.51-2.254h3.2q0 .588.164 1.11.163.524.483.915.32.393.79.621.471.229 1.085.229.588 0 1.072-.21.483-.209.823-.58.339-.374.523-.89a3.4 3.4 0 0 0 .183-1.13q0-.626-.19-1.15a2.4 2.4 0 0 0-.562-.894A2.6 2.6 0 0 0 .915.882 3.5 3.5 0 0 0-.346.673h-1.307v-2.6h.993q1.228 0 1.836-.647.607-.646.607-1.757 0-.98-.51-1.483-.508-.503-1.45-.503-1.946 0-2.22 2.508H-5.56q.144-1.254.601-2.208a5.2 5.2 0 0 1 1.163-1.6 4.7 4.7 0 0 1 1.62-.974 5.8 5.8 0 0 1 1.96-.327q1.176 0 2.124.34a4.75 4.75 0 0 1 1.62.954q.673.615 1.038 1.457.366.844.366 1.863"/></g><g id="j"><path fill="#fff" stroke-width="0" d="M-5.55-8.95h11.1v17.9h-11.1z"/><path fill="#1b1b1b" stroke-width="null" d="M-5.5-1.6h11v3.2h-11z"/></g><g id="k"><path fill="#fff" stroke-width="0" d="M-5.55-8.95h11.1v17.9h-11.1z"/><path d="M6.19 5.052H3.98V8.96H.8V5.052h-6.99v-2.52l7.679-11.49H3.98V2.168h2.21zM.801 2.17v-5.524L-2.702 2.17z"/></g><g id="l" fill="#fff"><path stroke-width="0" d="M-4.95-14.15h9.9v28.4h-9.9z"/><path stroke-width="null" d="M-.75-14.5h1.5v29h-1.5z"/></g><path id="b" d="M54 43.936h-6.005v5.251h5.573v1.792h-5.573v6.898H46V42.123h8z" transform="translate(-50 -50)"/><path id="c" fill="#1b1b1b" stroke-linecap="null" stroke-linejoin="null" stroke-width="33" d="M51 49h21v2H51z" transform="translate(-50 -50)"/><path id="d" d="M54.966 54.053h-1.772v3.135h-2.551v-3.135h-5.61v-2.021l6.161-9.22h2v8.928h1.773zm-4.323-2.313V47.31l-2.81 4.431z" transform="translate(-50 -50)"/><circle id="m" cx="49.3" cy="63" r="1.9" fill="#1b1b1b" transform="translate(-50 -50)"/></defs><text x="596.5" y="110" fill="#1b1b1b" dy="35.091" font-family="PingFang SC, Microsoft YaHei, Open Sans, sans-serif" font-size="42" style="font-weight:700" text-anchor="middle">咏一二一</text><use xmlns:xlink="http://www.w3.org/1999/xlink" xlink:href="#a" x="80" y="182"/><use xmlns:xlink="http://www.w3.org/1999/xlink" xlink:href="#b" x="120" y="182" data-diaohao="true"/><use xmlns:xlink="http://www.w3.org/1999/xlink" xlink:href="#c" x="130" y="182"/><use xmlns:xlink="http://www.w3.org/1999/xlink" xlink:href="#d" x="140" y="170"/><use xmlns:xlink="http://www.w3.org/1999/xlink" xlink:href="#d" x="140" y="194" fill="#414141"/><text x="80" y="223" fill="#1b1b1b" dy="5.368" font-family="PingFang SC, Microsoft YaHei, Open Sans, sans-serif" font-size="16">欢乐、进行曲</text><text x="1113" y="232" fill="#1b1b1b" dy="-2.632" font-family="PingFang SC, Microsoft YaHei, Open Sans, sans-serif" font-size="16" text-anchor="end">朱健仁 曲</text><use xmlns:xlink="http://www.w3.org/1999/xlink" xlink:href="#e" x="83" y="272"/><text x="71" y="310" fill="#101010" dy="8.052" font-family="PingFang SC, Microsoft YaHei, Open Sans, sans-serif" font-size="24">我</text><use xmlns:xlink="http://www.w3.org/1999/xlink" xlink:href="#e" x="109.777" y="272"/><text x="97.777" y="310" fill="#101010" dy="8.052" font-family="PingFang SC, Microsoft YaHei, Open Sans, sans-serif" font-size="24">真</text><use xmlns:xlink="http://www.w3.org/1999/xlink" xlink:href="#f" x="147.266" y="272"/><use xmlns:xlink="http://www.w3.org/1999/xlink" xlink:href="#g" x="184.754" y="272"/><text x="172.754" y="310" fill="#101010" dy="8.052" font-family="PingFang SC, Microsoft YaHei, Open Sans, sans-serif" font-size="24">高</text><use xmlns:xlink="http://www.w3.org/1999/xlink" xlink:href="#g" x="211.532" y="272"/><text x="199.532" y="310" fill="#101010" dy="8.052" font-family="PingFang SC, Microsoft YaHei, Open Sans, sans-serif" font-size="24">兴</text><text x="223.532" y="310" fill="#101010" dy="8.052" font-family="PingFang SC, Microsoft YaHei, Open Sans, sans-serif" font-size="24">，</text><use xmlns:xlink="http://www.w3.org/1999/xlink" xlink:href="#g" x="251.698" y="272"/><text x="239.698" y="310" fill="#101010" dy="8.052" font-family="PingFang SC, Microsoft YaHei, Open Sans, sans-serif" font-size="24">因</text><use xmlns:xlink="http://www.w3.org/1999/xlink" xlink:href="#g" x="278.476" y="272"/><text x="266.476" y="310" fill="#101010" dy="8.052" font-family="PingFang SC, Microsoft YaHei, Open Sans, sans-serif" font-size="24">为</text><use xmlns:xlink="http://www.w3.org/1999/xlink" xlink:href="#g" x="318.642" y="272"/><text x="306.642" y="310" fill="#101010" dy="8.052" font-family="PingFang SC, Microsoft YaHei, Open Sans, sans-serif" font-size="24">有</text><use xmlns:xlink="http://www.w3.org/1999/xlink" xlink:href="#h" x="345.419" y="272"/><text x="333.419" y="310" fill="#101010" dy="8.052" font-family="PingFang SC, Microsoft YaHei, Open Sans, sans-serif" font-size="24">人</text><use xmlns:xlink="http://www.w3.org/1999/xlink" xlink:href="#i" x="385.586" y="272"/><text x="373.586" y="310" fill="#101010" dy="8.052" font-family="PingFang SC, Microsoft YaHei, Open Sans, sans-serif" font-size="24">对</text><use xmlns:xlink="http://www.w3.org/1999/xlink" xlink:href="#g" x="412.363" y="272"/><text x="400.363" y="310" fill="#101010" dy="8.052" font-family="PingFang SC, Microsoft YaHei, Open Sans, sans-serif" font-size="24">我</text><use xmlns:xlink="http://www.w3.org/1999/xlink" xlink:href="#f" x="449.852" y="272"/><use xmlns:xlink="http://www.w3.org/1999/xlink" xlink:href="#e" x="487.34" y="272"/><text x="475.34" y="310" fill="#101010" dy="8.052" font-family="PingFang SC, Microsoft YaHei, Open Sans, sans-serif" font-size="24">说</text><text x="499.34" y="310" fill="#101010" dy="8.052" font-family="PingFang SC, Microsoft YaHei, Open Sans, sans-serif" font-size="24">：</text><use xmlns:xlink="http://www.w3.org/1999/xlink" xlink:href="#j" x="527.506" y="272"/><use xmlns:xlink="http://www.w3.org/1999/xlink" xlink:href="#j" x="567.673" y="272"/><use xmlns:xlink="http://www.w3.org/1999/xlink" xlink:href="#h" x="607.839" y="272"/><text x="595.839" y="310" fill="#101010" dy="8.052" font-family="PingFang SC, Microsoft YaHei, Open Sans, sans-serif" font-size="24">我</text><use xmlns:xlink="http://www.w3.org/1999/xlink" xlink:href="#h" x="634.616" y="272"/><text x="622.616" y="310" fill="#101010" dy="8.052" font-family="PingFang SC, Microsoft YaHei, Open Sans, sans-serif" font-size="24">们</text><use xmlns:xlink="http://www.w3.org/1999/xlink" xlink:href="#f" x="672.105" y="272"/><use xmlns:xlink="http://www.w3.org/1999/xlink" xlink:href="#k" x="709.593" y="272"/><text x="697.593" y="310" fill="#101010" dy="8.052" font-family="PingFang SC, Microsoft YaHei, Open Sans, sans-serif" font-size="24">要</text><use xmlns:xlink="http://www.w3.org/1999/xlink" xlink:href="#k" x="749.76" y="272"/><text x="737.76" y="310" fill="#101010" dy="8.052" font-family="PingFang SC, Microsoft YaHei, Open Sans, sans-serif" font-size="24">进</text><use xmlns:xlink="http://www.w3.org/1999/xlink" xlink:href="#i" x="776.537" y="272"/><text x="764.537" y="310" fill="#101010" dy="8.052" font-family="PingFang SC, Microsoft YaHei, Open Sans, sans-serif" font-size="24">入</text><use xmlns:xlink="http://www.w3.org/1999/xlink" xlink:href="#k" x="816.703" y="272"/><text x="804.703" y="310" fill="#101010" dy="8.052" font-family="PingFang SC, Microsoft YaHei, Open Sans, sans-serif" font-size="24">上</text><use xmlns:xlink="http://www.w3.org/1999/xlink" xlink:href="#i" x="843.481" y="272"/><text x="831.481" y="310" fill="#101010" dy="8.052" font-family="PingFang SC, Microsoft YaHei, Open Sans, sans-serif" font-size="24">主</text><use xmlns:xlink="http://www.w3.org/1999/xlink" xlink:href="#h" x="883.647" y="272"/><text x="871.647" y="310" fill="#101010" dy="8.052" font-family="PingFang SC, Microsoft YaHei, Open Sans, sans-serif" font-size="24">的</text><use xmlns:xlink="http://www.w3.org/1999/xlink" xlink:href="#h" x="910.425" y="272"/><text x="898.425" y="310" fill="#101010" dy="8.052" font-family="PingFang SC, Microsoft YaHei, Open Sans, sans-serif" font-size="24">圣</text><use xmlns:xlink="http://www.w3.org/1999/xlink" xlink:href="#f" x="947.913" y="272"/><use xmlns:xlink="http://www.w3.org/1999/xlink" xlink:href="#h" x="985.402" y="272"/><text x="973.402" y="310" fill="#101010" dy="8.052" font-family="PingFang SC, Microsoft YaHei, Open Sans, sans-serif" font-size="24">殿</text><text x="997.402" y="310" fill="#101010" dy="8.052" font-family="PingFang SC, Microsoft YaHei, Open Sans, sans-serif" font-size="24">！</text><use xmlns:xlink="http://www.w3.org/1999/xlink" xlink:href="#j" x="1025.568" y="272"/><use xmlns:xlink="http://www.w3.org/1999/xlink" xlink:href="#j" x="1065.734" y="272"/><use xmlns:xlink="http://www.w3.org/1999/xlink" xlink:href="#l" x="1116" y="272"/><use xmlns:xlink="http://www.w3.org/1999/xlink" xlink:href="#e" x="83" y="384"/><text x="71" y="422" fill="#101010" dy="8.052" font-family="PingFang SC, Microsoft YaHei, Open Sans, sans-serif" font-size="24">我</text><use xmlns:xlink="http://www.w3.org/1999/xlink" xlink:href="#e" x="109.777" y="384"/><text x="97.777" y="422" fill="#101010" dy="8.052" font-family="PingFang SC, Microsoft YaHei, Open Sans, sans-serif" font-size="24">真</text><use xmlns:xlink="http://www.w3.org/1999/xlink" xlink:href="#f" x="147.266" y="384"/><use xmlns:xlink="http://www.w3.org/1999/xlink" xlink:href="#g" x="184.754" y="384"/><text x="172.754" y="422" fill="#101010" dy="8.052" font-family="PingFang SC, Microsoft YaHei, Open Sans, sans-serif" font-size="24">高</text><use xmlns:xlink="http://www.w3.org/1999/xlink" xlink:href="#g" x="211.532" y="384"/><text x="199.532" y="422" fill="#101010" dy="8.052" font-family="PingFang SC, Microsoft YaHei, Open Sans, sans-serif" font-size="24">兴</text><text x="223.532" y="422" fill="#101010" dy="8.052" font-family="PingFang SC, Microsoft YaHei, Open Sans, sans-serif" font-size="24">，</text><use xmlns:xlink="http://www.w3.org/1999/xlink" xlink:href="#g" x="251.698" y="384"/><text x="239.698" y="422" fill="#101010" dy="8.052" font-family="PingFang SC, Microsoft YaHei, Open Sans, sans-serif" font-size="24">因</text><use xmlns:xlink="http://www.w3.org/1999/xlink" xlink:href="#g" x="278.476" y="384"/><text x="266.476" y="422" fill="#101010" dy="8.052" font-family="PingFang SC, Microsoft YaHei, Open Sans, sans-serif" font-size="24">为</text><use xmlns:xlink="http://www.w3.org/1999/xlink" xlink:href="#g" x="318.642" y="384"/><text x="306.642" y="422" fill="#101010" dy="8.052" font-family="PingFang SC, Microsoft YaHei, Open Sans, sans-serif" font-size="24">有</text><use xmlns:xlink="http://www.w3.org/1999/xlink" xlink:href="#h" x="345.419" y="384"/><text x="333.419" y="422" fill="#101010" dy="8.052" font-family="PingFang SC, Microsoft YaHei, Open Sans, sans-serif" font-size="24">人</text><use xmlns:xlink="http://www.w3.org/1999/xlink" xlink:href="#i" x="385.586" y="384"/><text x="373.586" y="422" fill="#101010" dy="8.052" font-family="PingFang SC, Microsoft YaHei, Open Sans, sans-serif" font-size="24">对</text><use xmlns:xlink="http://www.w3.org/1999/xlink" xlink:href="#g" x="412.363" y="384"/><text x="400.363" y="422" fill="#101010" dy="8.052" font-family="PingFang SC, Microsoft YaHei, Open Sans, sans-serif" font-size="24">我</text><use xmlns:xlink="http://www.w3.org/1999/xlink" xlink:href="#f" x="449.852" y="384"/><use xmlns:xlink="http://www.w3.org/1999/xlink" xlink:href="#e" x="487.34" y="384"/><text x="475.34" y="422" fill="#101010" dy="8.052" font-family="PingFang SC, Microsoft YaHei, Open Sans, sans-serif" font-size="24">说</text><text x="499.34" y="422" fill="#101010" dy="8.052" font-family="PingFang SC, Microsoft YaHei, Open Sans, sans-serif" font-size="24">：</text><use xmlns:xlink="http://www.w3.org/1999/xlink" xlink:href="#j" x="527.506" y="384"/><use xmlns:xlink="http://www.w3.org/1999/xlink" xlink:href="#j" x="567.673" y="384"/><use xmlns:xlink="http://www.w3.org/1999/xlink" xlink:href="#h" x="607.839" y="384"/><text x="595.839" y="422" fill="#101010" dy="8.052" font-family="PingFang SC, Microsoft YaHei, Open Sans, sans-serif" font-size="24">我</text><use xmlns:xlink="http://www.w3.org/1999/xlink" xlink:href="#h" x="634.616" y="384"/><text x="622.616" y="422" fill="#101010" dy="8.052" font-family="PingFang SC, Microsoft YaHei, Open Sans, sans-serif" font-size="24">们</text><use xmlns:xlink="http://www.w3.org/1999/xlink" xlink:href="#f" x="672.105" y="384"/><use xmlns:xlink="http://www.w3.org/1999/xlink" xlink:href="#e" x="709.593" y="384"/><text x="697.593" y="422" fill="#101010" dy="8.052" font-family="PingFang SC, Microsoft YaHei, Open Sans, sans-serif" font-size="24">要</text><use xmlns:xlink="http://www.w3.org/1999/xlink" xlink:href="#e" x="749.76" y="384"/><text x="737.76" y="422" fill="#101010" dy="8.052" font-family="PingFang SC, Microsoft YaHei, Open Sans, sans-serif" font-size="24">进</text><use xmlns:xlink="http://www.w3.org/1999/xlink" xlink:href="#k" x="776.537" y="384"/><text x="764.537" y="422" fill="#101010" dy="8.052" font-family="PingFang SC, Microsoft YaHei, Open Sans, sans-serif" font-size="24">入</text><use xmlns:xlink="http://www.w3.org/1999/xlink" xlink:href="#i" x="816.703" y="384"/><text x="804.703" y="422" fill="#101010" dy="8.052" font-family="PingFang SC, Microsoft YaHei, Open Sans, sans-serif" font-size="24">上</text><use xmlns:xlink="http://www.w3.org/1999/xlink" xlink:href="#h" x="843.481" y="384"/><text x="831.481" y="422" fill="#101010" dy="8.052" font-family="PingFang SC, Microsoft YaHei, Open Sans, sans-serif" font-size="24">主</text><use xmlns:xlink="http://www.w3.org/1999/xlink" xlink:href="#g" x="883.647" y="384"/><text x="871.647" y="422" fill="#101010" dy="8.052" font-family="PingFang SC, Microsoft YaHei, Open Sans, sans-serif" font-size="24">的</text><use xmlns:xlink="http://www.w3.org/1999/xlink" xlink:href="#g" x="910.425" y="384"/><text x="898.425" y="422" fill="#101010" dy="8.052" font-family="PingFang SC, Microsoft YaHei, Open Sans, sans-serif" font-size="24">圣</text><use xmlns:xlink="http://www.w3.org/1999/xlink" xlink:href="#f" x="947.913" y="384"/><use xmlns:xlink="http://www.w3.org/1999/xlink" xlink:href="#g" x="985.402" y="384"/><text x="973.402" y="422" fill="#101010" dy="8.052" font-family="PingFang SC, Microsoft YaHei, Open Sans, sans-serif" font-size="24">殿</text><text x="997.402" y="422" fill="#101010" dy="8.052" font-family="PingFang SC, Microsoft YaHei, Open Sans, sans-serif" font-size="24">！</text><use xmlns:xlink="http://www.w3.org/1999/xlink" xlink:href="#j" x="1025.568" y="384"/><use xmlns:xlink="http://www.w3.org/1999/xlink" xlink:href="#j" x="1065.734" y="384"/><use xmlns:xlink="http://www.w3.org/1999/xlink" xlink:href="#l" x="1116" y="384"/><path stroke="#1b1b1b" stroke-width="2" d="M77 285h38.777M178.754 285h38.778M245.698 285h38.778M312.642 285h38.777M379.586 285h38.777M601.839 285h38.777M743.76 285h38.777M810.703 285h38.778M877.647 285h38.778M77 397h38.777M178.754 397h38.778M245.698 397h38.778M312.642 397h38.777M379.586 397h38.777M601.839 397h38.777M743.76 397h38.777M810.703 397h38.778M877.647 397h38.778" data-type="jianshixian"/><use xmlns:xlink="http://www.w3.org/1999/xlink" xlink:href="#m" x="83" y="277"/><use xmlns:xlink="http://www.w3.org/1999/xlink" xlink:href="#m" x="109.777" y="277"/><use xmlns:xlink="http://www.w3.org/1999/xlink" xlink:href="#m" x="83" y="389"/><use xmlns:xlink="http://www.w3.org/1999/xlink" xlink:href="#m" x="109.777" y="389"/></svg>