<svg xmlns="http://www.w3.org/2000/svg" width="1200" height="675"><rect width="100%" height="100%" fill="#fff"/><defs><g id="a" fill="#1b1b1b"><path d="M13.9 7.812H5.081v-1.7h3.455V-5.645L5-4.6v-1.802L10.466-8V6.112H13.9z"/><path stroke-width="33" d="M18-3.141h11v2H18zM18 1.325h11v2H18z"/></g><g id="g"><path fill="#fff" stroke-width="0" d="M-4.95-14.15h9.9v28.4h-9.9z"/><path fill="#1b1b1b" stroke-width="null" d="M-.75-14.5h1.5v29h-1.5z"/></g><g id="h"><path fill="#fff" stroke-width="0" d="M-5.55-8.95h11.1v17.9h-11.1z"/><path d="M1.674 8.969h-3.22v-12.76q-1.428.517-3.954.517V-5.98q3.966 0 4.538-2.99h2.636z"/></g><g id="i"><path fill="#fff" stroke-width="0" d="M-5.55-8.95h11.1v17.9h-11.1z"/><path d="M4.932-4.304q0 .457-.098.934a4.7 4.7 0 0 1-.294.927q-.195.451-.49.85a3.5 3.5 0 0 1-.686.699q.575.3 1.02.764.442.465.744 1.039.3.575.457 1.228.157.654.157 1.333 0 1.202-.444 2.208c-.444 1.006-.702 1.246-1.215 1.724q-.771.72-1.83 1.117c-1.059.397-1.463.399-2.273.399q-1.228 0-2.247-.392a5.3 5.3 0 0 1-1.77-1.104 5.25 5.25 0 0 1-1.195-1.725q-.445-1.012-.51-2.254h3.2q0 .588.164 1.11.163.524.483.915.32.393.79.621.471.229 1.085.229.588 0 1.072-.21.483-.209.823-.58.339-.374.523-.89a3.4 3.4 0 0 0 .183-1.13q0-.626-.19-1.15a2.4 2.4 0 0 0-.562-.894A2.6 2.6 0 0 0 .915.882 3.5 3.5 0 0 0-.346.673h-1.307v-2.6h.993q1.228 0 1.836-.647.607-.646.607-1.757 0-.98-.51-1.483-.508-.503-1.45-.503-1.946 0-2.22 2.508H-5.56q.144-1.254.601-2.208a5.2 5.2 0 0 1 1.163-1.6 4.7 4.7 0 0 1 1.62-.974 5.8 5.8 0 0 1 1.96-.327q1.176 0 2.124.34a4.75 4.75 0 0 1 1.62.954q.673.615 1.038 1.457.366.844.366 1.863"/></g><g id="j"><path fill="#fff" stroke-width="0" d="M-5.55-8.95h11.1v17.9h-11.1z"/><path d="M-1.99-3.011q.975-.46 2.345-.461 1.08 0 2.076.395.994.395 1.76 1.166.764.771 1.211 1.91.448 1.14.448 2.63 0 1.317-.428 2.457c-.428 1.14-.687 1.418-1.206 1.976s-1.148.995-1.89 1.312q-1.114.474-2.47.474a6.4 6.4 0 0 1-2.083-.336A5 5 0 0 1-3.959 7.49q-.759-.686-1.259-1.713c-.5-1.027-.545-1.49-.632-2.412h3.188q.08.725.304 1.265.224.541.56.896.336.356.757.527.422.172.896.172.633 0 1.147-.264t.883-.731.573-1.087c.204-.619.204-.856.204-1.33q0-.87-.21-1.53a3.2 3.2 0 0 0-.587-1.1 2.5 2.5 0 0 0-.896-.672 2.8 2.8 0 0 0-1.153-.23q-1.463 0-2.649 1.33H-5.27l.764-9.46h9.593v2.899h-6.852z"/></g><g id="k"><path fill="#fff" stroke-width="0" d="M-5.55-8.95h11.1v17.9h-11.1z"/><path d="M.3-6.276q-.533 0-.981.311-.448.312-.799.883-.35.57-.61 1.389c-.26.819-.303 1.155-.39 1.83q.675-.48 1.41-.779A4.1 4.1 0 0 1 .48-2.94q1.195 0 2.155.467.96.468 1.642 1.279.68.81 1.045 1.882.363 1.07.363 2.278c0 1.208-.13 1.566-.389 2.284q-.39 1.078-1.103 1.876c-.713.798-1.05.954-1.72 1.266q-1.006.467-2.24.467-1.414 0-2.518-.571A5.14 5.14 0 0 1-4.14 6.646Q-4.894 5.575-5.29 4.03q-.395-1.545-.395-3.504 0-2.285.383-4.037t1.142-2.94q.759-1.187 1.902-1.798 1.141-.61 2.66-.61.987 0 1.837.311a4.6 4.6 0 0 1 1.519.922q.668.61 1.116 1.538.447.929.63 2.149H2.335Q2.066-6.277.3-6.276M.117-.241q-1.35 0-2.739 1.389.039 1.194.253 2.142.214.947.571 1.61.357.66.864 1.018.506.357 1.13.357.544 0 .98-.246.434-.247.739-.682c.305-.435.36-.627.467-1.012q.163-.578.163-1.24 0-.675-.17-1.279A3.6 3.6 0 0 0 1.89.752a2.5 2.5 0 0 0-.766-.727A1.94 1.94 0 0 0 .118-.241"/></g><g id="l"><path fill="#fff" stroke-width="0" d="M-5.55-8.95h11.1v17.9h-11.1z"/><path fill="#1b1b1b" stroke-width="null" d="M-5.5-1.6h11v3.2h-11z"/></g><g id="m"><path fill="#fff" stroke-width="0" d="M-5.55-8.95h11.1v17.9h-11.1z"/><path d="M5.876 8.92H-5.876q0-2.272.944-3.695.518-.758 1.382-1.662a23 23 0 0 1 2.14-1.94A40 40 0 0 0 .5-.013q.777-.717 1.25-1.35.471-.63.678-1.242c.207-.612.206-.847.206-1.317q0-1.116-.618-1.735-.62-.618-1.789-.618-.479 0-.917.193a2.2 2.2 0 0 0-.778.578 3.3 3.3 0 0 0-.565.95q-.226.567-.28 1.324H-5.53q.106-1.29.559-2.347c.453-1.057.702-1.303 1.203-1.795a5.3 5.3 0 0 1 1.775-1.143q1.023-.405 2.26-.406 1.33 0 2.373.386 1.044.385 1.749 1.063.705.679 1.077 1.596t.372 1.994q0 .998-.266 1.835a5.9 5.9 0 0 1-.798 1.596q-.504.69-1.502 1.728Q2.274 2.314.825 3.524q-.426.359-1.09.964A9.5 9.5 0 0 0-1.57 5.984h7.445z"/></g><g id="n"><path fill="#fff" stroke-width="0" d="M-5.55-8.95h11.1v17.9h-11.1z"/><path d="M-.006-8.92q1.424 0 2.49.588 1.065.588 1.777 1.739c.712 1.15.832 1.71 1.072 2.829q.36 1.68.359 3.862 0 4.34-1.431 6.58Q2.83 8.92-.006 8.92q-2.85 0-4.268-2.242-1.418-2.24-1.418-6.58 0-2.182.353-3.862t1.065-2.83c.712-1.15 1.067-1.346 1.778-1.738q1.065-.588 2.49-.588m0 15.24q.626 0 1.098-.327.47-.327.79-1.066.32-.738.484-1.921T2.53.098c0-1.725-.054-2.13-.163-2.94s-.27-1.473-.484-1.987q-.32-.77-.79-1.13t-1.098-.36q-.614 0-1.085.353-.47.353-.797 1.124t-.49 1.986Q-2.541-1.64-2.541.098q0 1.725.163 2.915t.49 1.92q.326.733.797 1.06.47.327 1.085.326"/></g><g id="o"><path fill="#fff" stroke-width="0" d="M-7.55-14.35h11.7v28.4h-11.7z"/><path fill="#1b1b1b" stroke-width="null" d="M-4.35-14.5h1v29h-1zM-1.65-14.5h2.4v29h-2.4z"/></g><path id="b" fill="#1b1b1b" stroke-width="33" d="M38.58 35.447c.237-.043.625 0 .776.107.043.022.043.259-.022 3.77-.043 2.047-.065 3.727-.065 3.727 0 .021.087-.022.173-.086.452-.302 1.012-.474 1.572-.517.582-.022 1.056.15 1.465.56.41.387.625.904.668 1.464.021.41-.065.776-.259 1.164-.301.581-.732.99-2.025 1.874-.818.56-1.034.732-1.292 1.034-.13.129-.28.28-.323.301a.456.456 0 0 1-.582-.043c-.043-.064-.086-.129-.107-.194-.022-.043-.065-2.348-.13-5.988-.064-3.253-.107-6.16-.129-6.484v-.56l.086-.043a2 2 0 0 1 .194-.086m2.283 7.905a.77.77 0 0 0-.581-.043c-.388.108-.711.453-.84.905-.043.215-.086 2.068-.043 2.779.021.301.021.581.043.646l.021.086.323-.28c.453-.388.905-.84 1.12-1.142s.431-.71.517-1.012a2.33 2.33 0 0 0-.129-1.486c-.107-.216-.237-.367-.43-.453" transform="translate(-50 -50)"/><path id="c" d="M45.05 57.876V42.124h4.608q2.054 0 3.3.99t1.245 2.615q0 1.312-.737 2.312t-2.024 1.417v.042q1.599.167 2.553 1.208t.955 2.626q0 2.02-1.453 3.281t-3.715 1.26zm2.013-13.98v4.937h1.847q1.474 0 2.315-.719t.84-1.99q0-2.229-2.968-2.229zm0 6.708v5.5h2.429q1.598 0 2.47-.739t.871-2.052q0-2.709-3.674-2.709z" transform="translate(-50 -50)"/><path id="d" fill="#1b1b1b" stroke-linecap="null" stroke-linejoin="null" stroke-width="33" d="M51 49h21v2H51z" transform="translate(-50 -50)"/><path id="e" d="M54.732 57.184h-9.464q0-1.83.76-2.976.417-.61 1.114-1.339a19 19 0 0 1 1.723-1.562 33 33 0 0 0 1.537-1.317 8 8 0 0 0 1.006-1.087q.381-.51.546-1.001c.165-.491.166-.682.166-1.06q0-.9-.498-1.397-.498-.498-1.44-.498-.385 0-.739.155a1.8 1.8 0 0 0-.626.466 2.6 2.6 0 0 0-.455.765 3.5 3.5 0 0 0-.225 1.066h-2.59q.084-1.04.449-1.89c.365-.85.566-1.05.969-1.445q.605-.595 1.43-.921a4.9 4.9 0 0 1 1.82-.327q1.07 0 1.91.31.84.312 1.408.857.568.547.868 1.285.3.74.3 1.606 0 .803-.215 1.478a4.7 4.7 0 0 1-.642 1.284q-.407.558-1.21 1.392a25 25 0 0 1-1.97 1.81q-.342.288-.878.776a7.6 7.6 0 0 0-1.05 1.204h5.996z" transform="translate(-50 -50)"/><path id="f" d="M54.966 54.053h-1.772v3.135h-2.551v-3.135h-5.61v-2.021l6.161-9.22h2v8.928h1.773zm-4.323-2.313V47.31l-2.81 4.431z" transform="translate(-50 -50)"/><path id="q" fill="none" stroke="#1b1b1b" stroke-linecap="round" stroke-linejoin="null" stroke-width="1.2" d="M50.75 50.75s-8.394.57-12.219 8.884" transform="translate(-50 -50)"/><path id="r" fill="none" stroke="#1b1b1b" stroke-linecap="round" stroke-linejoin="null" stroke-width="1.2" d="M50.75 50.75s7.642.57 11.124 8.884" transform="translate(-50 -50)"/><circle id="p" cx="49.3" cy="36" r="1.9" fill="#1b1b1b" transform="translate(-50 -50)"/></defs><text x="596.5" y="110" fill="#1b1b1b" dy="35.091" font-family="PingFang SC, Microsoft YaHei, Open Sans, sans-serif" font-size="42" style="font-weight:700" text-anchor="middle">咏九五</text><use xmlns:xlink="http://www.w3.org/1999/xlink" xlink:href="#a" x="80" y="182"/><use xmlns:xlink="http://www.w3.org/1999/xlink" xlink:href="#b" x="125" y="182"/><use xmlns:xlink="http://www.w3.org/1999/xlink" xlink:href="#c" x="125" y="182" data-diaohao="true"/><use xmlns:xlink="http://www.w3.org/1999/xlink" xlink:href="#d" x="135" y="182"/><use xmlns:xlink="http://www.w3.org/1999/xlink" xlink:href="#e" x="145" y="170"/><use xmlns:xlink="http://www.w3.org/1999/xlink" xlink:href="#f" x="145" y="194" fill="#414141"/><text x="80" y="223" fill="#1b1b1b" dy="5.368" font-family="PingFang SC, Microsoft YaHei, Open Sans, sans-serif" font-size="16">欢庆、悠扬</text><text x="1113" y="232" fill="#1b1b1b" dy="-2.632" font-family="PingFang SC, Microsoft YaHei, Open Sans, sans-serif" font-size="16" text-anchor="end">朱健仁 曲</text><use xmlns:xlink="http://www.w3.org/1999/xlink" xlink:href="#g" x="83" y="272"/><use xmlns:xlink="http://www.w3.org/1999/xlink" xlink:href="#h" x="118" y="272"/><text x="106" y="310" fill="#101010" dy="8.052" font-family="PingFang SC, Microsoft YaHei, Open Sans, sans-serif" font-size="24">请</text><use xmlns:xlink="http://www.w3.org/1999/xlink" xlink:href="#i" x="143" y="272"/><text x="131" y="310" fill="#101010" dy="8.052" font-family="PingFang SC, Microsoft YaHei, Open Sans, sans-serif" font-size="24">在</text><use xmlns:xlink="http://www.w3.org/1999/xlink" xlink:href="#g" x="178" y="272"/><use xmlns:xlink="http://www.w3.org/1999/xlink" xlink:href="#j" x="213" y="272"/><text x="201" y="310" fill="#101010" dy="8.052" font-family="PingFang SC, Microsoft YaHei, Open Sans, sans-serif" font-size="24">万</text><use xmlns:xlink="http://www.w3.org/1999/xlink" xlink:href="#j" x="250.5" y="272"/><text x="238.5" y="310" fill="#101010" dy="8.052" font-family="PingFang SC, Microsoft YaHei, Open Sans, sans-serif" font-size="24">民</text><use xmlns:xlink="http://www.w3.org/1999/xlink" xlink:href="#g" x="285.5" y="272"/><use xmlns:xlink="http://www.w3.org/1999/xlink" xlink:href="#j" x="320.5" y="272"/><text x="308.5" y="310" fill="#101010" dy="8.052" font-family="PingFang SC, Microsoft YaHei, Open Sans, sans-serif" font-size="24">中</text><use xmlns:xlink="http://www.w3.org/1999/xlink" xlink:href="#h" x="358" y="272"/><text x="346" y="310" fill="#101010" dy="8.052" font-family="PingFang SC, Microsoft YaHei, Open Sans, sans-serif" font-size="24">宣</text><use xmlns:xlink="http://www.w3.org/1999/xlink" xlink:href="#k" x="383" y="272"/><use xmlns:xlink="http://www.w3.org/1999/xlink" xlink:href="#g" x="418" y="272"/><use xmlns:xlink="http://www.w3.org/1999/xlink" xlink:href="#j" x="453" y="272"/><text x="441" y="310" fill="#101010" dy="8.052" font-family="PingFang SC, Microsoft YaHei, Open Sans, sans-serif" font-size="24">扬</text><text x="465" y="310" fill="#101010" dy="8.052" font-family="PingFang SC, Microsoft YaHei, Open Sans, sans-serif" font-size="24">，</text><use xmlns:xlink="http://www.w3.org/1999/xlink" xlink:href="#l" x="490.5" y="272"/><use xmlns:xlink="http://www.w3.org/1999/xlink" xlink:href="#g" x="525.5" y="272"/><use xmlns:xlink="http://www.w3.org/1999/xlink" xlink:href="#j" x="560.5" y="272"/><use xmlns:xlink="http://www.w3.org/1999/xlink" xlink:href="#l" x="598" y="272"/><use xmlns:xlink="http://www.w3.org/1999/xlink" xlink:href="#g" x="633" y="272"/><use xmlns:xlink="http://www.w3.org/1999/xlink" xlink:href="#g" x="83" y="384"/><use xmlns:xlink="http://www.w3.org/1999/xlink" xlink:href="#i" x="118" y="384"/><text x="106" y="422" fill="#101010" dy="8.052" font-family="PingFang SC, Microsoft YaHei, Open Sans, sans-serif" font-size="24">宣</text><use xmlns:xlink="http://www.w3.org/1999/xlink" xlink:href="#i" x="155.5" y="384"/><text x="143.5" y="422" fill="#101010" dy="8.052" font-family="PingFang SC, Microsoft YaHei, Open Sans, sans-serif" font-size="24">扬</text><use xmlns:xlink="http://www.w3.org/1999/xlink" xlink:href="#g" x="190.5" y="384"/><use xmlns:xlink="http://www.w3.org/1999/xlink" xlink:href="#m" x="225.5" y="384"/><text x="213.5" y="422" fill="#101010" dy="8.052" font-family="PingFang SC, Microsoft YaHei, Open Sans, sans-serif" font-size="24">上</text><use xmlns:xlink="http://www.w3.org/1999/xlink" xlink:href="#h" x="250.5" y="384"/><text x="238.5" y="422" fill="#101010" dy="8.052" font-family="PingFang SC, Microsoft YaHei, Open Sans, sans-serif" font-size="24">主</text><use xmlns:xlink="http://www.w3.org/1999/xlink" xlink:href="#m" x="288" y="384"/><text x="276" y="422" fill="#101010" dy="8.052" font-family="PingFang SC, Microsoft YaHei, Open Sans, sans-serif" font-size="24">的</text><use xmlns:xlink="http://www.w3.org/1999/xlink" xlink:href="#m" x="313" y="384"/><text x="301" y="422" fill="#101010" dy="8.052" font-family="PingFang SC, Microsoft YaHei, Open Sans, sans-serif" font-size="24">奇</text><use xmlns:xlink="http://www.w3.org/1999/xlink" xlink:href="#g" x="348" y="384"/><use xmlns:xlink="http://www.w3.org/1999/xlink" xlink:href="#h" x="383" y="384"/><text x="371" y="422" fill="#101010" dy="8.052" font-family="PingFang SC, Microsoft YaHei, Open Sans, sans-serif" font-size="24">能</text><text x="395" y="422" fill="#101010" dy="8.052" font-family="PingFang SC, Microsoft YaHei, Open Sans, sans-serif" font-size="24">。</text><use xmlns:xlink="http://www.w3.org/1999/xlink" xlink:href="#l" x="420.5" y="384"/><use xmlns:xlink="http://www.w3.org/1999/xlink" xlink:href="#g" x="455.5" y="384"/><use xmlns:xlink="http://www.w3.org/1999/xlink" xlink:href="#h" x="490.5" y="384"/><use xmlns:xlink="http://www.w3.org/1999/xlink" xlink:href="#n" x="528" y="384"/><use xmlns:xlink="http://www.w3.org/1999/xlink" xlink:href="#o" x="563" y="384"/><path stroke="#1b1b1b" stroke-width="2" d="M112 285h37M352 285h37M219.5 397h37M282 397h37" data-type="jianshixian"/><use xmlns:xlink="http://www.w3.org/1999/xlink" xlink:href="#p" x="358" y="272"/><use xmlns:xlink="http://www.w3.org/1999/xlink" xlink:href="#p" x="118" y="384"/><use xmlns:xlink="http://www.w3.org/1999/xlink" xlink:href="#p" x="155.5" y="384"/><use xmlns:xlink="http://www.w3.org/1999/xlink" xlink:href="#p" x="225.5" y="384"/><use xmlns:xlink="http://www.w3.org/1999/xlink" xlink:href="#p" x="250.5" y="384"/><use xmlns:xlink="http://www.w3.org/1999/xlink" xlink:href="#p" x="288" y="384"/><use xmlns:xlink="http://www.w3.org/1999/xlink" xlink:href="#p" x="313" y="384"/><use xmlns:xlink="http://www.w3.org/1999/xlink" xlink:href="#p" x="383" y="384"/><use xmlns:xlink="http://www.w3.org/1999/xlink" xlink:href="#p" x="490.5" y="384"/><path stroke="#1b1b1b" stroke-width=".5" d="M359 251c6.5-10 16.5-10 23 0m0 0c-6.5-9-16.5-9-23 0"/><use xmlns:xlink="http://www.w3.org/1999/xlink" xlink:href="#q" x="465" y="246.05"/><use xmlns:xlink="http://www.w3.org/1999/xlink" xlink:href="#r" x="548.5" y="246.05"/><path fill="none" stroke="#1b1b1b" stroke-width="1.2" d="M465.8 246.8h83.7"/><use xmlns:xlink="http://www.w3.org/1999/xlink" xlink:href="#q" x="395" y="353.05"/><use xmlns:xlink="http://www.w3.org/1999/xlink" xlink:href="#r" x="478.5" y="353.05"/><path fill="none" stroke="#1b1b1b" stroke-width="1.2" d="M395.8 353.8h83.7"/></svg>