<svg width="840" height="630" xmlns="http://www.w3.org/2000/svg"><rect height="100%" width="100%" fill="#fff"/><defs><g id="a" fill="#1b1b1b"><path d="M63.9 57.812h-8.819v-1.7h3.455V44.355L55 45.4v-1.802L60.466 42v14.112H63.9v1.7z" transform="translate(-50 -50)"/><path stroke-width="33" d="M68 46.859h11v2H68zM68 51.325h11v2H68z" transform="translate(-50 -50)"/></g><path d="M54 43.936h-6.005v5.251h5.573v1.792h-5.573v6.898H46V42.123h8v1.813z" transform="translate(-50 -50)" id="b"/><path fill="#1b1b1b" stroke-width="33" stroke-linejoin="null" stroke-linecap="null" d="M51 49h21v2H51z" transform="translate(-50 -50)" id="c"/><path d="M54.966 54.053h-1.772v3.135h-2.551v-3.135h-5.61v-2.021l6.161-9.22h2v8.928h1.773v2.313zm-4.323-2.313V47.31l-2.81 4.431h2.81z" transform="translate(-50 -50)" id="d"/><g id="e"><path stroke-width="0" fill="#fff" d="M44.45 41.05h11.1v17.9h-11.1z" transform="translate(-50 -50)"/><path d="M50.3 43.724c-.355 0-.682.103-.981.311-.299.208-.565.502-.799.883-.233.38-.437.844-.61 1.389s-.303 1.155-.39 1.83c.45-.32.92-.58 1.41-.779a4.074 4.074 0 0 1 1.55-.298c.797 0 1.515.156 2.155.467.64.312 1.188.738 1.642 1.279.454.54.802 1.168 1.045 1.882.242.714.363 1.473.363 2.278s-.13 1.566-.389 2.284c-.26.719-.627 1.344-1.103 1.876s-1.05.954-1.72 1.266c-.671.311-1.417.467-2.24.467-.943 0-1.782-.19-2.518-.571a5.143 5.143 0 0 1-1.856-1.642c-.502-.714-.885-1.586-1.149-2.616-.263-1.03-.395-2.198-.395-3.504 0-1.523.127-2.869.383-4.037.255-1.168.636-2.148 1.142-2.94.506-.792 1.14-1.39 1.902-1.798.76-.407 1.648-.61 2.66-.61.658 0 1.27.104 1.837.311a4.57 4.57 0 0 1 1.519.922c.445.407.818.92 1.116 1.538.298.62.507 1.335.63 2.149h-3.168c-.18-1.559-.86-2.337-2.037-2.337zm-.182 6.035c-.9 0-1.814.463-2.739 1.389.026.796.11 1.51.253 2.142.143.631.333 1.168.571 1.61.238.44.526.78.864 1.018.337.238.714.357 1.13.357.363 0 .689-.082.98-.246.289-.165.536-.392.74-.682s.358-.627.466-1.012c.109-.385.163-.799.163-1.24 0-.45-.057-.876-.17-1.279a3.559 3.559 0 0 0-.486-1.064 2.458 2.458 0 0 0-.766-.727 1.94 1.94 0 0 0-1.006-.266z" transform="translate(-50 -50)"/></g><g id="f"><path stroke-width="0" fill="#fff" d="M44.45 41.05h11.1v17.9h-11.1z" transform="translate(-50 -50)"/><path d="M55.88 43.136l-6.172 15.817h-3.527l6.132-14.921h-8.194v-2.985h11.762v2.09h-.001z" transform="translate(-50 -50)"/></g><g id="g"><path stroke-width="0" fill="#fff" d="M44.45 41.05h11.1v17.9h-11.1z" transform="translate(-50 -50)"/><path d="M51.674 58.969h-3.22v-12.76c-.952.344-2.27.516-3.954.516v-2.704c2.644 0 4.157-.996 4.538-2.99h2.636v17.937z" transform="translate(-50 -50)"/></g><g id="h"><path fill="#fff" stroke-width="0" d="M45.05 35.85h9.9v28.4h-9.9z" transform="translate(-50 -50)"/><path stroke-width="null" fill="#1b1b1b" d="M49.25 35.5h1.5v29h-1.5z" transform="translate(-50 -50)"/></g><g id="i"><path stroke-width="0" fill="#fff" d="M44.45 41.05h11.1v17.9h-11.1z" transform="translate(-50 -50)"/><path stroke-width="null" fill="#1b1b1b" d="M44.5 48.4h11v3.2h-11z" transform="translate(-50 -50)"/></g><ellipse ry="1.9" rx="1.9" cy="63" cx="49.3" fill="#1b1b1b" id="j" transform="translate(-50 -50)"/></defs><text x="420" y="46" dy="35.091" text-anchor="middle" fill="#1b1b1b" font-size="42" font-family="PingFang SC, Microsoft YaHei, Open Sans, sans-serif" font-weight="700">咏九四</text><use x="16" y="118" xlink:href="#a" xmlns:xlink="http://www.w3.org/1999/xlink"/><use x="56" y="118" xlink:href="#b" xmlns:xlink="http://www.w3.org/1999/xlink"/><use x="66" y="118" xlink:href="#c" xmlns:xlink="http://www.w3.org/1999/xlink"/><use x="76" y="106" xlink:href="#d" xmlns:xlink="http://www.w3.org/1999/xlink"/><use x="76" y="130" xlink:href="#d" fill="#414141" xmlns:xlink="http://www.w3.org/1999/xlink"/><text x="16" y="159" dy="5.368" fill="#1b1b1b" font-size="16" font-family="PingFang SC, Microsoft YaHei, Open Sans, sans-serif">庄严</text><text x="824" y="168" dy="-2.632" text-anchor="end" fill="#1b1b1b" font-size="16" font-family="PingFang SC, Microsoft YaHei, Open Sans, sans-serif">朱健仁 曲</text><use x="19" y="208" xlink:href="#e" xmlns:xlink="http://www.w3.org/1999/xlink"/><text x="7" y="246" dy="8.052" fill="#101010" font-size="24" font-family="PingFang SC, Microsoft YaHei, Open Sans, sans-serif">你</text><use x="53.929" y="208" xlink:href="#e" xmlns:xlink="http://www.w3.org/1999/xlink"/><text x="41.929" y="246" dy="8.052" fill="#101010" font-size="24" font-family="PingFang SC, Microsoft YaHei, Open Sans, sans-serif">们</text><use x="88.858" y="208" xlink:href="#f" xmlns:xlink="http://www.w3.org/1999/xlink"/><text x="76.858" y="246" dy="8.052" fill="#101010" font-size="24" font-family="PingFang SC, Microsoft YaHei, Open Sans, sans-serif">要</text><use x="112.144" y="208" xlink:href="#g" xmlns:xlink="http://www.w3.org/1999/xlink"/><text x="100.144" y="246" dy="8.052" fill="#101010" font-size="24" font-family="PingFang SC, Microsoft YaHei, Open Sans, sans-serif">听</text><use x="147.074" y="208" xlink:href="#f" xmlns:xlink="http://www.w3.org/1999/xlink"/><use x="182.003" y="208" xlink:href="#e" xmlns:xlink="http://www.w3.org/1999/xlink"/><text x="170.003" y="246" dy="8.052" fill="#101010" font-size="24" font-family="PingFang SC, Microsoft YaHei, Open Sans, sans-serif">从</text><use x="214.603" y="208" xlink:href="#h" xmlns:xlink="http://www.w3.org/1999/xlink"/><use x="247.204" y="208" xlink:href="#g" xmlns:xlink="http://www.w3.org/1999/xlink"/><text x="235.204" y="246" dy="8.052" fill="#101010" font-size="24" font-family="PingFang SC, Microsoft YaHei, Open Sans, sans-serif">他</text><use x="270.49" y="208" xlink:href="#e" xmlns:xlink="http://www.w3.org/1999/xlink"/><text x="258.49" y="246" dy="8.052" fill="#101010" font-size="24" font-family="PingFang SC, Microsoft YaHei, Open Sans, sans-serif">的</text><use x="305.419" y="208" xlink:href="#g" xmlns:xlink="http://www.w3.org/1999/xlink"/><text x="293.419" y="246" dy="8.052" fill="#101010" font-size="24" font-family="PingFang SC, Microsoft YaHei, Open Sans, sans-serif">声</text><use x="340.348" y="208" xlink:href="#g" xmlns:xlink="http://www.w3.org/1999/xlink"/><text x="328.348" y="246" dy="8.052" fill="#101010" font-size="24" font-family="PingFang SC, Microsoft YaHei, Open Sans, sans-serif">音</text><text x="352.348" y="246" dy="8.052" fill="#101010" font-size="24" font-family="PingFang SC, Microsoft YaHei, Open Sans, sans-serif">，</text><use x="375.278" y="208" xlink:href="#i" xmlns:xlink="http://www.w3.org/1999/xlink"/><use x="407.878" y="208" xlink:href="#h" xmlns:xlink="http://www.w3.org/1999/xlink"/><use x="440.479" y="208" xlink:href="#f" xmlns:xlink="http://www.w3.org/1999/xlink"/><text x="428.479" y="246" dy="8.052" fill="#101010" font-size="24" font-family="PingFang SC, Microsoft YaHei, Open Sans, sans-serif">不</text><use x="463.765" y="208" xlink:href="#f" xmlns:xlink="http://www.w3.org/1999/xlink"/><text x="451.765" y="246" dy="8.052" fill="#101010" font-size="24" font-family="PingFang SC, Microsoft YaHei, Open Sans, sans-serif">要</text><use x="498.694" y="208" xlink:href="#f" xmlns:xlink="http://www.w3.org/1999/xlink"/><text x="486.694" y="246" dy="8.052" fill="#101010" font-size="24" font-family="PingFang SC, Microsoft YaHei, Open Sans, sans-serif">再</text><use x="521.98" y="208" xlink:href="#f" xmlns:xlink="http://www.w3.org/1999/xlink"/><text x="509.98" y="246" dy="8.052" fill="#101010" font-size="24" font-family="PingFang SC, Microsoft YaHei, Open Sans, sans-serif">那</text><use x="556.909" y="208" xlink:href="#f" xmlns:xlink="http://www.w3.org/1999/xlink"/><text x="544.909" y="246" dy="8.052" fill="#101010" font-size="24" font-family="PingFang SC, Microsoft YaHei, Open Sans, sans-serif">样</text><use x="591.839" y="208" xlink:href="#g" xmlns:xlink="http://www.w3.org/1999/xlink"/><text x="579.839" y="246" dy="8.052" fill="#101010" font-size="24" font-family="PingFang SC, Microsoft YaHei, Open Sans, sans-serif">心</text><use x="615.125" y="208" xlink:href="#f" xmlns:xlink="http://www.w3.org/1999/xlink"/><use x="647.725" y="208" xlink:href="#h" xmlns:xlink="http://www.w3.org/1999/xlink"/><use x="680.326" y="208" xlink:href="#e" xmlns:xlink="http://www.w3.org/1999/xlink"/><text x="668.326" y="246" dy="8.052" fill="#101010" font-size="24" font-family="PingFang SC, Microsoft YaHei, Open Sans, sans-serif">硬</text><text x="692.326" y="246" dy="8.052" fill="#101010" font-size="24" font-family="PingFang SC, Microsoft YaHei, Open Sans, sans-serif">！</text><use x="715.255" y="208" xlink:href="#i" xmlns:xlink="http://www.w3.org/1999/xlink"/><use x="750.184" y="208" xlink:href="#i" xmlns:xlink="http://www.w3.org/1999/xlink"/><use x="785.113" y="208" xlink:href="#i" xmlns:xlink="http://www.w3.org/1999/xlink"/><use x="827" y="208" xlink:href="#h" xmlns:xlink="http://www.w3.org/1999/xlink"/><use x="19" y="320" xlink:href="#e" xmlns:xlink="http://www.w3.org/1999/xlink"/><text x="7" y="358" dy="8.052" fill="#101010" font-size="24" font-family="PingFang SC, Microsoft YaHei, Open Sans, sans-serif">你</text><use x="53.929" y="320" xlink:href="#e" xmlns:xlink="http://www.w3.org/1999/xlink"/><text x="41.929" y="358" dy="8.052" fill="#101010" font-size="24" font-family="PingFang SC, Microsoft YaHei, Open Sans, sans-serif">们</text><use x="88.858" y="320" xlink:href="#f" xmlns:xlink="http://www.w3.org/1999/xlink"/><text x="76.858" y="358" dy="8.052" fill="#101010" font-size="24" font-family="PingFang SC, Microsoft YaHei, Open Sans, sans-serif">要</text><use x="112.144" y="320" xlink:href="#g" xmlns:xlink="http://www.w3.org/1999/xlink"/><text x="100.144" y="358" dy="8.052" fill="#101010" font-size="24" font-family="PingFang SC, Microsoft YaHei, Open Sans, sans-serif">听</text><use x="147.074" y="320" xlink:href="#f" xmlns:xlink="http://www.w3.org/1999/xlink"/><use x="182.003" y="320" xlink:href="#e" xmlns:xlink="http://www.w3.org/1999/xlink"/><text x="170.003" y="358" dy="8.052" fill="#101010" font-size="24" font-family="PingFang SC, Microsoft YaHei, Open Sans, sans-serif">从</text><use x="214.603" y="320" xlink:href="#h" xmlns:xlink="http://www.w3.org/1999/xlink"/><use x="247.204" y="320" xlink:href="#g" xmlns:xlink="http://www.w3.org/1999/xlink"/><text x="235.204" y="358" dy="8.052" fill="#101010" font-size="24" font-family="PingFang SC, Microsoft YaHei, Open Sans, sans-serif">他</text><use x="270.49" y="320" xlink:href="#e" xmlns:xlink="http://www.w3.org/1999/xlink"/><text x="258.49" y="358" dy="8.052" fill="#101010" font-size="24" font-family="PingFang SC, Microsoft YaHei, Open Sans, sans-serif">的</text><use x="305.419" y="320" xlink:href="#g" xmlns:xlink="http://www.w3.org/1999/xlink"/><text x="293.419" y="358" dy="8.052" fill="#101010" font-size="24" font-family="PingFang SC, Microsoft YaHei, Open Sans, sans-serif">声</text><use x="340.348" y="320" xlink:href="#g" xmlns:xlink="http://www.w3.org/1999/xlink"/><text x="328.348" y="358" dy="8.052" fill="#101010" font-size="24" font-family="PingFang SC, Microsoft YaHei, Open Sans, sans-serif">音</text><text x="352.348" y="358" dy="8.052" fill="#101010" font-size="24" font-family="PingFang SC, Microsoft YaHei, Open Sans, sans-serif">，</text><use x="375.278" y="320" xlink:href="#i" xmlns:xlink="http://www.w3.org/1999/xlink"/><use x="407.878" y="320" xlink:href="#h" xmlns:xlink="http://www.w3.org/1999/xlink"/><use x="440.479" y="320" xlink:href="#f" xmlns:xlink="http://www.w3.org/1999/xlink"/><text x="428.479" y="358" dy="8.052" fill="#101010" font-size="24" font-family="PingFang SC, Microsoft YaHei, Open Sans, sans-serif">不</text><use x="463.765" y="320" xlink:href="#f" xmlns:xlink="http://www.w3.org/1999/xlink"/><text x="451.765" y="358" dy="8.052" fill="#101010" font-size="24" font-family="PingFang SC, Microsoft YaHei, Open Sans, sans-serif">要</text><use x="498.694" y="320" xlink:href="#f" xmlns:xlink="http://www.w3.org/1999/xlink"/><text x="486.694" y="358" dy="8.052" fill="#101010" font-size="24" font-family="PingFang SC, Microsoft YaHei, Open Sans, sans-serif">再</text><use x="521.98" y="320" xlink:href="#f" xmlns:xlink="http://www.w3.org/1999/xlink"/><text x="509.98" y="358" dy="8.052" fill="#101010" font-size="24" font-family="PingFang SC, Microsoft YaHei, Open Sans, sans-serif">那</text><use x="556.909" y="320" xlink:href="#f" xmlns:xlink="http://www.w3.org/1999/xlink"/><text x="544.909" y="358" dy="8.052" fill="#101010" font-size="24" font-family="PingFang SC, Microsoft YaHei, Open Sans, sans-serif">样</text><use x="591.839" y="320" xlink:href="#g" xmlns:xlink="http://www.w3.org/1999/xlink"/><text x="579.839" y="358" dy="8.052" fill="#101010" font-size="24" font-family="PingFang SC, Microsoft YaHei, Open Sans, sans-serif">心</text><use x="615.125" y="320" xlink:href="#f" xmlns:xlink="http://www.w3.org/1999/xlink"/><use x="647.725" y="320" xlink:href="#h" xmlns:xlink="http://www.w3.org/1999/xlink"/><use x="680.326" y="320" xlink:href="#e" xmlns:xlink="http://www.w3.org/1999/xlink"/><text x="668.326" y="358" dy="8.052" fill="#101010" font-size="24" font-family="PingFang SC, Microsoft YaHei, Open Sans, sans-serif">硬</text><text x="692.326" y="358" dy="8.052" fill="#101010" font-size="24" font-family="PingFang SC, Microsoft YaHei, Open Sans, sans-serif">！</text><use x="715.255" y="320" xlink:href="#i" xmlns:xlink="http://www.w3.org/1999/xlink"/><use x="750.184" y="320" xlink:href="#i" xmlns:xlink="http://www.w3.org/1999/xlink"/><use x="785.113" y="320" xlink:href="#i" xmlns:xlink="http://www.w3.org/1999/xlink"/><use x="827" y="320" xlink:href="#h" xmlns:xlink="http://www.w3.org/1999/xlink"/><path data-type="jianshixian" stroke-width="2" stroke="#1b1b1b" d="M13 221h12M82.858 221h35.286M141.074 221h12M241.204 221h35.286M434.479 221h35.286M492.694 221h35.286M585.839 221h35.286M13 333h12M82.858 333h35.286M141.074 333h12M241.204 333h35.286M434.479 333h35.286M492.694 333h35.286M585.839 333h35.286"/><use x="19" y="213" xlink:href="#j" xmlns:xlink="http://www.w3.org/1999/xlink"/><use x="53.929" y="209" xlink:href="#j" xmlns:xlink="http://www.w3.org/1999/xlink"/><use x="88.858" y="213" xlink:href="#j" xmlns:xlink="http://www.w3.org/1999/xlink"/><use x="147.074" y="213" xlink:href="#j" xmlns:xlink="http://www.w3.org/1999/xlink"/><use x="182.003" y="209" xlink:href="#j" xmlns:xlink="http://www.w3.org/1999/xlink"/><use x="270.49" y="213" xlink:href="#j" xmlns:xlink="http://www.w3.org/1999/xlink"/><use x="440.479" y="213" xlink:href="#j" xmlns:xlink="http://www.w3.org/1999/xlink"/><use x="463.765" y="213" xlink:href="#j" xmlns:xlink="http://www.w3.org/1999/xlink"/><use x="498.694" y="213" xlink:href="#j" xmlns:xlink="http://www.w3.org/1999/xlink"/><use x="521.98" y="213" xlink:href="#j" xmlns:xlink="http://www.w3.org/1999/xlink"/><use x="556.909" y="209" xlink:href="#j" xmlns:xlink="http://www.w3.org/1999/xlink"/><use x="615.125" y="213" xlink:href="#j" xmlns:xlink="http://www.w3.org/1999/xlink"/><use x="680.326" y="209" xlink:href="#j" xmlns:xlink="http://www.w3.org/1999/xlink"/><use x="19" y="325" xlink:href="#j" xmlns:xlink="http://www.w3.org/1999/xlink"/><use x="53.929" y="321" xlink:href="#j" xmlns:xlink="http://www.w3.org/1999/xlink"/><use x="88.858" y="325" xlink:href="#j" xmlns:xlink="http://www.w3.org/1999/xlink"/><use x="147.074" y="325" xlink:href="#j" xmlns:xlink="http://www.w3.org/1999/xlink"/><use x="182.003" y="321" xlink:href="#j" xmlns:xlink="http://www.w3.org/1999/xlink"/><use x="270.49" y="325" xlink:href="#j" xmlns:xlink="http://www.w3.org/1999/xlink"/><use x="440.479" y="325" xlink:href="#j" xmlns:xlink="http://www.w3.org/1999/xlink"/><use x="463.765" y="325" xlink:href="#j" xmlns:xlink="http://www.w3.org/1999/xlink"/><use x="498.694" y="325" xlink:href="#j" xmlns:xlink="http://www.w3.org/1999/xlink"/><use x="521.98" y="325" xlink:href="#j" xmlns:xlink="http://www.w3.org/1999/xlink"/><use x="556.909" y="321" xlink:href="#j" xmlns:xlink="http://www.w3.org/1999/xlink"/><use x="615.125" y="325" xlink:href="#j" xmlns:xlink="http://www.w3.org/1999/xlink"/><use x="680.326" y="321" xlink:href="#j" xmlns:xlink="http://www.w3.org/1999/xlink"/><path d="M113.144 192c9.48-10 23.45-10 32.93 0m0 0c-9.48-9-23.45-9-32.93 0M592.839 192c5.985-10 15.3-10 21.286 0m0 0c-5.986-9-15.3-9-21.286 0M113.144 304c9.48-10 23.45-10 32.93 0m0 0c-9.48-9-23.45-9-32.93 0M592.839 304c5.985-10 15.3-10 21.286 0m0 0c-5.986-9-15.3-9-21.286 0" stroke-width=".5" stroke="#1b1b1b"/></svg>