<svg width="840" height="630" xmlns="http://www.w3.org/2000/svg"><rect height="100%" width="100%" fill="#fff"/><defs><g id="a" fill="#1b1b1b"><path d="M63.9 57.812h-8.819v-1.7h3.455V44.355L55 45.4v-1.802L60.466 42v14.112H63.9v1.7z" transform="translate(-50 -50)"/><path stroke-width="33" d="M68 46.859h11v2H68zM68 51.325h11v2H68z" transform="translate(-50 -50)"/></g><path d="M54 43.936h-6.005v5.251h5.573v1.792h-5.573v6.898H46V42.123h8v1.813z" transform="translate(-50 -50)" id="b"/><path fill="#1b1b1b" stroke-width="33" stroke-linejoin="null" stroke-linecap="null" d="M51 49h21v2H51z" transform="translate(-50 -50)" id="c"/><path d="M53.954 46.549a3.758 3.758 0 0 1-.314 1.493 3.484 3.484 0 0 1-.393.68c-.157.214-.34.4-.55.561.308.16.58.365.817.613.238.248.437.525.598.833.16.307.283.635.366.985.084.349.126.705.126 1.068 0 .643-.119 1.233-.356 1.77s-.562 1-.974 1.383c-.413.384-.901.683-1.467.896s-1.174.32-1.823.32a4.981 4.981 0 0 1-1.802-.315 4.257 4.257 0 0 1-1.419-.885 4.21 4.21 0 0 1-.958-1.383 5.13 5.13 0 0 1-.409-1.807h2.566c0 .314.044.611.131.89.088.28.217.524.388.734.171.21.382.375.634.497.251.123.541.184.87.184.314 0 .6-.056.858-.168.259-.112.479-.267.66-.466.182-.2.322-.437.42-.713.097-.275.146-.577.146-.906 0-.335-.05-.642-.152-.922a1.93 1.93 0 0 0-.45-.717 2.078 2.078 0 0 0-.734-.467 2.81 2.81 0 0 0-1.01-.167h-1.048v-2.085h.796c.656 0 1.147-.173 1.472-.519.325-.345.487-.815.487-1.409 0-.524-.136-.92-.409-1.189-.272-.269-.66-.403-1.162-.403-1.041 0-1.635.67-1.781 2.01h-2.536c.077-.67.237-1.26.482-1.77s.555-.937.933-1.283c.377-.346.81-.606 1.299-.78a4.638 4.638 0 0 1 1.571-.263c.629 0 1.196.091 1.703.273.506.181.939.436 1.299.765.36.328.637.717.833 1.168.195.451.292.949.292 1.494z" transform="translate(-50 -50)" id="d"/><path d="M54.966 54.053h-1.772v3.135h-2.551v-3.135h-5.61v-2.021l6.161-9.22h2v8.928h1.773v2.313zm-4.323-2.313V47.31l-2.81 4.431h2.81z" transform="translate(-50 -50)" id="e"/><g id="f"><path fill="#fff" stroke-width="0" d="M45.05 35.85h9.9v28.4h-9.9z" transform="translate(-50 -50)"/><path stroke-width="null" fill="#1b1b1b" d="M49.25 35.5h1.5v29h-1.5z" transform="translate(-50 -50)"/></g><g id="g"><path stroke-width="0" fill="#fff" d="M44.45 41.05h11.1v17.9h-11.1z" transform="translate(-50 -50)"/><path d="M51.674 58.969h-3.22v-12.76c-.952.344-2.27.516-3.954.516v-2.704c2.644 0 4.157-.996 4.538-2.99h2.636v17.937z" transform="translate(-50 -50)"/></g><g id="h"><path stroke-width="0" fill="#fff" d="M44.45 41.05h11.1v17.9h-11.1z" transform="translate(-50 -50)"/><path stroke-width="null" fill="#1b1b1b" d="M44.5 48.4h11v3.2h-11z" transform="translate(-50 -50)"/></g><g id="i"><path stroke-width="0" fill="#fff" d="M44.45 41.05h11.1v17.9h-11.1z" transform="translate(-50 -50)"/><path d="M55.876 58.92H44.124c0-1.515.314-2.746.944-3.695.345-.505.806-1.06 1.382-1.662a23.24 23.24 0 0 1 2.14-1.94 40.302 40.302 0 0 0 1.909-1.636c.518-.478.935-.928 1.25-1.35.314-.42.54-.835.678-1.242s.206-.847.206-1.317c0-.744-.206-1.323-.618-1.735-.413-.412-1.009-.618-1.789-.618a2.219 2.219 0 0 0-1.695.771 3.255 3.255 0 0 0-.565.95c-.15.378-.244.819-.28 1.324H44.47c.071-.86.257-1.642.559-2.347s.702-1.303 1.203-1.795a5.272 5.272 0 0 1 1.775-1.143c.682-.27 1.436-.406 2.26-.406.887 0 1.677.129 2.373.386.696.257 1.279.611 1.749 1.063.47.452.829.984 1.077 1.596.248.612.372 1.276.372 1.994 0 .665-.089 1.277-.266 1.835a5.85 5.85 0 0 1-.798 1.596c-.336.46-.837 1.037-1.502 1.728-.665.691-1.48 1.44-2.446 2.247-.284.24-.647.56-1.09.964a9.469 9.469 0 0 0-1.304 1.496h7.445v2.937z" transform="translate(-50 -50)"/></g><g id="j"><path stroke-width="0" fill="#fff" d="M44.45 41.05h11.1v17.9h-11.1z" transform="translate(-50 -50)"/><path d="M54.932 45.696a4.687 4.687 0 0 1-.392 1.862c-.13.3-.294.583-.49.849a3.478 3.478 0 0 1-.686.699c.383.2.723.455 1.02.764.295.31.543.656.744 1.039.2.383.353.793.457 1.228.105.436.157.88.157 1.333 0 .801-.148 1.537-.444 2.208s-.702 1.246-1.215 1.724c-.514.48-1.124.852-1.83 1.117s-1.463.399-2.273.399c-.818 0-1.568-.13-2.247-.392a5.309 5.309 0 0 1-1.77-1.104 5.25 5.25 0 0 1-1.195-1.725c-.297-.675-.466-1.426-.51-2.254h3.2c0 .392.055.762.164 1.11.109.35.27.654.483.915.214.262.477.469.79.621.314.152.676.229 1.085.229.392 0 .749-.07 1.072-.21.322-.139.596-.333.823-.58.226-.25.4-.545.523-.89a3.36 3.36 0 0 0 .183-1.13c0-.418-.064-.8-.19-1.15a2.407 2.407 0 0 0-.562-.894 2.592 2.592 0 0 0-.914-.582 3.505 3.505 0 0 0-1.261-.209h-1.307v-2.6h.993c.819 0 1.43-.216 1.836-.647.405-.43.607-1.017.607-1.757 0-.653-.17-1.147-.51-1.483-.339-.335-.822-.503-1.45-.503-1.297 0-2.038.836-2.22 2.508H44.44c.096-.836.296-1.572.601-2.208a5.183 5.183 0 0 1 1.163-1.6 4.718 4.718 0 0 1 1.62-.974 5.784 5.784 0 0 1 1.96-.327c.784 0 1.492.113 2.124.34a4.748 4.748 0 0 1 1.62.954c.448.41.795.895 1.039 1.457.243.563.365 1.183.365 1.863z" transform="translate(-50 -50)"/></g><g id="k"><path stroke-width="0" fill="#fff" d="M44.45 41.05h11.1v17.9h-11.1z" transform="translate(-50 -50)"/><path d="M48.01 46.989c.65-.307 1.432-.461 2.345-.461.72 0 1.413.132 2.076.395.663.264 1.249.652 1.76 1.166.509.514.913 1.151 1.211 1.91.299.76.448 1.637.448 2.63 0 .878-.142 1.697-.428 2.457s-.687 1.418-1.206 1.976-1.148.995-1.89 1.312c-.743.316-1.566.474-2.47.474a6.347 6.347 0 0 1-2.083-.336 4.97 4.97 0 0 1-1.732-1.021c-.506-.457-.925-1.028-1.259-1.713s-.545-1.49-.632-2.412h3.188c.053.483.154.905.304 1.265.149.36.336.66.56.896.224.237.476.413.757.527.281.115.58.172.896.172.422 0 .804-.088 1.147-.264.342-.176.637-.42.883-.731.246-.312.437-.674.573-1.087s.204-.856.204-1.33c0-.58-.07-1.09-.21-1.53a3.168 3.168 0 0 0-.587-1.1 2.492 2.492 0 0 0-.896-.672 2.815 2.815 0 0 0-1.153-.23c-.975 0-1.858.443-2.649 1.33H44.73l.764-9.46h9.593v2.899h-6.852l-.225 2.938z" transform="translate(-50 -50)"/></g><g id="l"><path stroke-width="0" fill="#fff" d="M44.45 41.05h11.1v17.9h-11.1z" transform="translate(-50 -50)"/><path d="M56.19 55.052h-2.21v3.907H50.8v-3.907h-6.99v-2.52l7.679-11.49h2.492v11.127h2.21v2.883zm-5.389-2.883v-5.524l-3.503 5.524h3.503z" transform="translate(-50 -50)"/></g><g id="m"><path fill="#fff" stroke-width="0" d="M42.45 35.65h11.7v28.4h-11.7z" transform="translate(-50 -50)"/><path stroke-width="null" fill="#1b1b1b" d="M45.65 35.5h1v29h-1zM48.35 35.5h2.4v29h-2.4z" transform="translate(-50 -50)"/></g><path stroke="#1b1b1b" d="M.75.75s-8.394.57-12.219 8.884" stroke-linecap="round" stroke-linejoin="null" stroke-width="1.2" fill="none" id="n"/><path stroke="#1b1b1b" d="M.75.75s7.642.57 11.124 8.884" stroke-linecap="round" stroke-linejoin="null" stroke-width="1.2" fill="none" id="o"/></defs><text x="420" y="46" dy="35.091" text-anchor="middle" fill="#1b1b1b" font-size="42" font-family="PingFang SC, Microsoft YaHei, Open Sans, sans-serif" font-weight="700">咏六五</text><use x="16" y="118" xlink:href="#a" xmlns:xlink="http://www.w3.org/1999/xlink"/><use x="56" y="118" xlink:href="#b" xmlns:xlink="http://www.w3.org/1999/xlink"/><use x="66" y="118" xlink:href="#c" xmlns:xlink="http://www.w3.org/1999/xlink"/><use x="76" y="106" xlink:href="#d" xmlns:xlink="http://www.w3.org/1999/xlink"/><use x="76" y="130" xlink:href="#e" fill="#414141" xmlns:xlink="http://www.w3.org/1999/xlink"/><text x="16" y="159" dy="5.368" fill="#1b1b1b" font-size="16" font-family="PingFang SC, Microsoft YaHei, Open Sans, sans-serif">欢庆、悠扬</text><text x="824" y="168" dy="-2.632" text-anchor="end" fill="#1b1b1b" font-size="16" font-family="PingFang SC, Microsoft YaHei, Open Sans, sans-serif">朱健仁 曲</text><use x="19" y="208" xlink:href="#f" xmlns:xlink="http://www.w3.org/1999/xlink"/><use x="51.235" y="208" xlink:href="#g" xmlns:xlink="http://www.w3.org/1999/xlink"/><text x="39.235" y="246" dy="8.052" fill="#101010" font-size="24" font-family="PingFang SC, Microsoft YaHei, Open Sans, sans-serif">普</text><use x="85.773" y="208" xlink:href="#h" xmlns:xlink="http://www.w3.org/1999/xlink"/><use x="120.311" y="208" xlink:href="#i" xmlns:xlink="http://www.w3.org/1999/xlink"/><text x="108.311" y="246" dy="8.052" fill="#101010" font-size="24" font-family="PingFang SC, Microsoft YaHei, Open Sans, sans-serif">世</text><use x="152.546" y="208" xlink:href="#f" xmlns:xlink="http://www.w3.org/1999/xlink"/><use x="184.782" y="208" xlink:href="#j" xmlns:xlink="http://www.w3.org/1999/xlink"/><text x="172.782" y="246" dy="8.052" fill="#101010" font-size="24" font-family="PingFang SC, Microsoft YaHei, Open Sans, sans-serif">万</text><use x="219.319" y="208" xlink:href="#h" xmlns:xlink="http://www.w3.org/1999/xlink"/><use x="253.857" y="208" xlink:href="#i" xmlns:xlink="http://www.w3.org/1999/xlink"/><text x="241.857" y="246" dy="8.052" fill="#101010" font-size="24" font-family="PingFang SC, Microsoft YaHei, Open Sans, sans-serif">民</text><text x="265.857" y="246" dy="8.052" fill="#101010" font-size="24" font-family="PingFang SC, Microsoft YaHei, Open Sans, sans-serif">，</text><use x="286.092" y="208" xlink:href="#f" xmlns:xlink="http://www.w3.org/1999/xlink"/><use x="318.328" y="208" xlink:href="#g" xmlns:xlink="http://www.w3.org/1999/xlink"/><text x="306.328" y="246" dy="8.052" fill="#101010" font-size="24" font-family="PingFang SC, Microsoft YaHei, Open Sans, sans-serif">请</text><use x="352.866" y="208" xlink:href="#i" xmlns:xlink="http://www.w3.org/1999/xlink"/><text x="340.866" y="246" dy="8.052" fill="#101010" font-size="24" font-family="PingFang SC, Microsoft YaHei, Open Sans, sans-serif">向</text><use x="387.403" y="208" xlink:href="#j" xmlns:xlink="http://www.w3.org/1999/xlink"/><text x="375.403" y="246" dy="8.052" fill="#101010" font-size="24" font-family="PingFang SC, Microsoft YaHei, Open Sans, sans-serif">天</text><use x="419.639" y="208" xlink:href="#f" xmlns:xlink="http://www.w3.org/1999/xlink"/><use x="451.874" y="208" xlink:href="#g" xmlns:xlink="http://www.w3.org/1999/xlink"/><text x="439.874" y="246" dy="8.052" fill="#101010" font-size="24" font-family="PingFang SC, Microsoft YaHei, Open Sans, sans-serif">主</text><use x="486.412" y="208" xlink:href="#h" xmlns:xlink="http://www.w3.org/1999/xlink"/><use x="520.95" y="208" xlink:href="#k" xmlns:xlink="http://www.w3.org/1999/xlink"/><text x="508.95" y="246" dy="8.052" fill="#101010" font-size="24" font-family="PingFang SC, Microsoft YaHei, Open Sans, sans-serif">欢</text><use x="553.185" y="208" xlink:href="#f" xmlns:xlink="http://www.w3.org/1999/xlink"/><use x="585.42" y="208" xlink:href="#k" xmlns:xlink="http://www.w3.org/1999/xlink"/><text x="573.42" y="246" dy="8.052" fill="#101010" font-size="24" font-family="PingFang SC, Microsoft YaHei, Open Sans, sans-serif">呼</text><text x="597.42" y="246" dy="8.052" fill="#101010" font-size="24" font-family="PingFang SC, Microsoft YaHei, Open Sans, sans-serif">！</text><use x="619.958" y="208" xlink:href="#h" xmlns:xlink="http://www.w3.org/1999/xlink"/><use x="654.496" y="208" xlink:href="#h" xmlns:xlink="http://www.w3.org/1999/xlink"/><use x="686.731" y="208" xlink:href="#f" xmlns:xlink="http://www.w3.org/1999/xlink"/><use x="718.966" y="208" xlink:href="#k" xmlns:xlink="http://www.w3.org/1999/xlink"/><use x="753.504" y="208" xlink:href="#h" xmlns:xlink="http://www.w3.org/1999/xlink"/><use x="788.042" y="208" xlink:href="#h" xmlns:xlink="http://www.w3.org/1999/xlink"/><use x="827" y="208" xlink:href="#f" xmlns:xlink="http://www.w3.org/1999/xlink"/><use x="19" y="320" xlink:href="#f" xmlns:xlink="http://www.w3.org/1999/xlink"/><use x="51.235" y="320" xlink:href="#i" xmlns:xlink="http://www.w3.org/1999/xlink"/><text x="39.235" y="358" dy="8.052" fill="#101010" font-size="24" font-family="PingFang SC, Microsoft YaHei, Open Sans, sans-serif">普</text><use x="85.773" y="320" xlink:href="#h" xmlns:xlink="http://www.w3.org/1999/xlink"/><use x="120.311" y="320" xlink:href="#j" xmlns:xlink="http://www.w3.org/1999/xlink"/><text x="108.311" y="358" dy="8.052" fill="#101010" font-size="24" font-family="PingFang SC, Microsoft YaHei, Open Sans, sans-serif">世</text><use x="152.546" y="320" xlink:href="#f" xmlns:xlink="http://www.w3.org/1999/xlink"/><use x="184.782" y="320" xlink:href="#l" xmlns:xlink="http://www.w3.org/1999/xlink"/><text x="172.782" y="358" dy="8.052" fill="#101010" font-size="24" font-family="PingFang SC, Microsoft YaHei, Open Sans, sans-serif">万</text><use x="219.319" y="320" xlink:href="#j" xmlns:xlink="http://www.w3.org/1999/xlink"/><use x="253.857" y="320" xlink:href="#i" xmlns:xlink="http://www.w3.org/1999/xlink"/><text x="241.857" y="358" dy="8.052" fill="#101010" font-size="24" font-family="PingFang SC, Microsoft YaHei, Open Sans, sans-serif">民</text><text x="265.857" y="358" dy="8.052" fill="#101010" font-size="24" font-family="PingFang SC, Microsoft YaHei, Open Sans, sans-serif">，</text><use x="286.092" y="320" xlink:href="#f" xmlns:xlink="http://www.w3.org/1999/xlink"/><use x="318.328" y="320" xlink:href="#i" xmlns:xlink="http://www.w3.org/1999/xlink"/><text x="306.328" y="358" dy="8.052" fill="#101010" font-size="24" font-family="PingFang SC, Microsoft YaHei, Open Sans, sans-serif">请</text><use x="352.866" y="320" xlink:href="#j" xmlns:xlink="http://www.w3.org/1999/xlink"/><text x="340.866" y="358" dy="8.052" fill="#101010" font-size="24" font-family="PingFang SC, Microsoft YaHei, Open Sans, sans-serif">向</text><use x="387.403" y="320" xlink:href="#l" xmlns:xlink="http://www.w3.org/1999/xlink"/><text x="375.403" y="358" dy="8.052" fill="#101010" font-size="24" font-family="PingFang SC, Microsoft YaHei, Open Sans, sans-serif">天</text><use x="419.639" y="320" xlink:href="#f" xmlns:xlink="http://www.w3.org/1999/xlink"/><use x="451.874" y="320" xlink:href="#i" xmlns:xlink="http://www.w3.org/1999/xlink"/><text x="439.874" y="358" dy="8.052" fill="#101010" font-size="24" font-family="PingFang SC, Microsoft YaHei, Open Sans, sans-serif">主</text><use x="486.412" y="320" xlink:href="#h" xmlns:xlink="http://www.w3.org/1999/xlink"/><use x="520.95" y="320" xlink:href="#g" xmlns:xlink="http://www.w3.org/1999/xlink"/><text x="508.95" y="358" dy="8.052" fill="#101010" font-size="24" font-family="PingFang SC, Microsoft YaHei, Open Sans, sans-serif">欢</text><use x="553.185" y="320" xlink:href="#f" xmlns:xlink="http://www.w3.org/1999/xlink"/><use x="585.42" y="320" xlink:href="#g" xmlns:xlink="http://www.w3.org/1999/xlink"/><text x="573.42" y="358" dy="8.052" fill="#101010" font-size="24" font-family="PingFang SC, Microsoft YaHei, Open Sans, sans-serif">呼</text><text x="597.42" y="358" dy="8.052" fill="#101010" font-size="24" font-family="PingFang SC, Microsoft YaHei, Open Sans, sans-serif">！</text><use x="619.958" y="320" xlink:href="#h" xmlns:xlink="http://www.w3.org/1999/xlink"/><use x="654.496" y="320" xlink:href="#h" xmlns:xlink="http://www.w3.org/1999/xlink"/><use x="686.731" y="320" xlink:href="#f" xmlns:xlink="http://www.w3.org/1999/xlink"/><use x="718.966" y="320" xlink:href="#g" xmlns:xlink="http://www.w3.org/1999/xlink"/><use x="753.504" y="320" xlink:href="#h" xmlns:xlink="http://www.w3.org/1999/xlink"/><use x="788.042" y="320" xlink:href="#h" xmlns:xlink="http://www.w3.org/1999/xlink"/><use x="827" y="320" xlink:href="#m" xmlns:xlink="http://www.w3.org/1999/xlink"/><use x="597.42" y="182.05" xlink:href="#n" xmlns:xlink="http://www.w3.org/1999/xlink"/><use x="706.966" y="182.05" xlink:href="#o" xmlns:xlink="http://www.w3.org/1999/xlink"/><path stroke-width="1.2" stroke="#1b1b1b" fill="none" d="M598.22 182.8h109.746"/><path d="M185.782 304c9.36-10 23.176-10 32.537 0m0 0c-9.361-9-23.176-9-32.537 0" stroke-width=".5" stroke="#1b1b1b"/><use x="597.42" y="294.05" xlink:href="#n" xmlns:xlink="http://www.w3.org/1999/xlink"/><use x="706.966" y="294.05" xlink:href="#o" xmlns:xlink="http://www.w3.org/1999/xlink"/><path stroke-width="1.2" stroke="#1b1b1b" fill="none" d="M598.22 294.8h109.746"/></svg>