<svg xmlns="http://www.w3.org/2000/svg" width="1200" height="675"><rect width="100%" height="100%" fill="#fff"/><defs><g id="a" fill="#1b1b1b"><path d="M13.9 7.812H5.081v-1.7h3.455V-5.645L5-4.6v-1.802L10.466-8V6.112H13.9z"/><path stroke-width="33" d="M18-3.141h11v2H18zM18 1.325h11v2H18z"/></g><g id="e"><path fill="#fff" stroke-width="0" d="M-4.95-14.15h9.9v28.4h-9.9z"/><path fill="#1b1b1b" stroke-width="null" d="M-.75-14.5h1.5v29h-1.5z"/></g><g id="f"><path fill="#fff" stroke-width="0" d="M-5.55-8.95h11.1v17.9h-11.1z"/><path d="M1.674 8.969h-3.22v-12.76q-1.428.517-3.954.517V-5.98q3.966 0 4.538-2.99h2.636z"/></g><g id="g"><path fill="#fff" stroke-width="0" d="M-5.55-8.95h11.1v17.9h-11.1z"/><path fill="#1b1b1b" stroke-width="null" d="M-5.5-1.6h11v3.2h-11z"/></g><g id="h"><path fill="#fff" stroke-width="0" d="M-5.55-8.95h11.1v17.9h-11.1z"/><path d="M5.876 8.92H-5.876q0-2.272.944-3.695.518-.758 1.382-1.662a23 23 0 0 1 2.14-1.94A40 40 0 0 0 .5-.013q.777-.717 1.25-1.35.471-.63.678-1.242c.207-.612.206-.847.206-1.317q0-1.116-.618-1.735-.62-.618-1.789-.618-.479 0-.917.193a2.2 2.2 0 0 0-.778.578 3.3 3.3 0 0 0-.565.95q-.226.567-.28 1.324H-5.53q.106-1.29.559-2.347c.453-1.057.702-1.303 1.203-1.795a5.3 5.3 0 0 1 1.775-1.143q1.023-.405 2.26-.406 1.33 0 2.373.386 1.044.385 1.749 1.063.705.679 1.077 1.596t.372 1.994q0 .998-.266 1.835a5.9 5.9 0 0 1-.798 1.596q-.504.69-1.502 1.728Q2.274 2.314.825 3.524q-.426.359-1.09.964A9.5 9.5 0 0 0-1.57 5.984h7.445z"/></g><g id="i"><path fill="#fff" stroke-width="0" d="M-5.55-8.95h11.1v17.9h-11.1z"/><path d="M5.88-6.864-.292 8.953h-3.527L2.313-5.968h-8.194v-2.985H5.881z"/></g><g id="j"><path fill="#fff" stroke-width="0" d="M-5.55-8.95h11.1v17.9h-11.1z"/><path d="M-1.99-3.011q.975-.46 2.345-.461 1.08 0 2.076.395.994.395 1.76 1.166.764.771 1.211 1.91.448 1.14.448 2.63 0 1.317-.428 2.457c-.428 1.14-.687 1.418-1.206 1.976s-1.148.995-1.89 1.312q-1.114.474-2.47.474a6.4 6.4 0 0 1-2.083-.336A5 5 0 0 1-3.959 7.49q-.759-.686-1.259-1.713c-.5-1.027-.545-1.49-.632-2.412h3.188q.08.725.304 1.265.224.541.56.896.336.356.757.527.422.172.896.172.633 0 1.147-.264t.883-.731.573-1.087c.204-.619.204-.856.204-1.33q0-.87-.21-1.53a3.2 3.2 0 0 0-.587-1.1 2.5 2.5 0 0 0-.896-.672 2.8 2.8 0 0 0-1.153-.23q-1.463 0-2.649 1.33H-5.27l.764-9.46h9.593v2.899h-6.852z"/></g><g id="k"><path fill="#fff" stroke-width="0" d="M-5.55-8.95h11.1v17.9h-11.1z"/><path d="M6.19 5.052H3.98V8.96H.8V5.052h-6.99v-2.52l7.679-11.49H3.98V2.168h2.21zM.801 2.17v-5.524L-2.702 2.17z"/></g><g id="l"><path fill="#fff" stroke-width="0" d="M-5.55-8.95h11.1v17.9h-11.1z"/><path d="M.3-6.276q-.533 0-.981.311-.448.312-.799.883-.35.57-.61 1.389c-.26.819-.303 1.155-.39 1.83q.675-.48 1.41-.779A4.1 4.1 0 0 1 .48-2.94q1.195 0 2.155.467.96.468 1.642 1.279.68.81 1.045 1.882.363 1.07.363 2.278c0 1.208-.13 1.566-.389 2.284q-.39 1.078-1.103 1.876c-.713.798-1.05.954-1.72 1.266q-1.006.467-2.24.467-1.414 0-2.518-.571A5.14 5.14 0 0 1-4.14 6.646Q-4.894 5.575-5.29 4.03q-.395-1.545-.395-3.504 0-2.285.383-4.037t1.142-2.94q.759-1.187 1.902-1.798 1.141-.61 2.66-.61.987 0 1.837.311a4.6 4.6 0 0 1 1.519.922q.668.61 1.116 1.538.447.929.63 2.149H2.335Q2.066-6.277.3-6.276M.117-.241q-1.35 0-2.739 1.389.039 1.194.253 2.142.214.947.571 1.61.357.66.864 1.018.506.357 1.13.357.544 0 .98-.246.434-.247.739-.682c.305-.435.36-.627.467-1.012q.163-.578.163-1.24 0-.675-.17-1.279A3.6 3.6 0 0 0 1.89.752a2.5 2.5 0 0 0-.766-.727A1.94 1.94 0 0 0 .118-.241"/></g><g id="m"><path fill="#fff" stroke-width="0" d="M-7.55-14.35h11.7v28.4h-11.7z"/><path fill="#1b1b1b" stroke-width="null" d="M-4.35-14.5h1v29h-1zM-1.65-14.5h2.4v29h-2.4z"/></g><path id="b" fill="#1b1b1b" d="M55.85 42.827q-1.716-.91-4.32-.91-3.37 0-5.375 2.14t-2.005 5.654q0 3.762 2.264 6.067t5.736 2.305q2.232 0 3.7-.641v-2.109q-1.674.93-3.68.93-2.604 0-4.258-1.736t-1.654-4.692q0-2.812 1.54-4.465t4.021-1.654q2.315 0 4.031 1.054z" transform="translate(-50 -50)"/><path id="c" fill="#1b1b1b" stroke-linecap="null" stroke-linejoin="null" stroke-width="33" d="M51 49h21v2H51z" transform="translate(-50 -50)"/><path id="d" d="M54.966 54.053h-1.772v3.135h-2.551v-3.135h-5.61v-2.021l6.161-9.22h2v8.928h1.773zm-4.323-2.313V47.31l-2.81 4.431z" transform="translate(-50 -50)"/><path id="p" fill="#1b1b1b" stroke-width="33" d="M38.58 35.447c.237-.043.625 0 .776.107.043.022.043.259-.022 3.77-.043 2.047-.065 3.727-.065 3.727 0 .021.087-.022.173-.086.452-.302 1.012-.474 1.572-.517.582-.022 1.056.15 1.465.56.41.387.625.904.668 1.464.021.41-.065.776-.259 1.164-.301.581-.732.99-2.025 1.874-.818.56-1.034.732-1.292 1.034-.13.129-.28.28-.323.301a.456.456 0 0 1-.582-.043c-.043-.064-.086-.129-.107-.194-.022-.043-.065-2.348-.13-5.988-.064-3.253-.107-6.16-.129-6.484v-.56l.086-.043a2 2 0 0 1 .194-.086m2.283 7.905a.77.77 0 0 0-.581-.043c-.388.108-.711.453-.84.905-.043.215-.086 2.068-.043 2.779.021.301.021.581.043.646l.021.086.323-.28c.453-.388.905-.84 1.12-1.142s.431-.71.517-1.012a2.33 2.33 0 0 0-.129-1.486c-.107-.216-.237-.367-.43-.453" transform="translate(-50 -50)"/><circle id="n" cx="49.3" cy="36" r="1.9" fill="#1b1b1b" transform="translate(-50 -50)"/><circle id="o" cx="62.35" cy="49.75" r="2.45" fill="#1b1b1b" transform="translate(-50 -50)"/></defs><text x="596.5" y="110" fill="#1b1b1b" dy="35.091" font-family="PingFang SC, Microsoft YaHei, Open Sans, sans-serif" font-size="42" style="font-weight:700" text-anchor="middle">咏一三七</text><use xmlns:xlink="http://www.w3.org/1999/xlink" xlink:href="#a" x="80" y="182"/><use xmlns:xlink="http://www.w3.org/1999/xlink" xlink:href="#b" x="120" y="182" data-diaohao="true"/><use xmlns:xlink="http://www.w3.org/1999/xlink" xlink:href="#c" x="130" y="182"/><use xmlns:xlink="http://www.w3.org/1999/xlink" xlink:href="#d" x="140" y="170"/><use xmlns:xlink="http://www.w3.org/1999/xlink" xlink:href="#d" x="140" y="194" fill="#414141"/><text x="80" y="223" fill="#1b1b1b" dy="5.368" font-family="PingFang SC, Microsoft YaHei, Open Sans, sans-serif" font-size="16">虔敬、悠扬</text><text x="1113" y="232" fill="#1b1b1b" dy="-2.632" font-family="PingFang SC, Microsoft YaHei, Open Sans, sans-serif" font-size="16" text-anchor="end">朱健仁 曲</text><use xmlns:xlink="http://www.w3.org/1999/xlink" xlink:href="#e" x="83" y="272"/><use xmlns:xlink="http://www.w3.org/1999/xlink" xlink:href="#f" x="128.806" y="272"/><text x="116.806" y="310" fill="#101010" dy="8.052" font-family="PingFang SC, Microsoft YaHei, Open Sans, sans-serif" font-size="24">上</text><use xmlns:xlink="http://www.w3.org/1999/xlink" xlink:href="#f" x="177.884" y="272"/><text x="165.884" y="310" fill="#101010" dy="8.052" font-family="PingFang SC, Microsoft YaHei, Open Sans, sans-serif" font-size="24">主</text><text x="189.884" y="310" fill="#101010" dy="8.052" font-family="PingFang SC, Microsoft YaHei, Open Sans, sans-serif" font-size="24">，</text><use xmlns:xlink="http://www.w3.org/1999/xlink" xlink:href="#g" x="226.963" y="272"/><use xmlns:xlink="http://www.w3.org/1999/xlink" xlink:href="#f" x="276.041" y="272"/><text x="264.041" y="310" fill="#101010" dy="8.052" font-family="PingFang SC, Microsoft YaHei, Open Sans, sans-serif" font-size="24">我</text><use xmlns:xlink="http://www.w3.org/1999/xlink" xlink:href="#f" x="308.759" y="272"/><text x="296.759" y="310" fill="#101010" dy="8.052" font-family="PingFang SC, Microsoft YaHei, Open Sans, sans-serif" font-size="24">一</text><use xmlns:xlink="http://www.w3.org/1999/xlink" xlink:href="#e" x="354.566" y="272"/><use xmlns:xlink="http://www.w3.org/1999/xlink" xlink:href="#h" x="400.372" y="272"/><text x="388.372" y="310" fill="#101010" dy="8.052" font-family="PingFang SC, Microsoft YaHei, Open Sans, sans-serif" font-size="24">呼</text><use xmlns:xlink="http://www.w3.org/1999/xlink" xlink:href="#i" x="449.45" y="272"/><text x="437.45" y="310" fill="#101010" dy="8.052" font-family="PingFang SC, Microsoft YaHei, Open Sans, sans-serif" font-size="24">求</text><use xmlns:xlink="http://www.w3.org/1999/xlink" xlink:href="#j" x="498.528" y="272"/><text x="486.528" y="310" fill="#101010" dy="8.052" font-family="PingFang SC, Microsoft YaHei, Open Sans, sans-serif" font-size="24">你</text><text x="510.528" y="310" fill="#101010" dy="8.052" font-family="PingFang SC, Microsoft YaHei, Open Sans, sans-serif" font-size="24">，</text><use xmlns:xlink="http://www.w3.org/1999/xlink" xlink:href="#g" x="547.606" y="272"/><use xmlns:xlink="http://www.w3.org/1999/xlink" xlink:href="#e" x="609.772" y="272"/><use xmlns:xlink="http://www.w3.org/1999/xlink" xlink:href="#k" x="655.578" y="272"/><text x="643.578" y="310" fill="#101010" dy="8.052" font-family="PingFang SC, Microsoft YaHei, Open Sans, sans-serif" font-size="24">你</text><use xmlns:xlink="http://www.w3.org/1999/xlink" xlink:href="#i" x="711.2" y="272"/><text x="699.2" y="310" fill="#101010" dy="8.052" font-family="PingFang SC, Microsoft YaHei, Open Sans, sans-serif" font-size="24">就</text><use xmlns:xlink="http://www.w3.org/1999/xlink" xlink:href="#l" x="766.822" y="272"/><use xmlns:xlink="http://www.w3.org/1999/xlink" xlink:href="#l" x="815.9" y="272"/><text x="803.9" y="310" fill="#101010" dy="8.052" font-family="PingFang SC, Microsoft YaHei, Open Sans, sans-serif" font-size="24">俯</text><use xmlns:xlink="http://www.w3.org/1999/xlink" xlink:href="#e" x="861.706" y="272"/><use xmlns:xlink="http://www.w3.org/1999/xlink" xlink:href="#j" x="907.513" y="272"/><text x="895.513" y="310" fill="#101010" dy="8.052" font-family="PingFang SC, Microsoft YaHei, Open Sans, sans-serif" font-size="24">听</text><text x="919.513" y="310" fill="#101010" dy="8.052" font-family="PingFang SC, Microsoft YaHei, Open Sans, sans-serif" font-size="24">。</text><use xmlns:xlink="http://www.w3.org/1999/xlink" xlink:href="#g" x="956.591" y="272"/><use xmlns:xlink="http://www.w3.org/1999/xlink" xlink:href="#g" x="1005.669" y="272"/><use xmlns:xlink="http://www.w3.org/1999/xlink" xlink:href="#g" x="1054.747" y="272"/><use xmlns:xlink="http://www.w3.org/1999/xlink" xlink:href="#e" x="1116" y="272"/><use xmlns:xlink="http://www.w3.org/1999/xlink" xlink:href="#e" x="83" y="384"/><use xmlns:xlink="http://www.w3.org/1999/xlink" xlink:href="#f" x="128.806" y="384"/><text x="116.806" y="422" fill="#101010" dy="8.052" font-family="PingFang SC, Microsoft YaHei, Open Sans, sans-serif" font-size="24">上</text><use xmlns:xlink="http://www.w3.org/1999/xlink" xlink:href="#f" x="177.884" y="384"/><text x="165.884" y="422" fill="#101010" dy="8.052" font-family="PingFang SC, Microsoft YaHei, Open Sans, sans-serif" font-size="24">主</text><text x="189.884" y="422" fill="#101010" dy="8.052" font-family="PingFang SC, Microsoft YaHei, Open Sans, sans-serif" font-size="24">，</text><use xmlns:xlink="http://www.w3.org/1999/xlink" xlink:href="#g" x="226.963" y="384"/><use xmlns:xlink="http://www.w3.org/1999/xlink" xlink:href="#f" x="276.041" y="384"/><text x="264.041" y="422" fill="#101010" dy="8.052" font-family="PingFang SC, Microsoft YaHei, Open Sans, sans-serif" font-size="24">我</text><use xmlns:xlink="http://www.w3.org/1999/xlink" xlink:href="#f" x="308.759" y="384"/><text x="296.759" y="422" fill="#101010" dy="8.052" font-family="PingFang SC, Microsoft YaHei, Open Sans, sans-serif" font-size="24">一</text><use xmlns:xlink="http://www.w3.org/1999/xlink" xlink:href="#e" x="354.566" y="384"/><use xmlns:xlink="http://www.w3.org/1999/xlink" xlink:href="#h" x="400.372" y="384"/><text x="388.372" y="422" fill="#101010" dy="8.052" font-family="PingFang SC, Microsoft YaHei, Open Sans, sans-serif" font-size="24">呼</text><use xmlns:xlink="http://www.w3.org/1999/xlink" xlink:href="#i" x="449.45" y="384"/><text x="437.45" y="422" fill="#101010" dy="8.052" font-family="PingFang SC, Microsoft YaHei, Open Sans, sans-serif" font-size="24">求</text><use xmlns:xlink="http://www.w3.org/1999/xlink" xlink:href="#j" x="498.528" y="384"/><text x="486.528" y="422" fill="#101010" dy="8.052" font-family="PingFang SC, Microsoft YaHei, Open Sans, sans-serif" font-size="24">你</text><text x="510.528" y="422" fill="#101010" dy="8.052" font-family="PingFang SC, Microsoft YaHei, Open Sans, sans-serif" font-size="24">，</text><use xmlns:xlink="http://www.w3.org/1999/xlink" xlink:href="#g" x="547.606" y="384"/><use xmlns:xlink="http://www.w3.org/1999/xlink" xlink:href="#e" x="609.772" y="384"/><use xmlns:xlink="http://www.w3.org/1999/xlink" xlink:href="#k" x="655.578" y="384"/><text x="643.578" y="422" fill="#101010" dy="8.052" font-family="PingFang SC, Microsoft YaHei, Open Sans, sans-serif" font-size="24">你</text><use xmlns:xlink="http://www.w3.org/1999/xlink" xlink:href="#i" x="711.2" y="384"/><text x="699.2" y="422" fill="#101010" dy="8.052" font-family="PingFang SC, Microsoft YaHei, Open Sans, sans-serif" font-size="24">就</text><use xmlns:xlink="http://www.w3.org/1999/xlink" xlink:href="#l" x="766.822" y="384"/><use xmlns:xlink="http://www.w3.org/1999/xlink" xlink:href="#l" x="815.9" y="384"/><text x="803.9" y="422" fill="#101010" dy="8.052" font-family="PingFang SC, Microsoft YaHei, Open Sans, sans-serif" font-size="24">俯</text><use xmlns:xlink="http://www.w3.org/1999/xlink" xlink:href="#e" x="861.706" y="384"/><use xmlns:xlink="http://www.w3.org/1999/xlink" xlink:href="#j" x="907.513" y="384"/><text x="895.513" y="422" fill="#101010" dy="8.052" font-family="PingFang SC, Microsoft YaHei, Open Sans, sans-serif" font-size="24">听</text><text x="919.513" y="422" fill="#101010" dy="8.052" font-family="PingFang SC, Microsoft YaHei, Open Sans, sans-serif" font-size="24">。</text><use xmlns:xlink="http://www.w3.org/1999/xlink" xlink:href="#g" x="956.591" y="384"/><use xmlns:xlink="http://www.w3.org/1999/xlink" xlink:href="#g" x="1005.669" y="384"/><use xmlns:xlink="http://www.w3.org/1999/xlink" xlink:href="#g" x="1054.747" y="384"/><use xmlns:xlink="http://www.w3.org/1999/xlink" xlink:href="#m" x="1116" y="384"/><path stroke="#1b1b1b" stroke-width="2" d="M270.041 285h44.718M443.45 285h12M270.041 397h44.718M443.45 397h12" data-type="jianshixian"/><use xmlns:xlink="http://www.w3.org/1999/xlink" xlink:href="#n" x="308.759" y="272"/><use xmlns:xlink="http://www.w3.org/1999/xlink" xlink:href="#n" x="400.372" y="272"/><use xmlns:xlink="http://www.w3.org/1999/xlink" xlink:href="#o" x="547.606" y="272"/><use xmlns:xlink="http://www.w3.org/1999/xlink" xlink:href="#p" x="711.2" y="272"/><use xmlns:xlink="http://www.w3.org/1999/xlink" xlink:href="#n" x="308.759" y="384"/><use xmlns:xlink="http://www.w3.org/1999/xlink" xlink:href="#n" x="400.372" y="384"/><use xmlns:xlink="http://www.w3.org/1999/xlink" xlink:href="#o" x="547.606" y="384"/><use xmlns:xlink="http://www.w3.org/1999/xlink" xlink:href="#p" x="711.2" y="384"/><path stroke="#1b1b1b" stroke-width=".5" d="M712.2 256c15.687-10 37.935-10 53.622 0m0 0c-15.687-9-37.935-9-53.622 0M712.2 368c15.687-10 37.935-10 53.622 0m0 0c-15.687-9-37.935-9-53.622 0"/></svg>