<svg width="840" height="630" xmlns="http://www.w3.org/2000/svg"><rect height="100%" width="100%" fill="#fff"/><defs><g id="a" fill="#1b1b1b"><path d="M63.9 57.812h-8.819v-1.7h3.455V44.355L55 45.4v-1.802L60.466 42v14.112H63.9v1.7z" transform="translate(-50 -50)"/><path stroke-width="33" d="M68 46.859h11v2H68zM68 51.325h11v2H68z" transform="translate(-50 -50)"/></g><path d="M54 43.936h-6.005v5.251h5.573v1.792h-5.573v6.898H46V42.123h8v1.813z" transform="translate(-50 -50)" id="b"/><path fill="#1b1b1b" stroke-width="33" stroke-linejoin="null" stroke-linecap="null" d="M51 49h21v2H51z" transform="translate(-50 -50)" id="c"/><path d="M54.966 54.053h-1.772v3.135h-2.551v-3.135h-5.61v-2.021l6.161-9.22h2v8.928h1.773v2.313zm-4.323-2.313V47.31l-2.81 4.431h2.81z" transform="translate(-50 -50)" id="d"/><g id="e"><path stroke-width="0" fill="#fff" d="M44.45 41.05h11.1v17.9h-11.1z" transform="translate(-50 -50)"/><path d="M48.01 46.989c.65-.307 1.432-.461 2.345-.461.72 0 1.413.132 2.076.395.663.264 1.249.652 1.76 1.166.509.514.913 1.151 1.211 1.91.299.76.448 1.637.448 2.63 0 .878-.142 1.697-.428 2.457s-.687 1.418-1.206 1.976-1.148.995-1.89 1.312c-.743.316-1.566.474-2.47.474a6.347 6.347 0 0 1-2.083-.336 4.97 4.97 0 0 1-1.732-1.021c-.506-.457-.925-1.028-1.259-1.713s-.545-1.49-.632-2.412h3.188c.053.483.154.905.304 1.265.149.36.336.66.56.896.224.237.476.413.757.527.281.115.58.172.896.172.422 0 .804-.088 1.147-.264.342-.176.637-.42.883-.731.246-.312.437-.674.573-1.087s.204-.856.204-1.33c0-.58-.07-1.09-.21-1.53a3.168 3.168 0 0 0-.587-1.1 2.492 2.492 0 0 0-.896-.672 2.815 2.815 0 0 0-1.153-.23c-.975 0-1.858.443-2.649 1.33H44.73l.764-9.46h9.593v2.899h-6.852l-.225 2.938z" transform="translate(-50 -50)"/></g><g id="f"><path fill="#fff" stroke-width="0" d="M45.05 35.85h9.9v28.4h-9.9z" transform="translate(-50 -50)"/><path stroke-width="null" fill="#1b1b1b" d="M49.25 35.5h1.5v29h-1.5z" transform="translate(-50 -50)"/></g><g id="g"><path stroke-width="0" fill="#fff" d="M44.45 41.05h11.1v17.9h-11.1z" transform="translate(-50 -50)"/><path d="M51.674 58.969h-3.22v-12.76c-.952.344-2.27.516-3.954.516v-2.704c2.644 0 4.157-.996 4.538-2.99h2.636v17.937z" transform="translate(-50 -50)"/></g><g id="h"><path stroke-width="0" fill="#fff" d="M44.45 41.05h11.1v17.9h-11.1z" transform="translate(-50 -50)"/><path d="M55.876 58.92H44.124c0-1.515.314-2.746.944-3.695.345-.505.806-1.06 1.382-1.662a23.24 23.24 0 0 1 2.14-1.94 40.302 40.302 0 0 0 1.909-1.636c.518-.478.935-.928 1.25-1.35.314-.42.54-.835.678-1.242s.206-.847.206-1.317c0-.744-.206-1.323-.618-1.735-.413-.412-1.009-.618-1.789-.618a2.219 2.219 0 0 0-1.695.771 3.255 3.255 0 0 0-.565.95c-.15.378-.244.819-.28 1.324H44.47c.071-.86.257-1.642.559-2.347s.702-1.303 1.203-1.795a5.272 5.272 0 0 1 1.775-1.143c.682-.27 1.436-.406 2.26-.406.887 0 1.677.129 2.373.386.696.257 1.279.611 1.749 1.063.47.452.829.984 1.077 1.596.248.612.372 1.276.372 1.994 0 .665-.089 1.277-.266 1.835a5.85 5.85 0 0 1-.798 1.596c-.336.46-.837 1.037-1.502 1.728-.665.691-1.48 1.44-2.446 2.247-.284.24-.647.56-1.09.964a9.469 9.469 0 0 0-1.304 1.496h7.445v2.937z" transform="translate(-50 -50)"/></g><g id="i"><path stroke-width="0" fill="#fff" d="M44.45 41.05h11.1v17.9h-11.1z" transform="translate(-50 -50)"/><path d="M54.932 45.696a4.687 4.687 0 0 1-.392 1.862c-.13.3-.294.583-.49.849a3.478 3.478 0 0 1-.686.699c.383.2.723.455 1.02.764.295.31.543.656.744 1.039.2.383.353.793.457 1.228.105.436.157.88.157 1.333 0 .801-.148 1.537-.444 2.208s-.702 1.246-1.215 1.724c-.514.48-1.124.852-1.83 1.117s-1.463.399-2.273.399c-.818 0-1.568-.13-2.247-.392a5.309 5.309 0 0 1-1.77-1.104 5.25 5.25 0 0 1-1.195-1.725c-.297-.675-.466-1.426-.51-2.254h3.2c0 .392.055.762.164 1.11.109.35.27.654.483.915.214.262.477.469.79.621.314.152.676.229 1.085.229.392 0 .749-.07 1.072-.21.322-.139.596-.333.823-.58.226-.25.4-.545.523-.89a3.36 3.36 0 0 0 .183-1.13c0-.418-.064-.8-.19-1.15a2.407 2.407 0 0 0-.562-.894 2.592 2.592 0 0 0-.914-.582 3.505 3.505 0 0 0-1.261-.209h-1.307v-2.6h.993c.819 0 1.43-.216 1.836-.647.405-.43.607-1.017.607-1.757 0-.653-.17-1.147-.51-1.483-.339-.335-.822-.503-1.45-.503-1.297 0-2.038.836-2.22 2.508H44.44c.096-.836.296-1.572.601-2.208a5.183 5.183 0 0 1 1.163-1.6 4.718 4.718 0 0 1 1.62-.974 5.784 5.784 0 0 1 1.96-.327c.784 0 1.492.113 2.124.34a4.748 4.748 0 0 1 1.62.954c.448.41.795.895 1.039 1.457.243.563.365 1.183.365 1.863z" transform="translate(-50 -50)"/></g><g id="j"><path stroke-width="0" fill="#fff" d="M44.45 41.05h11.1v17.9h-11.1z" transform="translate(-50 -50)"/><path stroke-width="null" fill="#1b1b1b" d="M44.5 48.4h11v3.2h-11z" transform="translate(-50 -50)"/></g><g id="k"><path stroke-width="0" fill="#fff" d="M44.45 41.05h11.1v17.9h-11.1z" transform="translate(-50 -50)"/><path d="M56.19 55.052h-2.21v3.907H50.8v-3.907h-6.99v-2.52l7.679-11.49h2.492v11.127h2.21v2.883zm-5.389-2.883v-5.524l-3.503 5.524h3.503z" transform="translate(-50 -50)"/></g><g id="l" fill="#fff"><path stroke-width="0" d="M45.05 35.85h9.9v28.4h-9.9z" transform="translate(-50 -50)"/><path stroke-width="null" d="M49.25 35.5h1.5v29h-1.5z" transform="translate(-50 -50)"/></g><ellipse ry="1.9" rx="1.9" cy="63" cx="49.3" fill="#1b1b1b" id="m" transform="translate(-50 -50)"/></defs><text x="420" y="46" dy="35.091" text-anchor="middle" fill="#1b1b1b" font-size="42" font-family="PingFang SC, Microsoft YaHei, Open Sans, sans-serif" font-weight="700">咏一二一</text><use x="16" y="118" xlink:href="#a" xmlns:xlink="http://www.w3.org/1999/xlink"/><use x="56" y="118" xlink:href="#b" xmlns:xlink="http://www.w3.org/1999/xlink"/><use x="66" y="118" xlink:href="#c" xmlns:xlink="http://www.w3.org/1999/xlink"/><use x="76" y="106" xlink:href="#d" xmlns:xlink="http://www.w3.org/1999/xlink"/><use x="76" y="130" xlink:href="#d" fill="#414141" xmlns:xlink="http://www.w3.org/1999/xlink"/><text x="16" y="159" dy="5.368" fill="#1b1b1b" font-size="16" font-family="PingFang SC, Microsoft YaHei, Open Sans, sans-serif">欢乐、进行曲</text><text x="824" y="168" dy="-2.632" text-anchor="end" fill="#1b1b1b" font-size="16" font-family="PingFang SC, Microsoft YaHei, Open Sans, sans-serif">朱健仁 曲</text><use x="19" y="208" xlink:href="#e" xmlns:xlink="http://www.w3.org/1999/xlink"/><text x="7" y="246" dy="8.052" fill="#101010" font-size="24" font-family="PingFang SC, Microsoft YaHei, Open Sans, sans-serif">我</text><use x="40.023" y="208" xlink:href="#e" xmlns:xlink="http://www.w3.org/1999/xlink"/><text x="28.023" y="246" dy="8.052" fill="#101010" font-size="24" font-family="PingFang SC, Microsoft YaHei, Open Sans, sans-serif">真</text><use x="69.455" y="208" xlink:href="#f" xmlns:xlink="http://www.w3.org/1999/xlink"/><use x="98.887" y="208" xlink:href="#g" xmlns:xlink="http://www.w3.org/1999/xlink"/><text x="86.887" y="246" dy="8.052" fill="#101010" font-size="24" font-family="PingFang SC, Microsoft YaHei, Open Sans, sans-serif">高</text><use x="119.91" y="208" xlink:href="#g" xmlns:xlink="http://www.w3.org/1999/xlink"/><text x="107.91" y="246" dy="8.052" fill="#101010" font-size="24" font-family="PingFang SC, Microsoft YaHei, Open Sans, sans-serif">兴</text><text x="131.91" y="246" dy="8.052" fill="#101010" font-size="24" font-family="PingFang SC, Microsoft YaHei, Open Sans, sans-serif">，</text><use x="151.445" y="208" xlink:href="#g" xmlns:xlink="http://www.w3.org/1999/xlink"/><text x="139.445" y="246" dy="8.052" fill="#101010" font-size="24" font-family="PingFang SC, Microsoft YaHei, Open Sans, sans-serif">因</text><use x="172.468" y="208" xlink:href="#g" xmlns:xlink="http://www.w3.org/1999/xlink"/><text x="160.468" y="246" dy="8.052" fill="#101010" font-size="24" font-family="PingFang SC, Microsoft YaHei, Open Sans, sans-serif">为</text><use x="204.003" y="208" xlink:href="#g" xmlns:xlink="http://www.w3.org/1999/xlink"/><text x="192.003" y="246" dy="8.052" fill="#101010" font-size="24" font-family="PingFang SC, Microsoft YaHei, Open Sans, sans-serif">有</text><use x="225.026" y="208" xlink:href="#h" xmlns:xlink="http://www.w3.org/1999/xlink"/><text x="213.026" y="246" dy="8.052" fill="#101010" font-size="24" font-family="PingFang SC, Microsoft YaHei, Open Sans, sans-serif">人</text><use x="256.56" y="208" xlink:href="#i" xmlns:xlink="http://www.w3.org/1999/xlink"/><text x="244.56" y="246" dy="8.052" fill="#101010" font-size="24" font-family="PingFang SC, Microsoft YaHei, Open Sans, sans-serif">对</text><use x="277.583" y="208" xlink:href="#g" xmlns:xlink="http://www.w3.org/1999/xlink"/><text x="265.583" y="246" dy="8.052" fill="#101010" font-size="24" font-family="PingFang SC, Microsoft YaHei, Open Sans, sans-serif">我</text><use x="307.015" y="208" xlink:href="#f" xmlns:xlink="http://www.w3.org/1999/xlink"/><use x="336.448" y="208" xlink:href="#e" xmlns:xlink="http://www.w3.org/1999/xlink"/><text x="324.448" y="246" dy="8.052" fill="#101010" font-size="24" font-family="PingFang SC, Microsoft YaHei, Open Sans, sans-serif">说</text><text x="348.448" y="246" dy="8.052" fill="#101010" font-size="24" font-family="PingFang SC, Microsoft YaHei, Open Sans, sans-serif">：</text><use x="367.982" y="208" xlink:href="#j" xmlns:xlink="http://www.w3.org/1999/xlink"/><use x="399.517" y="208" xlink:href="#j" xmlns:xlink="http://www.w3.org/1999/xlink"/><use x="431.051" y="208" xlink:href="#h" xmlns:xlink="http://www.w3.org/1999/xlink"/><text x="419.051" y="246" dy="8.052" fill="#101010" font-size="24" font-family="PingFang SC, Microsoft YaHei, Open Sans, sans-serif">我</text><use x="452.074" y="208" xlink:href="#h" xmlns:xlink="http://www.w3.org/1999/xlink"/><text x="440.074" y="246" dy="8.052" fill="#101010" font-size="24" font-family="PingFang SC, Microsoft YaHei, Open Sans, sans-serif">们</text><use x="481.506" y="208" xlink:href="#f" xmlns:xlink="http://www.w3.org/1999/xlink"/><use x="510.939" y="208" xlink:href="#k" xmlns:xlink="http://www.w3.org/1999/xlink"/><text x="498.939" y="246" dy="8.052" fill="#101010" font-size="24" font-family="PingFang SC, Microsoft YaHei, Open Sans, sans-serif">要</text><use x="542.473" y="208" xlink:href="#k" xmlns:xlink="http://www.w3.org/1999/xlink"/><text x="530.473" y="246" dy="8.052" fill="#101010" font-size="24" font-family="PingFang SC, Microsoft YaHei, Open Sans, sans-serif">进</text><use x="563.496" y="208" xlink:href="#i" xmlns:xlink="http://www.w3.org/1999/xlink"/><text x="551.496" y="246" dy="8.052" fill="#101010" font-size="24" font-family="PingFang SC, Microsoft YaHei, Open Sans, sans-serif">入</text><use x="595.031" y="208" xlink:href="#k" xmlns:xlink="http://www.w3.org/1999/xlink"/><text x="583.031" y="246" dy="8.052" fill="#101010" font-size="24" font-family="PingFang SC, Microsoft YaHei, Open Sans, sans-serif">上</text><use x="616.054" y="208" xlink:href="#i" xmlns:xlink="http://www.w3.org/1999/xlink"/><text x="604.054" y="246" dy="8.052" fill="#101010" font-size="24" font-family="PingFang SC, Microsoft YaHei, Open Sans, sans-serif">主</text><use x="647.588" y="208" xlink:href="#h" xmlns:xlink="http://www.w3.org/1999/xlink"/><text x="635.588" y="246" dy="8.052" fill="#101010" font-size="24" font-family="PingFang SC, Microsoft YaHei, Open Sans, sans-serif">的</text><use x="668.611" y="208" xlink:href="#h" xmlns:xlink="http://www.w3.org/1999/xlink"/><text x="656.611" y="246" dy="8.052" fill="#101010" font-size="24" font-family="PingFang SC, Microsoft YaHei, Open Sans, sans-serif">圣</text><use x="698.043" y="208" xlink:href="#f" xmlns:xlink="http://www.w3.org/1999/xlink"/><use x="727.476" y="208" xlink:href="#h" xmlns:xlink="http://www.w3.org/1999/xlink"/><text x="715.476" y="246" dy="8.052" fill="#101010" font-size="24" font-family="PingFang SC, Microsoft YaHei, Open Sans, sans-serif">殿</text><text x="739.476" y="246" dy="8.052" fill="#101010" font-size="24" font-family="PingFang SC, Microsoft YaHei, Open Sans, sans-serif">！</text><use x="759.01" y="208" xlink:href="#j" xmlns:xlink="http://www.w3.org/1999/xlink"/><use x="790.545" y="208" xlink:href="#j" xmlns:xlink="http://www.w3.org/1999/xlink"/><use x="827" y="208" xlink:href="#l" xmlns:xlink="http://www.w3.org/1999/xlink"/><use x="19" y="320" xlink:href="#e" xmlns:xlink="http://www.w3.org/1999/xlink"/><text x="7" y="358" dy="8.052" fill="#101010" font-size="24" font-family="PingFang SC, Microsoft YaHei, Open Sans, sans-serif">我</text><use x="40.023" y="320" xlink:href="#e" xmlns:xlink="http://www.w3.org/1999/xlink"/><text x="28.023" y="358" dy="8.052" fill="#101010" font-size="24" font-family="PingFang SC, Microsoft YaHei, Open Sans, sans-serif">真</text><use x="69.455" y="320" xlink:href="#f" xmlns:xlink="http://www.w3.org/1999/xlink"/><use x="98.887" y="320" xlink:href="#g" xmlns:xlink="http://www.w3.org/1999/xlink"/><text x="86.887" y="358" dy="8.052" fill="#101010" font-size="24" font-family="PingFang SC, Microsoft YaHei, Open Sans, sans-serif">高</text><use x="119.91" y="320" xlink:href="#g" xmlns:xlink="http://www.w3.org/1999/xlink"/><text x="107.91" y="358" dy="8.052" fill="#101010" font-size="24" font-family="PingFang SC, Microsoft YaHei, Open Sans, sans-serif">兴</text><text x="131.91" y="358" dy="8.052" fill="#101010" font-size="24" font-family="PingFang SC, Microsoft YaHei, Open Sans, sans-serif">，</text><use x="151.445" y="320" xlink:href="#g" xmlns:xlink="http://www.w3.org/1999/xlink"/><text x="139.445" y="358" dy="8.052" fill="#101010" font-size="24" font-family="PingFang SC, Microsoft YaHei, Open Sans, sans-serif">因</text><use x="172.468" y="320" xlink:href="#g" xmlns:xlink="http://www.w3.org/1999/xlink"/><text x="160.468" y="358" dy="8.052" fill="#101010" font-size="24" font-family="PingFang SC, Microsoft YaHei, Open Sans, sans-serif">为</text><use x="204.003" y="320" xlink:href="#g" xmlns:xlink="http://www.w3.org/1999/xlink"/><text x="192.003" y="358" dy="8.052" fill="#101010" font-size="24" font-family="PingFang SC, Microsoft YaHei, Open Sans, sans-serif">有</text><use x="225.026" y="320" xlink:href="#h" xmlns:xlink="http://www.w3.org/1999/xlink"/><text x="213.026" y="358" dy="8.052" fill="#101010" font-size="24" font-family="PingFang SC, Microsoft YaHei, Open Sans, sans-serif">人</text><use x="256.56" y="320" xlink:href="#i" xmlns:xlink="http://www.w3.org/1999/xlink"/><text x="244.56" y="358" dy="8.052" fill="#101010" font-size="24" font-family="PingFang SC, Microsoft YaHei, Open Sans, sans-serif">对</text><use x="277.583" y="320" xlink:href="#g" xmlns:xlink="http://www.w3.org/1999/xlink"/><text x="265.583" y="358" dy="8.052" fill="#101010" font-size="24" font-family="PingFang SC, Microsoft YaHei, Open Sans, sans-serif">我</text><use x="307.015" y="320" xlink:href="#f" xmlns:xlink="http://www.w3.org/1999/xlink"/><use x="336.448" y="320" xlink:href="#e" xmlns:xlink="http://www.w3.org/1999/xlink"/><text x="324.448" y="358" dy="8.052" fill="#101010" font-size="24" font-family="PingFang SC, Microsoft YaHei, Open Sans, sans-serif">说</text><text x="348.448" y="358" dy="8.052" fill="#101010" font-size="24" font-family="PingFang SC, Microsoft YaHei, Open Sans, sans-serif">：</text><use x="367.982" y="320" xlink:href="#j" xmlns:xlink="http://www.w3.org/1999/xlink"/><use x="399.517" y="320" xlink:href="#j" xmlns:xlink="http://www.w3.org/1999/xlink"/><use x="431.051" y="320" xlink:href="#h" xmlns:xlink="http://www.w3.org/1999/xlink"/><text x="419.051" y="358" dy="8.052" fill="#101010" font-size="24" font-family="PingFang SC, Microsoft YaHei, Open Sans, sans-serif">我</text><use x="452.074" y="320" xlink:href="#h" xmlns:xlink="http://www.w3.org/1999/xlink"/><text x="440.074" y="358" dy="8.052" fill="#101010" font-size="24" font-family="PingFang SC, Microsoft YaHei, Open Sans, sans-serif">们</text><use x="481.506" y="320" xlink:href="#f" xmlns:xlink="http://www.w3.org/1999/xlink"/><use x="510.939" y="320" xlink:href="#e" xmlns:xlink="http://www.w3.org/1999/xlink"/><text x="498.939" y="358" dy="8.052" fill="#101010" font-size="24" font-family="PingFang SC, Microsoft YaHei, Open Sans, sans-serif">要</text><use x="542.473" y="320" xlink:href="#e" xmlns:xlink="http://www.w3.org/1999/xlink"/><text x="530.473" y="358" dy="8.052" fill="#101010" font-size="24" font-family="PingFang SC, Microsoft YaHei, Open Sans, sans-serif">进</text><use x="563.496" y="320" xlink:href="#k" xmlns:xlink="http://www.w3.org/1999/xlink"/><text x="551.496" y="358" dy="8.052" fill="#101010" font-size="24" font-family="PingFang SC, Microsoft YaHei, Open Sans, sans-serif">入</text><use x="595.031" y="320" xlink:href="#i" xmlns:xlink="http://www.w3.org/1999/xlink"/><text x="583.031" y="358" dy="8.052" fill="#101010" font-size="24" font-family="PingFang SC, Microsoft YaHei, Open Sans, sans-serif">上</text><use x="616.054" y="320" xlink:href="#h" xmlns:xlink="http://www.w3.org/1999/xlink"/><text x="604.054" y="358" dy="8.052" fill="#101010" font-size="24" font-family="PingFang SC, Microsoft YaHei, Open Sans, sans-serif">主</text><use x="647.588" y="320" xlink:href="#g" xmlns:xlink="http://www.w3.org/1999/xlink"/><text x="635.588" y="358" dy="8.052" fill="#101010" font-size="24" font-family="PingFang SC, Microsoft YaHei, Open Sans, sans-serif">的</text><use x="668.611" y="320" xlink:href="#g" xmlns:xlink="http://www.w3.org/1999/xlink"/><text x="656.611" y="358" dy="8.052" fill="#101010" font-size="24" font-family="PingFang SC, Microsoft YaHei, Open Sans, sans-serif">圣</text><use x="698.043" y="320" xlink:href="#f" xmlns:xlink="http://www.w3.org/1999/xlink"/><use x="727.476" y="320" xlink:href="#g" xmlns:xlink="http://www.w3.org/1999/xlink"/><text x="715.476" y="358" dy="8.052" fill="#101010" font-size="24" font-family="PingFang SC, Microsoft YaHei, Open Sans, sans-serif">殿</text><text x="739.476" y="358" dy="8.052" fill="#101010" font-size="24" font-family="PingFang SC, Microsoft YaHei, Open Sans, sans-serif">！</text><use x="759.01" y="320" xlink:href="#j" xmlns:xlink="http://www.w3.org/1999/xlink"/><use x="790.545" y="320" xlink:href="#j" xmlns:xlink="http://www.w3.org/1999/xlink"/><use x="827" y="320" xlink:href="#l" xmlns:xlink="http://www.w3.org/1999/xlink"/><path data-type="jianshixian" stroke-width="2" stroke="#1b1b1b" d="M13 221h33.023M92.887 221h33.023M145.445 221h33.023M198.003 221h33.023M250.56 221h33.023M425.051 221h33.023M536.473 221h33.023M589.031 221h33.023M641.588 221h33.023M13 333h33.023M92.887 333h33.023M145.445 333h33.023M198.003 333h33.023M250.56 333h33.023M425.051 333h33.023M536.473 333h33.023M589.031 333h33.023M641.588 333h33.023"/><use x="19" y="213" xlink:href="#m" xmlns:xlink="http://www.w3.org/1999/xlink"/><use x="40.023" y="213" xlink:href="#m" xmlns:xlink="http://www.w3.org/1999/xlink"/><use x="19" y="325" xlink:href="#m" xmlns:xlink="http://www.w3.org/1999/xlink"/><use x="40.023" y="325" xlink:href="#m" xmlns:xlink="http://www.w3.org/1999/xlink"/></svg>