<svg xmlns="http://www.w3.org/2000/svg" width="1200" height="675"><rect width="100%" height="100%" fill="#fff"/><defs><g id="a" fill="#1b1b1b"><path d="M13.9 7.812H5.081v-1.7h3.455V-5.645L5-4.6v-1.802L10.466-8V6.112H13.9z"/><path stroke-width="33" d="M18-3.141h11v2H18zM18 1.325h11v2H18z"/></g><g id="f"><path fill="#fff" stroke-width="0" d="M-4.95-14.15h9.9v28.4h-9.9z"/><path fill="#1b1b1b" stroke-width="null" d="M-.75-14.5h1.5v29h-1.5z"/></g><g id="g"><path fill="#fff" stroke-width="0" d="M-5.55-8.95h11.1v17.9h-11.1z"/><path d="M-1.99-3.011q.975-.46 2.345-.461 1.08 0 2.076.395.994.395 1.76 1.166.764.771 1.211 1.91.448 1.14.448 2.63 0 1.317-.428 2.457c-.428 1.14-.687 1.418-1.206 1.976s-1.148.995-1.89 1.312q-1.114.474-2.47.474a6.4 6.4 0 0 1-2.083-.336A5 5 0 0 1-3.959 7.49q-.759-.686-1.259-1.713c-.5-1.027-.545-1.49-.632-2.412h3.188q.08.725.304 1.265.224.541.56.896.336.356.757.527.422.172.896.172.633 0 1.147-.264t.883-.731.573-1.087c.204-.619.204-.856.204-1.33q0-.87-.21-1.53a3.2 3.2 0 0 0-.587-1.1 2.5 2.5 0 0 0-.896-.672 2.8 2.8 0 0 0-1.153-.23q-1.463 0-2.649 1.33H-5.27l.764-9.46h9.593v2.899h-6.852z"/></g><g id="h"><path fill="#fff" stroke-width="0" d="M-5.55-8.95h11.1v17.9h-11.1z"/><path d="M4.932-4.304q0 .457-.098.934a4.7 4.7 0 0 1-.294.927q-.195.451-.49.85a3.5 3.5 0 0 1-.686.699q.575.3 1.02.764.442.465.744 1.039.3.575.457 1.228.157.654.157 1.333 0 1.202-.444 2.208c-.444 1.006-.702 1.246-1.215 1.724q-.771.72-1.83 1.117c-1.059.397-1.463.399-2.273.399q-1.228 0-2.247-.392a5.3 5.3 0 0 1-1.77-1.104 5.25 5.25 0 0 1-1.195-1.725q-.445-1.012-.51-2.254h3.2q0 .588.164 1.11.163.524.483.915.32.393.79.621.471.229 1.085.229.588 0 1.072-.21.483-.209.823-.58.339-.374.523-.89a3.4 3.4 0 0 0 .183-1.13q0-.626-.19-1.15a2.4 2.4 0 0 0-.562-.894A2.6 2.6 0 0 0 .915.882 3.5 3.5 0 0 0-.346.673h-1.307v-2.6h.993q1.228 0 1.836-.647.607-.646.607-1.757 0-.98-.51-1.483-.508-.503-1.45-.503-1.946 0-2.22 2.508H-5.56q.144-1.254.601-2.208a5.2 5.2 0 0 1 1.163-1.6 4.7 4.7 0 0 1 1.62-.974 5.8 5.8 0 0 1 1.96-.327q1.176 0 2.124.34a4.75 4.75 0 0 1 1.62.954q.673.615 1.038 1.457.366.844.366 1.863"/></g><g id="i"><path fill="#fff" stroke-width="0" d="M-5.55-8.95h11.1v17.9h-11.1z"/><path d="M5.876 8.92H-5.876q0-2.272.944-3.695.518-.758 1.382-1.662a23 23 0 0 1 2.14-1.94A40 40 0 0 0 .5-.013q.777-.717 1.25-1.35.471-.63.678-1.242c.207-.612.206-.847.206-1.317q0-1.116-.618-1.735-.62-.618-1.789-.618-.479 0-.917.193a2.2 2.2 0 0 0-.778.578 3.3 3.3 0 0 0-.565.95q-.226.567-.28 1.324H-5.53q.106-1.29.559-2.347c.453-1.057.702-1.303 1.203-1.795a5.3 5.3 0 0 1 1.775-1.143q1.023-.405 2.26-.406 1.33 0 2.373.386 1.044.385 1.749 1.063.705.679 1.077 1.596t.372 1.994q0 .998-.266 1.835a5.9 5.9 0 0 1-.798 1.596q-.504.69-1.502 1.728Q2.274 2.314.825 3.524q-.426.359-1.09.964A9.5 9.5 0 0 0-1.57 5.984h7.445z"/></g><g id="j"><path fill="#fff" stroke-width="0" d="M-5.55-8.95h11.1v17.9h-11.1z"/><path d="M1.674 8.969h-3.22v-12.76q-1.428.517-3.954.517V-5.98q3.966 0 4.538-2.99h2.636z"/></g><g id="k"><path fill="#fff" stroke-width="0" d="M-5.55-8.95h11.1v17.9h-11.1z"/><path fill="#1b1b1b" stroke-width="null" d="M-5.5-1.6h11v3.2h-11z"/></g><g id="l"><path fill="#fff" stroke-width="0" d="M-5.55-8.95h11.1v17.9h-11.1z"/><path d="M6.19 5.052H3.98V8.96H.8V5.052h-6.99v-2.52l7.679-11.49H3.98V2.168h2.21zM.801 2.17v-5.524L-2.702 2.17z"/></g><g id="m"><path fill="#fff" stroke-width="0" d="M-5.55-8.95h11.1v17.9h-11.1z"/><path d="M5.88-6.864-.292 8.953h-3.527L2.313-5.968h-8.194v-2.985H5.881z"/></g><g id="n"><path fill="#fff" stroke-width="0" d="M-5.55-8.95h11.1v17.9h-11.1z"/><path d="M.3-6.276q-.533 0-.981.311-.448.312-.799.883-.35.57-.61 1.389c-.26.819-.303 1.155-.39 1.83q.675-.48 1.41-.779A4.1 4.1 0 0 1 .48-2.94q1.195 0 2.155.467.96.468 1.642 1.279.68.81 1.045 1.882.363 1.07.363 2.278c0 1.208-.13 1.566-.389 2.284q-.39 1.078-1.103 1.876c-.713.798-1.05.954-1.72 1.266q-1.006.467-2.24.467-1.414 0-2.518-.571A5.14 5.14 0 0 1-4.14 6.646Q-4.894 5.575-5.29 4.03q-.395-1.545-.395-3.504 0-2.285.383-4.037t1.142-2.94q.759-1.187 1.902-1.798 1.141-.61 2.66-.61.987 0 1.837.311a4.6 4.6 0 0 1 1.519.922q.668.61 1.116 1.538.447.929.63 2.149H2.335Q2.066-6.277.3-6.276M.117-.241q-1.35 0-2.739 1.389.039 1.194.253 2.142.214.947.571 1.61.357.66.864 1.018.506.357 1.13.357.544 0 .98-.246.434-.247.739-.682c.305-.435.36-.627.467-1.012q.163-.578.163-1.24 0-.675-.17-1.279A3.6 3.6 0 0 0 1.89.752a2.5 2.5 0 0 0-.766-.727A1.94 1.94 0 0 0 .118-.241"/></g><g id="o"><path fill="#fff" stroke-width="0" d="M-7.55-14.35h11.7v28.4h-11.7z"/><path fill="#1b1b1b" stroke-width="null" d="M-4.35-14.5h1v29h-1zM-1.65-14.5h2.4v29h-2.4z"/></g><path id="b" d="M54 43.936h-6.005v5.251h5.573v1.792h-5.573v6.898H46V42.123h8z" transform="translate(-50 -50)"/><path id="c" fill="#1b1b1b" stroke-linecap="null" stroke-linejoin="null" stroke-width="33" d="M51 49h21v2H51z" transform="translate(-50 -50)"/><path id="d" d="M53.954 46.549q0 .367-.078.749a3.8 3.8 0 0 1-.236.744 3.5 3.5 0 0 1-.393.68q-.235.32-.55.561.462.24.817.613.357.371.598.833.24.46.366.985.126.523.126 1.068 0 .965-.356 1.77c-.356.806-.562 1-.974 1.383q-.619.576-1.467.896c-.848.32-1.174.32-1.823.32a5 5 0 0 1-1.802-.315 4.3 4.3 0 0 1-1.419-.885 4.2 4.2 0 0 1-.958-1.383 5.1 5.1 0 0 1-.409-1.807h2.566q0 .471.131.89.132.42.388.734t.634.497q.376.184.87.184.471 0 .858-.168.389-.168.66-.466.273-.3.42-.713t.146-.906q0-.502-.152-.922a1.9 1.9 0 0 0-.45-.717 2.1 2.1 0 0 0-.734-.467 2.8 2.8 0 0 0-1.01-.167h-1.048v-2.085h.796q.984 0 1.472-.519.487-.518.487-1.409 0-.786-.409-1.189-.408-.403-1.162-.403-1.562 0-1.781 2.01h-2.536q.115-1.005.482-1.77.367-.764.933-1.283.565-.519 1.299-.78a4.6 4.6 0 0 1 1.571-.263q.943 0 1.703.273.759.271 1.299.765.54.492.833 1.168.292.677.292 1.494" transform="translate(-50 -50)"/><path id="e" d="M54.966 54.053h-1.772v3.135h-2.551v-3.135h-5.61v-2.021l6.161-9.22h2v8.928h1.773zm-4.323-2.313V47.31l-2.81 4.431z" transform="translate(-50 -50)"/><circle id="p" cx="49.3" cy="63" r="1.9" fill="#1b1b1b" transform="translate(-50 -50)"/></defs><text x="596.5" y="110" fill="#1b1b1b" dy="35.091" font-family="PingFang SC, Microsoft YaHei, Open Sans, sans-serif" font-size="42" style="font-weight:700" text-anchor="middle">咏一〇三</text><use xmlns:xlink="http://www.w3.org/1999/xlink" xlink:href="#a" x="80" y="182"/><use xmlns:xlink="http://www.w3.org/1999/xlink" xlink:href="#b" x="120" y="182" data-diaohao="true"/><use xmlns:xlink="http://www.w3.org/1999/xlink" xlink:href="#c" x="130" y="182"/><use xmlns:xlink="http://www.w3.org/1999/xlink" xlink:href="#d" x="140" y="170"/><use xmlns:xlink="http://www.w3.org/1999/xlink" xlink:href="#e" x="140" y="194" fill="#414141"/><text x="80" y="223" fill="#1b1b1b" dy="5.368" font-family="PingFang SC, Microsoft YaHei, Open Sans, sans-serif" font-size="16">欢乐、悠扬</text><text x="1113" y="232" fill="#1b1b1b" dy="-2.632" font-family="PingFang SC, Microsoft YaHei, Open Sans, sans-serif" font-size="16" text-anchor="end">朱健仁 曲</text><use xmlns:xlink="http://www.w3.org/1999/xlink" xlink:href="#f" x="83" y="272"/><use xmlns:xlink="http://www.w3.org/1999/xlink" xlink:href="#g" x="103.791" y="272"/><text x="91.791" y="310" fill="#101010" dy="8.052" font-family="PingFang SC, Microsoft YaHei, Open Sans, sans-serif" font-size="24">上</text><use xmlns:xlink="http://www.w3.org/1999/xlink" xlink:href="#h" x="126.068" y="272"/><use xmlns:xlink="http://www.w3.org/1999/xlink" xlink:href="#i" x="148.345" y="272"/><use xmlns:xlink="http://www.w3.org/1999/xlink" xlink:href="#f" x="169.136" y="272"/><use xmlns:xlink="http://www.w3.org/1999/xlink" xlink:href="#j" x="189.928" y="272"/><text x="177.928" y="310" fill="#101010" dy="8.052" font-family="PingFang SC, Microsoft YaHei, Open Sans, sans-serif" font-size="24">主</text><text x="204.928" y="310" fill="#101010" dy="8.052" font-family="PingFang SC, Microsoft YaHei, Open Sans, sans-serif" font-size="24">,</text><use xmlns:xlink="http://www.w3.org/1999/xlink" xlink:href="#k" x="212.204" y="272"/><use xmlns:xlink="http://www.w3.org/1999/xlink" xlink:href="#k" x="234.481" y="272"/><use xmlns:xlink="http://www.w3.org/1999/xlink" xlink:href="#f" x="255.272" y="272"/><use xmlns:xlink="http://www.w3.org/1999/xlink" xlink:href="#i" x="276.064" y="272"/><text x="264.064" y="310" fill="#101010" dy="8.052" font-family="PingFang SC, Microsoft YaHei, Open Sans, sans-serif" font-size="24">求</text><use xmlns:xlink="http://www.w3.org/1999/xlink" xlink:href="#j" x="298.34" y="272"/><text x="286.34" y="310" fill="#101010" dy="8.052" font-family="PingFang SC, Microsoft YaHei, Open Sans, sans-serif" font-size="24">你</text><use xmlns:xlink="http://www.w3.org/1999/xlink" xlink:href="#i" x="320.617" y="272"/><text x="308.617" y="310" fill="#101010" dy="8.052" font-family="PingFang SC, Microsoft YaHei, Open Sans, sans-serif" font-size="24">嘘</text><use xmlns:xlink="http://www.w3.org/1999/xlink" xlink:href="#f" x="341.409" y="272"/><use xmlns:xlink="http://www.w3.org/1999/xlink" xlink:href="#h" x="362.2" y="272"/><text x="350.2" y="310" fill="#101010" dy="8.052" font-family="PingFang SC, Microsoft YaHei, Open Sans, sans-serif" font-size="24">气</text><text x="374.2" y="310" fill="#101010" dy="8.052" font-family="PingFang SC, Microsoft YaHei, Open Sans, sans-serif" font-size="24">，</text><use xmlns:xlink="http://www.w3.org/1999/xlink" xlink:href="#k" x="384.477" y="272"/><use xmlns:xlink="http://www.w3.org/1999/xlink" xlink:href="#g" x="406.753" y="272"/><text x="394.753" y="310" fill="#101010" dy="8.052" font-family="PingFang SC, Microsoft YaHei, Open Sans, sans-serif" font-size="24">使</text><use xmlns:xlink="http://www.w3.org/1999/xlink" xlink:href="#f" x="427.545" y="272"/><use xmlns:xlink="http://www.w3.org/1999/xlink" xlink:href="#h" x="448.336" y="272"/><text x="436.336" y="310" fill="#101010" dy="8.052" font-family="PingFang SC, Microsoft YaHei, Open Sans, sans-serif" font-size="24">大</text><use xmlns:xlink="http://www.w3.org/1999/xlink" xlink:href="#k" x="470.613" y="272"/><use xmlns:xlink="http://www.w3.org/1999/xlink" xlink:href="#h" x="492.889" y="272"/><text x="480.889" y="310" fill="#101010" dy="8.052" font-family="PingFang SC, Microsoft YaHei, Open Sans, sans-serif" font-size="24">地</text><use xmlns:xlink="http://www.w3.org/1999/xlink" xlink:href="#f" x="513.681" y="272"/><use xmlns:xlink="http://www.w3.org/1999/xlink" xlink:href="#h" x="534.472" y="272"/><text x="522.472" y="310" fill="#101010" dy="8.052" font-family="PingFang SC, Microsoft YaHei, Open Sans, sans-serif" font-size="24">焕</text><use xmlns:xlink="http://www.w3.org/1999/xlink" xlink:href="#i" x="556.749" y="272"/><text x="544.749" y="310" fill="#101010" dy="8.052" font-family="PingFang SC, Microsoft YaHei, Open Sans, sans-serif" font-size="24">然</text><use xmlns:xlink="http://www.w3.org/1999/xlink" xlink:href="#h" x="579.026" y="272"/><text x="567.026" y="310" fill="#101010" dy="8.052" font-family="PingFang SC, Microsoft YaHei, Open Sans, sans-serif" font-size="24">一</text><use xmlns:xlink="http://www.w3.org/1999/xlink" xlink:href="#f" x="599.817" y="272"/><use xmlns:xlink="http://www.w3.org/1999/xlink" xlink:href="#g" x="620.609" y="272"/><text x="608.609" y="310" fill="#101010" dy="8.052" font-family="PingFang SC, Microsoft YaHei, Open Sans, sans-serif" font-size="24">新</text><text x="632.609" y="310" fill="#101010" dy="8.052" font-family="PingFang SC, Microsoft YaHei, Open Sans, sans-serif" font-size="24">。</text><use xmlns:xlink="http://www.w3.org/1999/xlink" xlink:href="#k" x="642.885" y="272"/><use xmlns:xlink="http://www.w3.org/1999/xlink" xlink:href="#k" x="665.162" y="272"/><use xmlns:xlink="http://www.w3.org/1999/xlink" xlink:href="#f" x="685.953" y="272"/><use xmlns:xlink="http://www.w3.org/1999/xlink" xlink:href="#g" x="706.745" y="272"/><use xmlns:xlink="http://www.w3.org/1999/xlink" xlink:href="#k" x="729.021" y="272"/><use xmlns:xlink="http://www.w3.org/1999/xlink" xlink:href="#g" x="751.298" y="272"/><text x="739.298" y="310" fill="#101010" dy="8.052" font-family="PingFang SC, Microsoft YaHei, Open Sans, sans-serif" font-size="24">使</text><use xmlns:xlink="http://www.w3.org/1999/xlink" xlink:href="#f" x="772.089" y="272"/><use xmlns:xlink="http://www.w3.org/1999/xlink" xlink:href="#l" x="792.881" y="272"/><text x="780.881" y="310" fill="#101010" dy="8.052" font-family="PingFang SC, Microsoft YaHei, Open Sans, sans-serif" font-size="24">大</text><use xmlns:xlink="http://www.w3.org/1999/xlink" xlink:href="#k" x="815.157" y="272"/><use xmlns:xlink="http://www.w3.org/1999/xlink" xlink:href="#l" x="837.434" y="272"/><text x="825.434" y="310" fill="#101010" dy="8.052" font-family="PingFang SC, Microsoft YaHei, Open Sans, sans-serif" font-size="24">地</text><use xmlns:xlink="http://www.w3.org/1999/xlink" xlink:href="#f" x="858.226" y="272"/><use xmlns:xlink="http://www.w3.org/1999/xlink" xlink:href="#m" x="879.017" y="272"/><text x="867.017" y="310" fill="#101010" dy="8.052" font-family="PingFang SC, Microsoft YaHei, Open Sans, sans-serif" font-size="24">焕</text><use xmlns:xlink="http://www.w3.org/1999/xlink" xlink:href="#n" x="901.294" y="272"/><text x="889.294" y="310" fill="#101010" dy="8.052" font-family="PingFang SC, Microsoft YaHei, Open Sans, sans-serif" font-size="24">然</text><use xmlns:xlink="http://www.w3.org/1999/xlink" xlink:href="#m" x="923.57" y="272"/><text x="911.57" y="310" fill="#101010" dy="8.052" font-family="PingFang SC, Microsoft YaHei, Open Sans, sans-serif" font-size="24">一</text><use xmlns:xlink="http://www.w3.org/1999/xlink" xlink:href="#f" x="944.362" y="272"/><use xmlns:xlink="http://www.w3.org/1999/xlink" xlink:href="#j" x="965.153" y="272"/><text x="953.153" y="310" fill="#101010" dy="8.052" font-family="PingFang SC, Microsoft YaHei, Open Sans, sans-serif" font-size="24">新</text><text x="977.153" y="310" fill="#101010" dy="8.052" font-family="PingFang SC, Microsoft YaHei, Open Sans, sans-serif" font-size="24">。</text><use xmlns:xlink="http://www.w3.org/1999/xlink" xlink:href="#k" x="987.43" y="272"/><use xmlns:xlink="http://www.w3.org/1999/xlink" xlink:href="#k" x="1009.706" y="272"/><use xmlns:xlink="http://www.w3.org/1999/xlink" xlink:href="#f" x="1030.498" y="272"/><use xmlns:xlink="http://www.w3.org/1999/xlink" xlink:href="#j" x="1051.289" y="272"/><use xmlns:xlink="http://www.w3.org/1999/xlink" xlink:href="#k" x="1073.566" y="272"/><use xmlns:xlink="http://www.w3.org/1999/xlink" xlink:href="#k" x="1095.843" y="272"/><use xmlns:xlink="http://www.w3.org/1999/xlink" xlink:href="#o" x="1116" y="272"/><use xmlns:xlink="http://www.w3.org/1999/xlink" xlink:href="#p" x="406.753" y="273"/><use xmlns:xlink="http://www.w3.org/1999/xlink" xlink:href="#p" x="751.298" y="273"/><use xmlns:xlink="http://www.w3.org/1999/xlink" xlink:href="#p" x="879.017" y="273"/><use xmlns:xlink="http://www.w3.org/1999/xlink" xlink:href="#p" x="901.294" y="273"/><use xmlns:xlink="http://www.w3.org/1999/xlink" xlink:href="#p" x="923.57" y="273"/><path stroke="#1b1b1b" stroke-width=".5" d="M104.791 256c12.366-10 30.188-10 42.554 0m0 0c-12.366-9-30.188-9-42.554 0M621.609 256c24.84-10 59.295-10 84.136 0m0 0c-24.841-9-59.296-9-84.136 0M966.153 256c24.841-10 59.296-10 84.136 0m0 0c-24.84-9-59.295-9-84.136 0"/></svg>