<svg xmlns="http://www.w3.org/2000/svg" width="1200" height="675"><rect width="100%" height="100%" fill="#fff"/><defs><g id="a" fill="#1b1b1b"><path d="M13.9 7.812H5.081v-1.7h3.455V-5.645L5-4.6v-1.802L10.466-8V6.112H13.9z"/><path stroke-width="33" d="M18-3.141h11v2H18zM18 1.325h11v2H18z"/></g><g id="f"><path fill="#fff" stroke-width="0" d="M-4.95-14.15h9.9v28.4h-9.9z"/><path fill="#1b1b1b" stroke-width="null" d="M-.75-14.5h1.5v29h-1.5z"/></g><g id="g"><path fill="#fff" stroke-width="0" d="M-5.55-8.95h11.1v17.9h-11.1z"/><path d="M1.674 8.969h-3.22v-12.76q-1.428.517-3.954.517V-5.98q3.966 0 4.538-2.99h2.636z"/></g><g id="h"><path fill="#fff" stroke-width="0" d="M-5.55-8.95h11.1v17.9h-11.1z"/><path fill="#1b1b1b" stroke-width="null" d="M-5.5-1.6h11v3.2h-11z"/></g><g id="i"><path fill="#fff" stroke-width="0" d="M-5.55-8.95h11.1v17.9h-11.1z"/><path d="M5.88-6.864-.292 8.953h-3.527L2.313-5.968h-8.194v-2.985H5.881z"/></g><g id="j"><path fill="#fff" stroke-width="0" d="M-5.55-8.95h11.1v17.9h-11.1z"/><path d="M.3-6.276q-.533 0-.981.311-.448.312-.799.883-.35.57-.61 1.389c-.26.819-.303 1.155-.39 1.83q.675-.48 1.41-.779A4.1 4.1 0 0 1 .48-2.94q1.195 0 2.155.467.96.468 1.642 1.279.68.81 1.045 1.882.363 1.07.363 2.278c0 1.208-.13 1.566-.389 2.284q-.39 1.078-1.103 1.876c-.713.798-1.05.954-1.72 1.266q-1.006.467-2.24.467-1.414 0-2.518-.571A5.14 5.14 0 0 1-4.14 6.646Q-4.894 5.575-5.29 4.03q-.395-1.545-.395-3.504 0-2.285.383-4.037t1.142-2.94q.759-1.187 1.902-1.798 1.141-.61 2.66-.61.987 0 1.837.311a4.6 4.6 0 0 1 1.519.922q.668.61 1.116 1.538.447.929.63 2.149H2.335Q2.066-6.277.3-6.276M.117-.241q-1.35 0-2.739 1.389.039 1.194.253 2.142.214.947.571 1.61.357.66.864 1.018.506.357 1.13.357.544 0 .98-.246.434-.247.739-.682c.305-.435.36-.627.467-1.012q.163-.578.163-1.24 0-.675-.17-1.279A3.6 3.6 0 0 0 1.89.752a2.5 2.5 0 0 0-.766-.727A1.94 1.94 0 0 0 .118-.241"/></g><g id="k"><path fill="#fff" stroke-width="0" d="M-5.55-8.95h11.1v17.9h-11.1z"/><path d="M-1.99-3.011q.975-.46 2.345-.461 1.08 0 2.076.395.994.395 1.76 1.166.764.771 1.211 1.91.448 1.14.448 2.63 0 1.317-.428 2.457c-.428 1.14-.687 1.418-1.206 1.976s-1.148.995-1.89 1.312q-1.114.474-2.47.474a6.4 6.4 0 0 1-2.083-.336A5 5 0 0 1-3.959 7.49q-.759-.686-1.259-1.713c-.5-1.027-.545-1.49-.632-2.412h3.188q.08.725.304 1.265.224.541.56.896.336.356.757.527.422.172.896.172.633 0 1.147-.264t.883-.731.573-1.087c.204-.619.204-.856.204-1.33q0-.87-.21-1.53a3.2 3.2 0 0 0-.587-1.1 2.5 2.5 0 0 0-.896-.672 2.8 2.8 0 0 0-1.153-.23q-1.463 0-2.649 1.33H-5.27l.764-9.46h9.593v2.899h-6.852z"/></g><g id="l"><path fill="#fff" stroke-width="0" d="M-5.55-8.95h11.1v17.9h-11.1z"/><path d="M4.932-4.304q0 .457-.098.934a4.7 4.7 0 0 1-.294.927q-.195.451-.49.85a3.5 3.5 0 0 1-.686.699q.575.3 1.02.764.442.465.744 1.039.3.575.457 1.228.157.654.157 1.333 0 1.202-.444 2.208c-.444 1.006-.702 1.246-1.215 1.724q-.771.72-1.83 1.117c-1.059.397-1.463.399-2.273.399q-1.228 0-2.247-.392a5.3 5.3 0 0 1-1.77-1.104 5.25 5.25 0 0 1-1.195-1.725q-.445-1.012-.51-2.254h3.2q0 .588.164 1.11.163.524.483.915.32.393.79.621.471.229 1.085.229.588 0 1.072-.21.483-.209.823-.58.339-.374.523-.89a3.4 3.4 0 0 0 .183-1.13q0-.626-.19-1.15a2.4 2.4 0 0 0-.562-.894A2.6 2.6 0 0 0 .915.882 3.5 3.5 0 0 0-.346.673h-1.307v-2.6h.993q1.228 0 1.836-.647.607-.646.607-1.757 0-.98-.51-1.483-.508-.503-1.45-.503-1.946 0-2.22 2.508H-5.56q.144-1.254.601-2.208a5.2 5.2 0 0 1 1.163-1.6 4.7 4.7 0 0 1 1.62-.974 5.8 5.8 0 0 1 1.96-.327q1.176 0 2.124.34a4.75 4.75 0 0 1 1.62.954q.673.615 1.038 1.457.366.844.366 1.863"/></g><g id="m"><path fill="#fff" stroke-width="0" d="M-5.55-8.95h11.1v17.9h-11.1z"/><path d="M5.876 8.92H-5.876q0-2.272.944-3.695.518-.758 1.382-1.662a23 23 0 0 1 2.14-1.94A40 40 0 0 0 .5-.013q.777-.717 1.25-1.35.471-.63.678-1.242c.207-.612.206-.847.206-1.317q0-1.116-.618-1.735-.62-.618-1.789-.618-.479 0-.917.193a2.2 2.2 0 0 0-.778.578 3.3 3.3 0 0 0-.565.95q-.226.567-.28 1.324H-5.53q.106-1.29.559-2.347c.453-1.057.702-1.303 1.203-1.795a5.3 5.3 0 0 1 1.775-1.143q1.023-.405 2.26-.406 1.33 0 2.373.386 1.044.385 1.749 1.063.705.679 1.077 1.596t.372 1.994q0 .998-.266 1.835a5.9 5.9 0 0 1-.798 1.596q-.504.69-1.502 1.728Q2.274 2.314.825 3.524q-.426.359-1.09.964A9.5 9.5 0 0 0-1.57 5.984h7.445z"/></g><g id="n"><path fill="#fff" stroke-width="0" d="M-5.55-8.95h11.1v17.9h-11.1z"/><path d="M-.006-8.92q1.424 0 2.49.588 1.065.588 1.777 1.739c.712 1.15.832 1.71 1.072 2.829q.36 1.68.359 3.862 0 4.34-1.431 6.58Q2.83 8.92-.006 8.92q-2.85 0-4.268-2.242-1.418-2.24-1.418-6.58 0-2.182.353-3.862t1.065-2.83c.712-1.15 1.067-1.346 1.778-1.738q1.065-.588 2.49-.588m0 15.24q.626 0 1.098-.327.47-.327.79-1.066.32-.738.484-1.921T2.53.098c0-1.725-.054-2.13-.163-2.94s-.27-1.473-.484-1.987q-.32-.77-.79-1.13t-1.098-.36q-.614 0-1.085.353-.47.353-.797 1.124t-.49 1.986Q-2.541-1.64-2.541.098q0 1.725.163 2.915t.49 1.92q.326.733.797 1.06.47.327 1.085.326"/></g><g id="o"><path fill="#fff" stroke-width="0" d="M-7.55-14.35h11.7v28.4h-11.7z"/><path fill="#1b1b1b" stroke-width="null" d="M-4.35-14.5h1v29h-1zM-1.65-14.5h2.4v29h-2.4z"/></g><path id="b" d="M43.5 42.01v15.98h4.545q3.635 0 6.045-2.114t2.41-5.665q0-3.72-2.41-5.96t-6.193-2.241zm2.05 14.141V43.828h2.326q3.044 0 4.756 1.67t1.712 4.65q0 3.002-1.755 4.502t-4.608 1.501z" transform="translate(-50 -50)"/><path id="c" fill="#1b1b1b" stroke-linecap="null" stroke-linejoin="null" stroke-width="33" d="M51 49h21v2H51z" transform="translate(-50 -50)"/><path id="d" d="M53.954 46.549q0 .367-.078.749a3.8 3.8 0 0 1-.236.744 3.5 3.5 0 0 1-.393.68q-.235.32-.55.561.462.24.817.613.357.371.598.833.24.46.366.985.126.523.126 1.068 0 .965-.356 1.77c-.356.806-.562 1-.974 1.383q-.619.576-1.467.896c-.848.32-1.174.32-1.823.32a5 5 0 0 1-1.802-.315 4.3 4.3 0 0 1-1.419-.885 4.2 4.2 0 0 1-.958-1.383 5.1 5.1 0 0 1-.409-1.807h2.566q0 .471.131.89.132.42.388.734t.634.497q.376.184.87.184.471 0 .858-.168.389-.168.66-.466.273-.3.42-.713t.146-.906q0-.502-.152-.922a1.9 1.9 0 0 0-.45-.717 2.1 2.1 0 0 0-.734-.467 2.8 2.8 0 0 0-1.01-.167h-1.048v-2.085h.796q.984 0 1.472-.519.487-.518.487-1.409 0-.786-.409-1.189-.408-.403-1.162-.403-1.562 0-1.781 2.01h-2.536q.115-1.005.482-1.77.367-.764.933-1.283.565-.519 1.299-.78a4.6 4.6 0 0 1 1.571-.263q.943 0 1.703.273.759.271 1.299.765.54.492.833 1.168.292.677.292 1.494" transform="translate(-50 -50)"/><path id="e" d="M54.966 54.053h-1.772v3.135h-2.551v-3.135h-5.61v-2.021l6.161-9.22h2v8.928h1.773zm-4.323-2.313V47.31l-2.81 4.431z" transform="translate(-50 -50)"/><path id="r" fill="none" stroke="#1b1b1b" stroke-linecap="round" stroke-linejoin="null" stroke-width="1.2" d="M50.75 50.75s-8.394.57-12.219 8.884" transform="translate(-50 -50)"/><path id="s" fill="none" stroke="#1b1b1b" stroke-linecap="round" stroke-linejoin="null" stroke-width="1.2" d="M50.75 50.75s7.642.57 11.124 8.884" transform="translate(-50 -50)"/><circle id="p" cx="49.3" cy="36" r="1.9" fill="#1b1b1b" transform="translate(-50 -50)"/><circle id="q" cx="49.3" cy="63" r="1.9" fill="#1b1b1b" transform="translate(-50 -50)"/></defs><text x="596.5" y="110" fill="#1b1b1b" dy="35.091" font-family="PingFang SC, Microsoft YaHei, Open Sans, sans-serif" font-size="42" style="font-weight:700" text-anchor="middle">咏三三</text><use xmlns:xlink="http://www.w3.org/1999/xlink" xlink:href="#a" x="80" y="182"/><use xmlns:xlink="http://www.w3.org/1999/xlink" xlink:href="#b" x="120" y="182" data-diaohao="true"/><use xmlns:xlink="http://www.w3.org/1999/xlink" xlink:href="#c" x="130" y="182"/><use xmlns:xlink="http://www.w3.org/1999/xlink" xlink:href="#d" x="140" y="170"/><use xmlns:xlink="http://www.w3.org/1999/xlink" xlink:href="#e" x="140" y="194" fill="#414141"/><text x="80" y="223" fill="#1b1b1b" dy="5.368" font-family="PingFang SC, Microsoft YaHei, Open Sans, sans-serif" font-size="16">轻快、悠扬</text><text x="1113" y="232" fill="#1b1b1b" dy="-2.632" font-family="PingFang SC, Microsoft YaHei, Open Sans, sans-serif" font-size="16" text-anchor="end">朱健仁 曲</text><use xmlns:xlink="http://www.w3.org/1999/xlink" xlink:href="#f" x="83" y="272"/><use xmlns:xlink="http://www.w3.org/1999/xlink" xlink:href="#g" x="113.989" y="272"/><text x="101.989" y="310" fill="#101010" dy="8.052" font-family="PingFang SC, Microsoft YaHei, Open Sans, sans-serif" font-size="24">请</text><use xmlns:xlink="http://www.w3.org/1999/xlink" xlink:href="#g" x="147.192" y="272"/><text x="135.192" y="310" fill="#101010" dy="8.052" font-family="PingFang SC, Microsoft YaHei, Open Sans, sans-serif" font-size="24">你</text><use xmlns:xlink="http://www.w3.org/1999/xlink" xlink:href="#g" x="180.395" y="272"/><text x="168.395" y="310" fill="#101010" dy="8.052" font-family="PingFang SC, Microsoft YaHei, Open Sans, sans-serif" font-size="24">们</text><use xmlns:xlink="http://www.w3.org/1999/xlink" xlink:href="#f" x="211.385" y="272"/><use xmlns:xlink="http://www.w3.org/1999/xlink" xlink:href="#g" x="242.374" y="272"/><text x="230.374" y="310" fill="#101010" dy="8.052" font-family="PingFang SC, Microsoft YaHei, Open Sans, sans-serif" font-size="24">体</text><use xmlns:xlink="http://www.w3.org/1999/xlink" xlink:href="#h" x="275.577" y="272"/><use xmlns:xlink="http://www.w3.org/1999/xlink" xlink:href="#g" x="308.78" y="272"/><text x="296.78" y="310" fill="#101010" dy="8.052" font-family="PingFang SC, Microsoft YaHei, Open Sans, sans-serif" font-size="24">验</text><use xmlns:xlink="http://www.w3.org/1999/xlink" xlink:href="#f" x="339.77" y="272"/><use xmlns:xlink="http://www.w3.org/1999/xlink" xlink:href="#i" x="370.759" y="272"/><text x="358.759" y="310" fill="#101010" dy="8.052" font-family="PingFang SC, Microsoft YaHei, Open Sans, sans-serif" font-size="24">并</text><use xmlns:xlink="http://www.w3.org/1999/xlink" xlink:href="#h" x="403.962" y="272"/><use xmlns:xlink="http://www.w3.org/1999/xlink" xlink:href="#j" x="437.165" y="272"/><text x="425.165" y="310" fill="#101010" dy="8.052" font-family="PingFang SC, Microsoft YaHei, Open Sans, sans-serif" font-size="24">观</text><use xmlns:xlink="http://www.w3.org/1999/xlink" xlink:href="#f" x="468.154" y="272"/><use xmlns:xlink="http://www.w3.org/1999/xlink" xlink:href="#k" x="499.144" y="272"/><text x="487.144" y="310" fill="#101010" dy="8.052" font-family="PingFang SC, Microsoft YaHei, Open Sans, sans-serif" font-size="24">看</text><text x="511.144" y="310" fill="#101010" dy="8.052" font-family="PingFang SC, Microsoft YaHei, Open Sans, sans-serif" font-size="24">，</text><use xmlns:xlink="http://www.w3.org/1999/xlink" xlink:href="#l" x="532.347" y="272"/><use xmlns:xlink="http://www.w3.org/1999/xlink" xlink:href="#h" x="565.55" y="272"/><use xmlns:xlink="http://www.w3.org/1999/xlink" xlink:href="#f" x="596.539" y="272"/><use xmlns:xlink="http://www.w3.org/1999/xlink" xlink:href="#g" x="627.529" y="272"/><text x="615.529" y="310" fill="#101010" dy="8.052" font-family="PingFang SC, Microsoft YaHei, Open Sans, sans-serif" font-size="24">上</text><use xmlns:xlink="http://www.w3.org/1999/xlink" xlink:href="#g" x="660.732" y="272"/><text x="648.732" y="310" fill="#101010" dy="8.052" font-family="PingFang SC, Microsoft YaHei, Open Sans, sans-serif" font-size="24">主</text><use xmlns:xlink="http://www.w3.org/1999/xlink" xlink:href="#g" x="693.934" y="272"/><text x="681.934" y="310" fill="#101010" dy="8.052" font-family="PingFang SC, Microsoft YaHei, Open Sans, sans-serif" font-size="24">是</text><use xmlns:xlink="http://www.w3.org/1999/xlink" xlink:href="#f" x="724.924" y="272"/><use xmlns:xlink="http://www.w3.org/1999/xlink" xlink:href="#g" x="755.913" y="272"/><text x="743.913" y="310" fill="#101010" dy="8.052" font-family="PingFang SC, Microsoft YaHei, Open Sans, sans-serif" font-size="24">何</text><use xmlns:xlink="http://www.w3.org/1999/xlink" xlink:href="#g" x="789.116" y="272"/><text x="777.116" y="310" fill="#101010" dy="8.052" font-family="PingFang SC, Microsoft YaHei, Open Sans, sans-serif" font-size="24">等</text><use xmlns:xlink="http://www.w3.org/1999/xlink" xlink:href="#j" x="822.319" y="272"/><text x="810.319" y="310" fill="#101010" dy="8.052" font-family="PingFang SC, Microsoft YaHei, Open Sans, sans-serif" font-size="24">的</text><use xmlns:xlink="http://www.w3.org/1999/xlink" xlink:href="#f" x="853.309" y="272"/><use xmlns:xlink="http://www.w3.org/1999/xlink" xlink:href="#l" x="884.298" y="272"/><text x="872.298" y="310" fill="#101010" dy="8.052" font-family="PingFang SC, Microsoft YaHei, Open Sans, sans-serif" font-size="24">美</text><use xmlns:xlink="http://www.w3.org/1999/xlink" xlink:href="#k" x="917.501" y="272"/><text x="905.501" y="310" fill="#101010" dy="8.052" font-family="PingFang SC, Microsoft YaHei, Open Sans, sans-serif" font-size="24">善</text><text x="929.501" y="310" fill="#101010" dy="8.052" font-family="PingFang SC, Microsoft YaHei, Open Sans, sans-serif" font-size="24">。</text><use xmlns:xlink="http://www.w3.org/1999/xlink" xlink:href="#h" x="950.704" y="272"/><use xmlns:xlink="http://www.w3.org/1999/xlink" xlink:href="#f" x="981.693" y="272"/><use xmlns:xlink="http://www.w3.org/1999/xlink" xlink:href="#l" x="1012.683" y="272"/><use xmlns:xlink="http://www.w3.org/1999/xlink" xlink:href="#h" x="1045.886" y="272"/><use xmlns:xlink="http://www.w3.org/1999/xlink" xlink:href="#h" x="1079.089" y="272"/><use xmlns:xlink="http://www.w3.org/1999/xlink" xlink:href="#f" x="1116" y="272"/><use xmlns:xlink="http://www.w3.org/1999/xlink" xlink:href="#f" x="83" y="384"/><use xmlns:xlink="http://www.w3.org/1999/xlink" xlink:href="#g" x="113.348" y="384"/><text x="101.348" y="422" fill="#101010" dy="8.052" font-family="PingFang SC, Microsoft YaHei, Open Sans, sans-serif" font-size="24">请</text><use xmlns:xlink="http://www.w3.org/1999/xlink" xlink:href="#g" x="145.863" y="384"/><text x="133.863" y="422" fill="#101010" dy="8.052" font-family="PingFang SC, Microsoft YaHei, Open Sans, sans-serif" font-size="24">你</text><use xmlns:xlink="http://www.w3.org/1999/xlink" xlink:href="#g" x="178.379" y="384"/><text x="166.379" y="422" fill="#101010" dy="8.052" font-family="PingFang SC, Microsoft YaHei, Open Sans, sans-serif" font-size="24">们</text><use xmlns:xlink="http://www.w3.org/1999/xlink" xlink:href="#f" x="208.727" y="384"/><use xmlns:xlink="http://www.w3.org/1999/xlink" xlink:href="#g" x="239.075" y="384"/><text x="227.075" y="422" fill="#101010" dy="8.052" font-family="PingFang SC, Microsoft YaHei, Open Sans, sans-serif" font-size="24">体</text><use xmlns:xlink="http://www.w3.org/1999/xlink" xlink:href="#h" x="271.59" y="384"/><use xmlns:xlink="http://www.w3.org/1999/xlink" xlink:href="#j" x="304.106" y="384"/><text x="292.106" y="422" fill="#101010" dy="8.052" font-family="PingFang SC, Microsoft YaHei, Open Sans, sans-serif" font-size="24">验</text><use xmlns:xlink="http://www.w3.org/1999/xlink" xlink:href="#f" x="334.453" y="384"/><use xmlns:xlink="http://www.w3.org/1999/xlink" xlink:href="#k" x="364.801" y="384"/><text x="352.801" y="422" fill="#101010" dy="8.052" font-family="PingFang SC, Microsoft YaHei, Open Sans, sans-serif" font-size="24">并</text><use xmlns:xlink="http://www.w3.org/1999/xlink" xlink:href="#h" x="397.317" y="384"/><use xmlns:xlink="http://www.w3.org/1999/xlink" xlink:href="#k" x="429.832" y="384"/><text x="417.832" y="422" fill="#101010" dy="8.052" font-family="PingFang SC, Microsoft YaHei, Open Sans, sans-serif" font-size="24">观</text><use xmlns:xlink="http://www.w3.org/1999/xlink" xlink:href="#f" x="460.18" y="384"/><use xmlns:xlink="http://www.w3.org/1999/xlink" xlink:href="#l" x="490.528" y="384"/><text x="478.528" y="422" fill="#101010" dy="8.052" font-family="PingFang SC, Microsoft YaHei, Open Sans, sans-serif" font-size="24">看</text><text x="502.528" y="422" fill="#101010" dy="8.052" font-family="PingFang SC, Microsoft YaHei, Open Sans, sans-serif" font-size="24">，</text><use xmlns:xlink="http://www.w3.org/1999/xlink" xlink:href="#m" x="523.043" y="384"/><use xmlns:xlink="http://www.w3.org/1999/xlink" xlink:href="#h" x="555.559" y="384"/><use xmlns:xlink="http://www.w3.org/1999/xlink" xlink:href="#f" x="585.907" y="384"/><use xmlns:xlink="http://www.w3.org/1999/xlink" xlink:href="#g" x="616.255" y="384"/><text x="604.255" y="422" fill="#101010" dy="8.052" font-family="PingFang SC, Microsoft YaHei, Open Sans, sans-serif" font-size="24">上</text><use xmlns:xlink="http://www.w3.org/1999/xlink" xlink:href="#g" x="648.77" y="384"/><text x="636.77" y="422" fill="#101010" dy="8.052" font-family="PingFang SC, Microsoft YaHei, Open Sans, sans-serif" font-size="24">主</text><use xmlns:xlink="http://www.w3.org/1999/xlink" xlink:href="#g" x="681.286" y="384"/><text x="669.286" y="422" fill="#101010" dy="8.052" font-family="PingFang SC, Microsoft YaHei, Open Sans, sans-serif" font-size="24">是</text><use xmlns:xlink="http://www.w3.org/1999/xlink" xlink:href="#f" x="711.634" y="384"/><use xmlns:xlink="http://www.w3.org/1999/xlink" xlink:href="#m" x="741.981" y="384"/><text x="729.981" y="422" fill="#101010" dy="8.052" font-family="PingFang SC, Microsoft YaHei, Open Sans, sans-serif" font-size="24">何</text><use xmlns:xlink="http://www.w3.org/1999/xlink" xlink:href="#g" x="774.497" y="384"/><text x="762.497" y="422" fill="#101010" dy="8.052" font-family="PingFang SC, Microsoft YaHei, Open Sans, sans-serif" font-size="24">等</text><use xmlns:xlink="http://www.w3.org/1999/xlink" xlink:href="#m" x="796.174" y="384"/><text x="784.174" y="422" fill="#101010" dy="8.052" font-family="PingFang SC, Microsoft YaHei, Open Sans, sans-serif" font-size="24">的</text><use xmlns:xlink="http://www.w3.org/1999/xlink" xlink:href="#j" x="828.689" y="384"/><text x="816.689" y="422" fill="#101010" dy="8.052" font-family="PingFang SC, Microsoft YaHei, Open Sans, sans-serif" font-size="24">美</text><use xmlns:xlink="http://www.w3.org/1999/xlink" xlink:href="#f" x="859.037" y="384"/><use xmlns:xlink="http://www.w3.org/1999/xlink" xlink:href="#g" x="889.385" y="384"/><text x="877.385" y="422" fill="#101010" dy="8.052" font-family="PingFang SC, Microsoft YaHei, Open Sans, sans-serif" font-size="24">善</text><text x="901.385" y="422" fill="#101010" dy="8.052" font-family="PingFang SC, Microsoft YaHei, Open Sans, sans-serif" font-size="24">。</text><use xmlns:xlink="http://www.w3.org/1999/xlink" xlink:href="#h" x="921.901" y="384"/><use xmlns:xlink="http://www.w3.org/1999/xlink" xlink:href="#h" x="954.416" y="384"/><use xmlns:xlink="http://www.w3.org/1999/xlink" xlink:href="#f" x="984.764" y="384"/><use xmlns:xlink="http://www.w3.org/1999/xlink" xlink:href="#g" x="1015.112" y="384"/><use xmlns:xlink="http://www.w3.org/1999/xlink" xlink:href="#h" x="1047.627" y="384"/><use xmlns:xlink="http://www.w3.org/1999/xlink" xlink:href="#n" x="1080.143" y="384"/><use xmlns:xlink="http://www.w3.org/1999/xlink" xlink:href="#o" x="1116" y="384"/><path stroke="#1b1b1b" stroke-width="2" d="M768.497 397h33.677" data-type="jianshixian"/><use xmlns:xlink="http://www.w3.org/1999/xlink" xlink:href="#p" x="308.78" y="272"/><use xmlns:xlink="http://www.w3.org/1999/xlink" xlink:href="#q" x="828.689" y="385"/><path stroke="#1b1b1b" stroke-width=".5" d="M500.144 256c8.96-10 22.242-10 31.203 0m0 0c-8.961-9-22.242-9-31.203 0M918.501 256c27.555-10 65.627-10 93.182 0m0 0c-27.555-9-65.627-9-93.182 0M491.528 368c8.755-10 21.76-10 30.515 0m0 0c-8.754-9-21.76-9-30.515 0"/><use xmlns:xlink="http://www.w3.org/1999/xlink" xlink:href="#r" x="901.385" y="358.05"/><use xmlns:xlink="http://www.w3.org/1999/xlink" xlink:href="#s" x="1003.112" y="358.05"/><path fill="none" stroke="#1b1b1b" stroke-width="1.2" d="M902.185 358.8h101.927"/></svg>