<svg xmlns="http://www.w3.org/2000/svg" width="1200" height="675"><rect width="100%" height="100%" fill="#fff"/><defs><g id="a" fill="#1b1b1b"><path d="M13.9 7.812H5.081v-1.7h3.455V-5.645L5-4.6v-1.802L10.466-8V6.112H13.9z"/><path stroke-width="33" d="M18-3.141h11v2H18zM18 1.325h11v2H18z"/></g><g id="e"><path fill="#fff" stroke-width="0" d="M-4.95-14.15h9.9v28.4h-9.9z"/><path fill="#1b1b1b" stroke-width="null" d="M-.75-14.5h1.5v29h-1.5z"/></g><g id="f"><path fill="#fff" stroke-width="0" d="M-5.55-8.95h11.1v17.9h-11.1z"/><path d="M1.674 8.969h-3.22v-12.76q-1.428.517-3.954.517V-5.98q3.966 0 4.538-2.99h2.636z"/></g><g id="g"><path fill="#fff" stroke-width="0" d="M-5.55-8.95h11.1v17.9h-11.1z"/><path d="M5.88-6.864-.292 8.953h-3.527L2.313-5.968h-8.194v-2.985H5.881z"/></g><g id="h"><path fill="#fff" stroke-width="0" d="M-5.55-8.95h11.1v17.9h-11.1z"/><path d="M.3-6.276q-.533 0-.981.311-.448.312-.799.883-.35.57-.61 1.389c-.26.819-.303 1.155-.39 1.83q.675-.48 1.41-.779A4.1 4.1 0 0 1 .48-2.94q1.195 0 2.155.467.96.468 1.642 1.279.68.81 1.045 1.882.363 1.07.363 2.278c0 1.208-.13 1.566-.389 2.284q-.39 1.078-1.103 1.876c-.713.798-1.05.954-1.72 1.266q-1.006.467-2.24.467-1.414 0-2.518-.571A5.14 5.14 0 0 1-4.14 6.646Q-4.894 5.575-5.29 4.03q-.395-1.545-.395-3.504 0-2.285.383-4.037t1.142-2.94q.759-1.187 1.902-1.798 1.141-.61 2.66-.61.987 0 1.837.311a4.6 4.6 0 0 1 1.519.922q.668.61 1.116 1.538.447.929.63 2.149H2.335Q2.066-6.277.3-6.276M.117-.241q-1.35 0-2.739 1.389.039 1.194.253 2.142.214.947.571 1.61.357.66.864 1.018.506.357 1.13.357.544 0 .98-.246.434-.247.739-.682c.305-.435.36-.627.467-1.012q.163-.578.163-1.24 0-.675-.17-1.279A3.6 3.6 0 0 0 1.89.752a2.5 2.5 0 0 0-.766-.727A1.94 1.94 0 0 0 .118-.241"/></g><g id="i"><path fill="#fff" stroke-width="0" d="M-5.55-8.95h11.1v17.9h-11.1z"/><path d="M-1.99-3.011q.975-.46 2.345-.461 1.08 0 2.076.395.994.395 1.76 1.166.764.771 1.211 1.91.448 1.14.448 2.63 0 1.317-.428 2.457c-.428 1.14-.687 1.418-1.206 1.976s-1.148.995-1.89 1.312q-1.114.474-2.47.474a6.4 6.4 0 0 1-2.083-.336A5 5 0 0 1-3.959 7.49q-.759-.686-1.259-1.713c-.5-1.027-.545-1.49-.632-2.412h3.188q.08.725.304 1.265.224.541.56.896.336.356.757.527.422.172.896.172.633 0 1.147-.264t.883-.731.573-1.087c.204-.619.204-.856.204-1.33q0-.87-.21-1.53a3.2 3.2 0 0 0-.587-1.1 2.5 2.5 0 0 0-.896-.672 2.8 2.8 0 0 0-1.153-.23q-1.463 0-2.649 1.33H-5.27l.764-9.46h9.593v2.899h-6.852z"/></g><g id="j"><path fill="#fff" stroke-width="0" d="M-5.55-8.95h11.1v17.9h-11.1z"/><path fill="#1b1b1b" stroke-width="null" d="M-5.5-1.6h11v3.2h-11z"/></g><g id="k"><path fill="#fff" stroke-width="0" d="M-5.55-8.95h11.1v17.9h-11.1z"/><path d="M4.932-4.304q0 .457-.098.934a4.7 4.7 0 0 1-.294.927q-.195.451-.49.85a3.5 3.5 0 0 1-.686.699q.575.3 1.02.764.442.465.744 1.039.3.575.457 1.228.157.654.157 1.333 0 1.202-.444 2.208c-.444 1.006-.702 1.246-1.215 1.724q-.771.72-1.83 1.117c-1.059.397-1.463.399-2.273.399q-1.228 0-2.247-.392a5.3 5.3 0 0 1-1.77-1.104 5.25 5.25 0 0 1-1.195-1.725q-.445-1.012-.51-2.254h3.2q0 .588.164 1.11.163.524.483.915.32.393.79.621.471.229 1.085.229.588 0 1.072-.21.483-.209.823-.58.339-.374.523-.89a3.4 3.4 0 0 0 .183-1.13q0-.626-.19-1.15a2.4 2.4 0 0 0-.562-.894A2.6 2.6 0 0 0 .915.882 3.5 3.5 0 0 0-.346.673h-1.307v-2.6h.993q1.228 0 1.836-.647.607-.646.607-1.757 0-.98-.51-1.483-.508-.503-1.45-.503-1.946 0-2.22 2.508H-5.56q.144-1.254.601-2.208a5.2 5.2 0 0 1 1.163-1.6 4.7 4.7 0 0 1 1.62-.974 5.8 5.8 0 0 1 1.96-.327q1.176 0 2.124.34a4.75 4.75 0 0 1 1.62.954q.673.615 1.038 1.457.366.844.366 1.863"/></g><g id="l"><path fill="#fff" stroke-width="0" d="M-5.55-8.95h11.1v17.9h-11.1z"/><path d="M6.19 5.052H3.98V8.96H.8V5.052h-6.99v-2.52l7.679-11.49H3.98V2.168h2.21zM.801 2.17v-5.524L-2.702 2.17z"/></g><g id="m"><path fill="#fff" stroke-width="0" d="M-5.55-8.95h11.1v17.9h-11.1z"/><path d="M5.876 8.92H-5.876q0-2.272.944-3.695.518-.758 1.382-1.662a23 23 0 0 1 2.14-1.94A40 40 0 0 0 .5-.013q.777-.717 1.25-1.35.471-.63.678-1.242c.207-.612.206-.847.206-1.317q0-1.116-.618-1.735-.62-.618-1.789-.618-.479 0-.917.193a2.2 2.2 0 0 0-.778.578 3.3 3.3 0 0 0-.565.95q-.226.567-.28 1.324H-5.53q.106-1.29.559-2.347c.453-1.057.702-1.303 1.203-1.795a5.3 5.3 0 0 1 1.775-1.143q1.023-.405 2.26-.406 1.33 0 2.373.386 1.044.385 1.749 1.063.705.679 1.077 1.596t.372 1.994q0 .998-.266 1.835a5.9 5.9 0 0 1-.798 1.596q-.504.69-1.502 1.728Q2.274 2.314.825 3.524q-.426.359-1.09.964A9.5 9.5 0 0 0-1.57 5.984h7.445z"/></g><g id="n"><path fill="#fff" stroke-width="0" d="M-7.55-14.35h11.7v28.4h-11.7z"/><path fill="#1b1b1b" stroke-width="null" d="M-4.35-14.5h1v29h-1zM-1.65-14.5h2.4v29h-2.4z"/></g><path id="b" fill="#1b1b1b" d="M56.3 56.673q-2.296 1.33-5.182 1.33-3.333 0-5.376-2.128t-2.042-5.67q0-3.583 2.256-5.896t5.771-2.313q2.48 0 4.207.798v2.15q-1.829-1.167-4.39-1.167-2.5 0-4.135 1.73t-1.636 4.554q0 2.928 1.504 4.545t4.044 1.617q1.768 0 2.987-.676v-4.196h-3.333v-1.76H56.3z" transform="translate(-50 -50)"/><path id="c" fill="#1b1b1b" stroke-linecap="null" stroke-linejoin="null" stroke-width="33" d="M51 49h21v2H51z" transform="translate(-50 -50)"/><path id="d" d="M54.966 54.053h-1.772v3.135h-2.551v-3.135h-5.61v-2.021l6.161-9.22h2v8.928h1.773zm-4.323-2.313V47.31l-2.81 4.431z" transform="translate(-50 -50)"/><path id="q" fill="#1b1b1b" stroke-width="33" d="M41.542 35.032c.13-.074.334-.018.408.149.037.074.037.13.037 1.428 0 .76 0 1.372.019 1.372 0 0 .167-.074.37-.148.427-.167.483-.186.594-.093.13.093.13.111.13.853 0 .63 0 .686-.037.742-.019.037-.056.074-.074.093-.037.018-.26.13-.52.222l-.463.204-.019 1.502c0 .816 0 1.502.019 1.502 0 0 .167-.074.37-.148.427-.167.483-.185.594-.093.13.093.13.112.13.853 0 .631 0 .687-.037.742-.019.037-.056.074-.074.093a5 5 0 0 1-.52.223l-.463.204-.019 1.557c0 1.41-.018 1.577-.037 1.632a.331.331 0 0 1-.575 0c-.018-.055-.037-.204-.037-1.502v-1.428l-.797.315-.78.316v1.502c0 1.595 0 1.558-.092 1.65-.037.056-.167.112-.222.112-.075 0-.204-.056-.242-.112-.092-.092-.092-.055-.092-1.502 0-.76 0-1.372-.019-1.372 0 0-.167.074-.37.148-.427.167-.483.186-.594.093-.13-.093-.13-.111-.13-.853 0-.63 0-.686.037-.742.019-.037.056-.074.074-.093.037-.018.26-.13.52-.222l.482-.204v-1.502c0-.816 0-1.503-.019-1.503 0 0-.167.075-.37.149-.427.167-.483.185-.594.093-.13-.093-.13-.112-.13-.854 0-.63 0-.686.037-.741.019-.037.056-.075.074-.093.037-.019.26-.13.52-.223l.482-.204v-1.557c0-1.41.018-1.577.037-1.632a.331.331 0 0 1 .575 0c.018.055.037.204.037 1.502l.018 1.428.78-.316.778-.315v-1.502c0-1.41 0-1.502.037-1.576s.074-.112.167-.149m-.204 6.584v-1.502l-.797.315-.78.315v3.023l.056-.018c.038-.019.39-.167.798-.316l.723-.296z" transform="translate(-50 -50)"/><circle id="o" cx="49.3" cy="63" r="1.9" fill="#1b1b1b" transform="translate(-50 -50)"/><circle id="p" cx="62.35" cy="49.75" r="2.45" fill="#1b1b1b" transform="translate(-50 -50)"/></defs><text x="596.5" y="110" fill="#1b1b1b" dy="35.091" font-family="PingFang SC, Microsoft YaHei, Open Sans, sans-serif" font-size="42" style="font-weight:700" text-anchor="middle">咏二九</text><use xmlns:xlink="http://www.w3.org/1999/xlink" xlink:href="#a" x="80" y="182"/><use xmlns:xlink="http://www.w3.org/1999/xlink" xlink:href="#b" x="120" y="182" data-diaohao="true"/><use xmlns:xlink="http://www.w3.org/1999/xlink" xlink:href="#c" x="130" y="182"/><use xmlns:xlink="http://www.w3.org/1999/xlink" xlink:href="#d" x="140" y="170"/><use xmlns:xlink="http://www.w3.org/1999/xlink" xlink:href="#d" x="140" y="194" fill="#414141"/><text x="80" y="223" fill="#1b1b1b" dy="5.368" font-family="PingFang SC, Microsoft YaHei, Open Sans, sans-serif" font-size="16">愉快、悠扬</text><text x="1113" y="232" fill="#1b1b1b" dy="-2.632" font-family="PingFang SC, Microsoft YaHei, Open Sans, sans-serif" font-size="16" text-anchor="end">朱健仁 曲</text><use xmlns:xlink="http://www.w3.org/1999/xlink" xlink:href="#e" x="83" y="272"/><use xmlns:xlink="http://www.w3.org/1999/xlink" xlink:href="#f" x="123.604" y="272"/><text x="111.604" y="310" fill="#101010" dy="8.052" font-family="PingFang SC, Microsoft YaHei, Open Sans, sans-serif" font-size="24">上</text><use xmlns:xlink="http://www.w3.org/1999/xlink" xlink:href="#g" x="167.108" y="272"/><use xmlns:xlink="http://www.w3.org/1999/xlink" xlink:href="#h" x="210.612" y="272"/><text x="198.612" y="310" fill="#101010" dy="8.052" font-family="PingFang SC, Microsoft YaHei, Open Sans, sans-serif" font-size="24">主</text><text x="222.612" y="310" fill="#101010" dy="8.052" font-family="PingFang SC, Microsoft YaHei, Open Sans, sans-serif" font-size="24">，</text><use xmlns:xlink="http://www.w3.org/1999/xlink" xlink:href="#h" x="268.618" y="272"/><text x="256.618" y="310" fill="#101010" dy="8.052" font-family="PingFang SC, Microsoft YaHei, Open Sans, sans-serif" font-size="24">我</text><use xmlns:xlink="http://www.w3.org/1999/xlink" xlink:href="#g" x="312.122" y="272"/><use xmlns:xlink="http://www.w3.org/1999/xlink" xlink:href="#e" x="352.726" y="272"/><use xmlns:xlink="http://www.w3.org/1999/xlink" xlink:href="#f" x="393.33" y="272"/><text x="381.33" y="310" fill="#101010" dy="8.052" font-family="PingFang SC, Microsoft YaHei, Open Sans, sans-serif" font-size="24">称</text><use xmlns:xlink="http://www.w3.org/1999/xlink" xlink:href="#g" x="436.834" y="272"/><text x="424.834" y="310" fill="#101010" dy="8.052" font-family="PingFang SC, Microsoft YaHei, Open Sans, sans-serif" font-size="24">扬</text><use xmlns:xlink="http://www.w3.org/1999/xlink" xlink:href="#h" x="480.338" y="272"/><text x="468.338" y="310" fill="#101010" dy="8.052" font-family="PingFang SC, Microsoft YaHei, Open Sans, sans-serif" font-size="24">你</text><text x="492.338" y="310" fill="#101010" dy="8.052" font-family="PingFang SC, Microsoft YaHei, Open Sans, sans-serif" font-size="24">，</text><use xmlns:xlink="http://www.w3.org/1999/xlink" xlink:href="#h" x="538.343" y="272"/><text x="526.343" y="310" fill="#101010" dy="8.052" font-family="PingFang SC, Microsoft YaHei, Open Sans, sans-serif" font-size="24">因</text><use xmlns:xlink="http://www.w3.org/1999/xlink" xlink:href="#h" x="581.848" y="272"/><text x="569.848" y="310" fill="#101010" dy="8.052" font-family="PingFang SC, Microsoft YaHei, Open Sans, sans-serif" font-size="24">为</text><use xmlns:xlink="http://www.w3.org/1999/xlink" xlink:href="#e" x="622.452" y="272"/><use xmlns:xlink="http://www.w3.org/1999/xlink" xlink:href="#i" x="663.055" y="272"/><text x="651.055" y="310" fill="#101010" dy="8.052" font-family="PingFang SC, Microsoft YaHei, Open Sans, sans-serif" font-size="24">你</text><use xmlns:xlink="http://www.w3.org/1999/xlink" xlink:href="#j" x="706.56" y="272"/><use xmlns:xlink="http://www.w3.org/1999/xlink" xlink:href="#i" x="750.064" y="272"/><text x="738.064" y="310" fill="#101010" dy="8.052" font-family="PingFang SC, Microsoft YaHei, Open Sans, sans-serif" font-size="24">救</text><use xmlns:xlink="http://www.w3.org/1999/xlink" xlink:href="#i" x="779.066" y="272"/><text x="767.066" y="310" fill="#101010" dy="8.052" font-family="PingFang SC, Microsoft YaHei, Open Sans, sans-serif" font-size="24">拔</text><use xmlns:xlink="http://www.w3.org/1999/xlink" xlink:href="#h" x="822.571" y="272"/><text x="810.571" y="310" fill="#101010" dy="8.052" font-family="PingFang SC, Microsoft YaHei, Open Sans, sans-serif" font-size="24">了</text><use xmlns:xlink="http://www.w3.org/1999/xlink" xlink:href="#k" x="851.573" y="272"/><text x="839.573" y="310" fill="#101010" dy="8.052" font-family="PingFang SC, Microsoft YaHei, Open Sans, sans-serif" font-size="24">我</text><text x="863.573" y="310" fill="#101010" dy="8.052" font-family="PingFang SC, Microsoft YaHei, Open Sans, sans-serif" font-size="24">。</text><use xmlns:xlink="http://www.w3.org/1999/xlink" xlink:href="#e" x="892.177" y="272"/><use xmlns:xlink="http://www.w3.org/1999/xlink" xlink:href="#k" x="932.781" y="272"/><use xmlns:xlink="http://www.w3.org/1999/xlink" xlink:href="#j" x="976.285" y="272"/><use xmlns:xlink="http://www.w3.org/1999/xlink" xlink:href="#j" x="1019.789" y="272"/><use xmlns:xlink="http://www.w3.org/1999/xlink" xlink:href="#j" x="1063.294" y="272"/><use xmlns:xlink="http://www.w3.org/1999/xlink" xlink:href="#e" x="1116" y="272"/><use xmlns:xlink="http://www.w3.org/1999/xlink" xlink:href="#e" x="83" y="384"/><use xmlns:xlink="http://www.w3.org/1999/xlink" xlink:href="#l" x="122.298" y="384"/><text x="110.298" y="422" fill="#101010" dy="8.052" font-family="PingFang SC, Microsoft YaHei, Open Sans, sans-serif" font-size="24">上</text><use xmlns:xlink="http://www.w3.org/1999/xlink" xlink:href="#m" x="164.402" y="384"/><use xmlns:xlink="http://www.w3.org/1999/xlink" xlink:href="#l" x="206.507" y="384"/><text x="194.507" y="422" fill="#101010" dy="8.052" font-family="PingFang SC, Microsoft YaHei, Open Sans, sans-serif" font-size="24">主</text><text x="218.507" y="422" fill="#101010" dy="8.052" font-family="PingFang SC, Microsoft YaHei, Open Sans, sans-serif" font-size="24">，</text><use xmlns:xlink="http://www.w3.org/1999/xlink" xlink:href="#m" x="262.646" y="384"/><text x="250.646" y="422" fill="#101010" dy="8.052" font-family="PingFang SC, Microsoft YaHei, Open Sans, sans-serif" font-size="24">我</text><use xmlns:xlink="http://www.w3.org/1999/xlink" xlink:href="#h" x="304.751" y="384"/><use xmlns:xlink="http://www.w3.org/1999/xlink" xlink:href="#e" x="344.048" y="384"/><use xmlns:xlink="http://www.w3.org/1999/xlink" xlink:href="#i" x="388.96" y="384"/><text x="376.96" y="422" fill="#101010" dy="8.052" font-family="PingFang SC, Microsoft YaHei, Open Sans, sans-serif" font-size="24">称</text><use xmlns:xlink="http://www.w3.org/1999/xlink" xlink:href="#i" x="442.292" y="384"/><text x="430.292" y="422" fill="#101010" dy="8.052" font-family="PingFang SC, Microsoft YaHei, Open Sans, sans-serif" font-size="24">扬</text><use xmlns:xlink="http://www.w3.org/1999/xlink" xlink:href="#k" x="490.011" y="384"/><text x="478.011" y="422" fill="#101010" dy="8.052" font-family="PingFang SC, Microsoft YaHei, Open Sans, sans-serif" font-size="24">你</text><text x="502.011" y="422" fill="#101010" dy="8.052" font-family="PingFang SC, Microsoft YaHei, Open Sans, sans-serif" font-size="24">，</text><use xmlns:xlink="http://www.w3.org/1999/xlink" xlink:href="#k" x="546.15" y="384"/><text x="534.15" y="422" fill="#101010" dy="8.052" font-family="PingFang SC, Microsoft YaHei, Open Sans, sans-serif" font-size="24">因</text><use xmlns:xlink="http://www.w3.org/1999/xlink" xlink:href="#k" x="588.255" y="384"/><text x="576.255" y="422" fill="#101010" dy="8.052" font-family="PingFang SC, Microsoft YaHei, Open Sans, sans-serif" font-size="24">为</text><use xmlns:xlink="http://www.w3.org/1999/xlink" xlink:href="#e" x="627.552" y="384"/><use xmlns:xlink="http://www.w3.org/1999/xlink" xlink:href="#i" x="672.464" y="384"/><text x="660.464" y="422" fill="#101010" dy="8.052" font-family="PingFang SC, Microsoft YaHei, Open Sans, sans-serif" font-size="24">你</text><use xmlns:xlink="http://www.w3.org/1999/xlink" xlink:href="#k" x="720.182" y="384"/><use xmlns:xlink="http://www.w3.org/1999/xlink" xlink:href="#m" x="762.287" y="384"/><text x="750.287" y="422" fill="#101010" dy="8.052" font-family="PingFang SC, Microsoft YaHei, Open Sans, sans-serif" font-size="24">救</text><use xmlns:xlink="http://www.w3.org/1999/xlink" xlink:href="#m" x="790.357" y="384"/><text x="778.357" y="422" fill="#101010" dy="8.052" font-family="PingFang SC, Microsoft YaHei, Open Sans, sans-serif" font-size="24">拔</text><use xmlns:xlink="http://www.w3.org/1999/xlink" xlink:href="#g" x="832.461" y="384"/><text x="820.461" y="422" fill="#101010" dy="8.052" font-family="PingFang SC, Microsoft YaHei, Open Sans, sans-serif" font-size="24">了</text><use xmlns:xlink="http://www.w3.org/1999/xlink" xlink:href="#h" x="860.531" y="384"/><text x="848.531" y="422" fill="#101010" dy="8.052" font-family="PingFang SC, Microsoft YaHei, Open Sans, sans-serif" font-size="24">我</text><text x="872.531" y="422" fill="#101010" dy="8.052" font-family="PingFang SC, Microsoft YaHei, Open Sans, sans-serif" font-size="24">。</text><use xmlns:xlink="http://www.w3.org/1999/xlink" xlink:href="#e" x="899.828" y="384"/><use xmlns:xlink="http://www.w3.org/1999/xlink" xlink:href="#h" x="939.126" y="384"/><use xmlns:xlink="http://www.w3.org/1999/xlink" xlink:href="#j" x="981.231" y="384"/><use xmlns:xlink="http://www.w3.org/1999/xlink" xlink:href="#j" x="1023.335" y="384"/><use xmlns:xlink="http://www.w3.org/1999/xlink" xlink:href="#j" x="1065.44" y="384"/><use xmlns:xlink="http://www.w3.org/1999/xlink" xlink:href="#n" x="1116" y="384"/><path stroke="#1b1b1b" stroke-width="2" d="M161.108 285h12M262.618 285h12M306.122 285h12M430.834 285h12M532.343 285h12M575.848 285h12M744.064 285h41.002M816.571 285h41.002M158.402 397h12M256.646 397h12M298.751 397h12M436.292 397h12M540.15 397h12M582.255 397h12M756.287 397h40.07M826.461 397h40.07" data-type="jianshixian"/><use xmlns:xlink="http://www.w3.org/1999/xlink" xlink:href="#o" x="167.108" y="277"/><use xmlns:xlink="http://www.w3.org/1999/xlink" xlink:href="#o" x="210.612" y="273"/><use xmlns:xlink="http://www.w3.org/1999/xlink" xlink:href="#p" x="210.612" y="272"/><use xmlns:xlink="http://www.w3.org/1999/xlink" xlink:href="#o" x="268.618" y="277"/><use xmlns:xlink="http://www.w3.org/1999/xlink" xlink:href="#o" x="312.122" y="277"/><use xmlns:xlink="http://www.w3.org/1999/xlink" xlink:href="#o" x="436.834" y="277"/><use xmlns:xlink="http://www.w3.org/1999/xlink" xlink:href="#o" x="480.338" y="273"/><use xmlns:xlink="http://www.w3.org/1999/xlink" xlink:href="#p" x="480.338" y="272"/><use xmlns:xlink="http://www.w3.org/1999/xlink" xlink:href="#o" x="538.343" y="277"/><use xmlns:xlink="http://www.w3.org/1999/xlink" xlink:href="#o" x="581.848" y="277"/><use xmlns:xlink="http://www.w3.org/1999/xlink" xlink:href="#o" x="663.055" y="273"/><use xmlns:xlink="http://www.w3.org/1999/xlink" xlink:href="#o" x="750.064" y="277"/><use xmlns:xlink="http://www.w3.org/1999/xlink" xlink:href="#o" x="779.066" y="277"/><use xmlns:xlink="http://www.w3.org/1999/xlink" xlink:href="#o" x="822.571" y="277"/><use xmlns:xlink="http://www.w3.org/1999/xlink" xlink:href="#o" x="851.573" y="277"/><use xmlns:xlink="http://www.w3.org/1999/xlink" xlink:href="#o" x="932.781" y="273"/><use xmlns:xlink="http://www.w3.org/1999/xlink" xlink:href="#o" x="124.798" y="385"/><use xmlns:xlink="http://www.w3.org/1999/xlink" xlink:href="#o" x="164.402" y="389"/><use xmlns:xlink="http://www.w3.org/1999/xlink" xlink:href="#o" x="209.007" y="385"/><use xmlns:xlink="http://www.w3.org/1999/xlink" xlink:href="#p" x="206.507" y="384"/><use xmlns:xlink="http://www.w3.org/1999/xlink" xlink:href="#o" x="262.646" y="389"/><use xmlns:xlink="http://www.w3.org/1999/xlink" xlink:href="#o" x="304.751" y="389"/><use xmlns:xlink="http://www.w3.org/1999/xlink" xlink:href="#o" x="388.96" y="385"/><use xmlns:xlink="http://www.w3.org/1999/xlink" xlink:href="#q" x="388.96" y="384"/><use xmlns:xlink="http://www.w3.org/1999/xlink" xlink:href="#o" x="442.292" y="389"/><use xmlns:xlink="http://www.w3.org/1999/xlink" xlink:href="#q" x="442.292" y="384"/><use xmlns:xlink="http://www.w3.org/1999/xlink" xlink:href="#o" x="490.011" y="385"/><use xmlns:xlink="http://www.w3.org/1999/xlink" xlink:href="#p" x="490.011" y="384"/><use xmlns:xlink="http://www.w3.org/1999/xlink" xlink:href="#o" x="546.15" y="389"/><use xmlns:xlink="http://www.w3.org/1999/xlink" xlink:href="#o" x="588.255" y="389"/><use xmlns:xlink="http://www.w3.org/1999/xlink" xlink:href="#o" x="672.464" y="385"/><use xmlns:xlink="http://www.w3.org/1999/xlink" xlink:href="#q" x="672.464" y="384"/><use xmlns:xlink="http://www.w3.org/1999/xlink" xlink:href="#o" x="720.182" y="385"/><use xmlns:xlink="http://www.w3.org/1999/xlink" xlink:href="#o" x="832.461" y="389"/><use xmlns:xlink="http://www.w3.org/1999/xlink" xlink:href="#o" x="860.531" y="389"/><use xmlns:xlink="http://www.w3.org/1999/xlink" xlink:href="#o" x="939.126" y="385"/><path stroke="#1b1b1b" stroke-width=".5" d="M124.604 256a32.46 32.46 0 0 1 41.504 0m0 0c-12.051-9-29.453-9-41.504 0M269.618 256a32.46 32.46 0 0 1 41.504 0m0 0c-12.051-9-29.453-9-41.504 0M852.573 256c23.363-10 55.846-10 79.208 0m0 0c-23.362-9-55.845-9-79.208 0M123.298 368c11.631-10 28.473-10 40.104 0m0 0c-11.631-9-28.473-9-40.104 0M263.646 368c11.631-10 28.473-10 40.105 0m0 0c-11.632-9-28.474-9-40.105 0M673.464 368c13.315-10 32.403-10 45.718 0m0 0c-13.315-9-32.403-9-45.718 0M861.53 368c22.58-10 54.017-10 76.596 0m0 0c-22.579-9-54.017-9-76.595 0"/></svg>