<svg xmlns="http://www.w3.org/2000/svg" width="1200" height="675"><rect width="100%" height="100%" fill="#fff"/><defs><g id="a" fill="#1b1b1b"><path d="M13.9 7.812H5.081v-1.7h3.455V-5.645L5-4.6v-1.802L10.466-8V6.112H13.9z"/><path stroke-width="33" d="M18-3.141h11v2H18zM18 1.325h11v2H18z"/></g><g id="e"><path fill="#fff" stroke-width="0" d="M-4.95-14.15h9.9v28.4h-9.9z"/><path fill="#1b1b1b" stroke-width="null" d="M-.75-14.5h1.5v29h-1.5z"/></g><g id="f"><path fill="#fff" stroke-width="0" d="M-5.55-8.95h11.1v17.9h-11.1z"/><path d="M4.932-4.304q0 .457-.098.934a4.7 4.7 0 0 1-.294.927q-.195.451-.49.85a3.5 3.5 0 0 1-.686.699q.575.3 1.02.764.442.465.744 1.039.3.575.457 1.228.157.654.157 1.333 0 1.202-.444 2.208c-.444 1.006-.702 1.246-1.215 1.724q-.771.72-1.83 1.117c-1.059.397-1.463.399-2.273.399q-1.228 0-2.247-.392a5.3 5.3 0 0 1-1.77-1.104 5.25 5.25 0 0 1-1.195-1.725q-.445-1.012-.51-2.254h3.2q0 .588.164 1.11.163.524.483.915.32.393.79.621.471.229 1.085.229.588 0 1.072-.21.483-.209.823-.58.339-.374.523-.89a3.4 3.4 0 0 0 .183-1.13q0-.626-.19-1.15a2.4 2.4 0 0 0-.562-.894A2.6 2.6 0 0 0 .915.882 3.5 3.5 0 0 0-.346.673h-1.307v-2.6h.993q1.228 0 1.836-.647.607-.646.607-1.757 0-.98-.51-1.483-.508-.503-1.45-.503-1.946 0-2.22 2.508H-5.56q.144-1.254.601-2.208a5.2 5.2 0 0 1 1.163-1.6 4.7 4.7 0 0 1 1.62-.974 5.8 5.8 0 0 1 1.96-.327q1.176 0 2.124.34a4.75 4.75 0 0 1 1.62.954q.673.615 1.038 1.457.366.844.366 1.863"/></g><g id="g"><path fill="#fff" stroke-width="0" d="M-5.55-8.95h11.1v17.9h-11.1z"/><path d="M5.876 8.92H-5.876q0-2.272.944-3.695.518-.758 1.382-1.662a23 23 0 0 1 2.14-1.94A40 40 0 0 0 .5-.013q.777-.717 1.25-1.35.471-.63.678-1.242c.207-.612.206-.847.206-1.317q0-1.116-.618-1.735-.62-.618-1.789-.618-.479 0-.917.193a2.2 2.2 0 0 0-.778.578 3.3 3.3 0 0 0-.565.95q-.226.567-.28 1.324H-5.53q.106-1.29.559-2.347c.453-1.057.702-1.303 1.203-1.795a5.3 5.3 0 0 1 1.775-1.143q1.023-.405 2.26-.406 1.33 0 2.373.386 1.044.385 1.749 1.063.705.679 1.077 1.596t.372 1.994q0 .998-.266 1.835a5.9 5.9 0 0 1-.798 1.596q-.504.69-1.502 1.728Q2.274 2.314.825 3.524q-.426.359-1.09.964A9.5 9.5 0 0 0-1.57 5.984h7.445z"/></g><g id="h"><path fill="#fff" stroke-width="0" d="M-5.55-8.95h11.1v17.9h-11.1z"/><path d="M1.674 8.969h-3.22v-12.76q-1.428.517-3.954.517V-5.98q3.966 0 4.538-2.99h2.636z"/></g><g id="i"><path fill="#fff" stroke-width="0" d="M-5.55-8.95h11.1v17.9h-11.1z"/><path d="M-1.99-3.011q.975-.46 2.345-.461 1.08 0 2.076.395.994.395 1.76 1.166.764.771 1.211 1.91.448 1.14.448 2.63 0 1.317-.428 2.457c-.428 1.14-.687 1.418-1.206 1.976s-1.148.995-1.89 1.312q-1.114.474-2.47.474a6.4 6.4 0 0 1-2.083-.336A5 5 0 0 1-3.959 7.49q-.759-.686-1.259-1.713c-.5-1.027-.545-1.49-.632-2.412h3.188q.08.725.304 1.265.224.541.56.896.336.356.757.527.422.172.896.172.633 0 1.147-.264t.883-.731.573-1.087c.204-.619.204-.856.204-1.33q0-.87-.21-1.53a3.2 3.2 0 0 0-.587-1.1 2.5 2.5 0 0 0-.896-.672 2.8 2.8 0 0 0-1.153-.23q-1.463 0-2.649 1.33H-5.27l.764-9.46h9.593v2.899h-6.852z"/></g><g id="j"><path fill="#fff" stroke-width="0" d="M-5.55-8.95h11.1v17.9h-11.1z"/><path fill="#1b1b1b" stroke-width="null" d="M-5.5-1.6h11v3.2h-11z"/></g><g id="k"><path fill="#fff" stroke-width="0" d="M-5.55-8.95h11.1v17.9h-11.1z"/><path d="M.3-6.276q-.533 0-.981.311-.448.312-.799.883-.35.57-.61 1.389c-.26.819-.303 1.155-.39 1.83q.675-.48 1.41-.779A4.1 4.1 0 0 1 .48-2.94q1.195 0 2.155.467.96.468 1.642 1.279.68.81 1.045 1.882.363 1.07.363 2.278c0 1.208-.13 1.566-.389 2.284q-.39 1.078-1.103 1.876c-.713.798-1.05.954-1.72 1.266q-1.006.467-2.24.467-1.414 0-2.518-.571A5.14 5.14 0 0 1-4.14 6.646Q-4.894 5.575-5.29 4.03q-.395-1.545-.395-3.504 0-2.285.383-4.037t1.142-2.94q.759-1.187 1.902-1.798 1.141-.61 2.66-.61.987 0 1.837.311a4.6 4.6 0 0 1 1.519.922q.668.61 1.116 1.538.447.929.63 2.149H2.335Q2.066-6.277.3-6.276M.117-.241q-1.35 0-2.739 1.389.039 1.194.253 2.142.214.947.571 1.61.357.66.864 1.018.506.357 1.13.357.544 0 .98-.246.434-.247.739-.682c.305-.435.36-.627.467-1.012q.163-.578.163-1.24 0-.675-.17-1.279A3.6 3.6 0 0 0 1.89.752a2.5 2.5 0 0 0-.766-.727A1.94 1.94 0 0 0 .118-.241"/></g><path id="b" fill="#1b1b1b" d="M55.85 42.827q-1.716-.91-4.32-.91-3.37 0-5.375 2.14t-2.005 5.654q0 3.762 2.264 6.067t5.736 2.305q2.232 0 3.7-.641v-2.109q-1.674.93-3.68.93-2.604 0-4.258-1.736t-1.654-4.692q0-2.812 1.54-4.465t4.021-1.654q2.315 0 4.031 1.054z" transform="translate(-50 -50)"/><path id="c" fill="#1b1b1b" stroke-linecap="null" stroke-linejoin="null" stroke-width="33" d="M51 49h21v2H51z" transform="translate(-50 -50)"/><path id="d" d="M54.966 54.053h-1.772v3.135h-2.551v-3.135h-5.61v-2.021l6.161-9.22h2v8.928h1.773zm-4.323-2.313V47.31l-2.81 4.431z" transform="translate(-50 -50)"/><path id="m" fill="none" stroke="#1b1b1b" stroke-linecap="round" stroke-linejoin="null" stroke-width="1.2" d="M50.75 50.75s-8.394.57-12.219 8.884" transform="translate(-50 -50)"/><path id="n" fill="none" stroke="#1b1b1b" stroke-linecap="round" stroke-linejoin="null" stroke-width="1.2" d="M50.75 50.75s7.642.57 11.124 8.884" transform="translate(-50 -50)"/><circle id="l" cx="49.3" cy="36" r="1.9" fill="#1b1b1b" transform="translate(-50 -50)"/></defs><text x="596.5" y="110" fill="#1b1b1b" dy="35.091" font-family="PingFang SC, Microsoft YaHei, Open Sans, sans-serif" font-size="42" style="font-weight:700" text-anchor="middle">咏七七</text><use xmlns:xlink="http://www.w3.org/1999/xlink" xlink:href="#a" x="80" y="182"/><use xmlns:xlink="http://www.w3.org/1999/xlink" xlink:href="#b" x="120" y="182" data-diaohao="true"/><use xmlns:xlink="http://www.w3.org/1999/xlink" xlink:href="#c" x="130" y="182"/><use xmlns:xlink="http://www.w3.org/1999/xlink" xlink:href="#d" x="140" y="170"/><use xmlns:xlink="http://www.w3.org/1999/xlink" xlink:href="#d" x="140" y="194" fill="#414141"/><text x="80" y="223" fill="#1b1b1b" dy="5.368" font-family="PingFang SC, Microsoft YaHei, Open Sans, sans-serif" font-size="16">欢乐、轻快</text><text x="1113" y="232" fill="#1b1b1b" dy="-2.632" font-family="PingFang SC, Microsoft YaHei, Open Sans, sans-serif" font-size="16" text-anchor="end">朱健仁 曲</text><use xmlns:xlink="http://www.w3.org/1999/xlink" xlink:href="#e" x="83" y="272"/><use xmlns:xlink="http://www.w3.org/1999/xlink" xlink:href="#f" x="128.664" y="272"/><text x="116.664" y="310" fill="#101010" dy="8.052" font-family="PingFang SC, Microsoft YaHei, Open Sans, sans-serif" font-size="24">上</text><use xmlns:xlink="http://www.w3.org/1999/xlink" xlink:href="#g" x="161.28" y="272"/><use xmlns:xlink="http://www.w3.org/1999/xlink" xlink:href="#h" x="210.206" y="272"/><text x="198.206" y="310" fill="#101010" dy="8.052" font-family="PingFang SC, Microsoft YaHei, Open Sans, sans-serif" font-size="24">主</text><use xmlns:xlink="http://www.w3.org/1999/xlink" xlink:href="#g" x="259.131" y="272"/><text x="247.131" y="310" fill="#101010" dy="8.052" font-family="PingFang SC, Microsoft YaHei, Open Sans, sans-serif" font-size="24">赏</text><use xmlns:xlink="http://www.w3.org/1999/xlink" xlink:href="#h" x="308.056" y="272"/><text x="296.056" y="310" fill="#101010" dy="8.052" font-family="PingFang SC, Microsoft YaHei, Open Sans, sans-serif" font-size="24">给</text><use xmlns:xlink="http://www.w3.org/1999/xlink" xlink:href="#e" x="353.72" y="272"/><use xmlns:xlink="http://www.w3.org/1999/xlink" xlink:href="#i" x="399.383" y="272"/><text x="387.383" y="310" fill="#101010" dy="8.052" font-family="PingFang SC, Microsoft YaHei, Open Sans, sans-serif" font-size="24">他</text><use xmlns:xlink="http://www.w3.org/1999/xlink" xlink:href="#f" x="448.308" y="272"/><text x="436.308" y="310" fill="#101010" dy="8.052" font-family="PingFang SC, Microsoft YaHei, Open Sans, sans-serif" font-size="24">们</text><use xmlns:xlink="http://www.w3.org/1999/xlink" xlink:href="#j" x="497.234" y="272"/><use xmlns:xlink="http://www.w3.org/1999/xlink" xlink:href="#j" x="546.159" y="272"/><use xmlns:xlink="http://www.w3.org/1999/xlink" xlink:href="#e" x="591.822" y="272"/><use xmlns:xlink="http://www.w3.org/1999/xlink" xlink:href="#h" x="637.486" y="272"/><text x="625.486" y="310" fill="#101010" dy="8.052" font-family="PingFang SC, Microsoft YaHei, Open Sans, sans-serif" font-size="24">天</text><use xmlns:xlink="http://www.w3.org/1999/xlink" xlink:href="#k" x="686.411" y="272"/><text x="674.411" y="310" fill="#101010" dy="8.052" font-family="PingFang SC, Microsoft YaHei, Open Sans, sans-serif" font-size="24">上</text><use xmlns:xlink="http://www.w3.org/1999/xlink" xlink:href="#k" x="735.336" y="272"/><text x="723.336" y="310" fill="#101010" dy="8.052" font-family="PingFang SC, Microsoft YaHei, Open Sans, sans-serif" font-size="24">的</text><use xmlns:xlink="http://www.w3.org/1999/xlink" xlink:href="#i" x="784.262" y="272"/><text x="772.262" y="310" fill="#101010" dy="8.052" font-family="PingFang SC, Microsoft YaHei, Open Sans, sans-serif" font-size="24">粮</text><use xmlns:xlink="http://www.w3.org/1999/xlink" xlink:href="#k" x="816.879" y="272"/><use xmlns:xlink="http://www.w3.org/1999/xlink" xlink:href="#e" x="862.542" y="272"/><use xmlns:xlink="http://www.w3.org/1999/xlink" xlink:href="#i" x="908.206" y="272"/><text x="896.206" y="310" fill="#101010" dy="8.052" font-family="PingFang SC, Microsoft YaHei, Open Sans, sans-serif" font-size="24">食</text><text x="920.206" y="310" fill="#101010" dy="8.052" font-family="PingFang SC, Microsoft YaHei, Open Sans, sans-serif" font-size="24">。</text><use xmlns:xlink="http://www.w3.org/1999/xlink" xlink:href="#j" x="957.131" y="272"/><use xmlns:xlink="http://www.w3.org/1999/xlink" xlink:href="#j" x="1006.056" y="272"/><use xmlns:xlink="http://www.w3.org/1999/xlink" xlink:href="#j" x="1054.981" y="272"/><use xmlns:xlink="http://www.w3.org/1999/xlink" xlink:href="#e" x="1116" y="272"/><use xmlns:xlink="http://www.w3.org/1999/xlink" xlink:href="#e" x="83" y="384"/><use xmlns:xlink="http://www.w3.org/1999/xlink" xlink:href="#k" x="121.472" y="384"/><text x="109.472" y="422" fill="#101010" dy="8.052" font-family="PingFang SC, Microsoft YaHei, Open Sans, sans-serif" font-size="24">上</text><use xmlns:xlink="http://www.w3.org/1999/xlink" xlink:href="#i" x="148.953" y="384"/><use xmlns:xlink="http://www.w3.org/1999/xlink" xlink:href="#f" x="190.173" y="384"/><text x="178.173" y="422" fill="#101010" dy="8.052" font-family="PingFang SC, Microsoft YaHei, Open Sans, sans-serif" font-size="24">主</text><use xmlns:xlink="http://www.w3.org/1999/xlink" xlink:href="#g" x="231.394" y="384"/><text x="219.394" y="422" fill="#101010" dy="8.052" font-family="PingFang SC, Microsoft YaHei, Open Sans, sans-serif" font-size="24">赏</text><use xmlns:xlink="http://www.w3.org/1999/xlink" xlink:href="#h" x="272.614" y="384"/><text x="260.614" y="422" fill="#101010" dy="8.052" font-family="PingFang SC, Microsoft YaHei, Open Sans, sans-serif" font-size="24">给</text><use xmlns:xlink="http://www.w3.org/1999/xlink" xlink:href="#e" x="311.087" y="384"/><use xmlns:xlink="http://www.w3.org/1999/xlink" xlink:href="#i" x="349.559" y="384"/><text x="337.559" y="422" fill="#101010" dy="8.052" font-family="PingFang SC, Microsoft YaHei, Open Sans, sans-serif" font-size="24">他</text><use xmlns:xlink="http://www.w3.org/1999/xlink" xlink:href="#f" x="390.78" y="384"/><text x="378.78" y="422" fill="#101010" dy="8.052" font-family="PingFang SC, Microsoft YaHei, Open Sans, sans-serif" font-size="24">们</text><use xmlns:xlink="http://www.w3.org/1999/xlink" xlink:href="#j" x="432" y="384"/><use xmlns:xlink="http://www.w3.org/1999/xlink" xlink:href="#j" x="473.22" y="384"/><use xmlns:xlink="http://www.w3.org/1999/xlink" xlink:href="#e" x="511.693" y="384"/><use xmlns:xlink="http://www.w3.org/1999/xlink" xlink:href="#g" x="550.165" y="384"/><text x="538.165" y="422" fill="#101010" dy="8.052" font-family="PingFang SC, Microsoft YaHei, Open Sans, sans-serif" font-size="24">天</text><use xmlns:xlink="http://www.w3.org/1999/xlink" xlink:href="#h" x="591.386" y="384"/><text x="579.386" y="422" fill="#101010" dy="8.052" font-family="PingFang SC, Microsoft YaHei, Open Sans, sans-serif" font-size="24">上</text><use xmlns:xlink="http://www.w3.org/1999/xlink" xlink:href="#g" x="632.606" y="384"/><text x="620.606" y="422" fill="#101010" dy="8.052" font-family="PingFang SC, Microsoft YaHei, Open Sans, sans-serif" font-size="24">的</text><use xmlns:xlink="http://www.w3.org/1999/xlink" xlink:href="#h" x="673.827" y="384"/><text x="661.827" y="422" fill="#101010" dy="8.052" font-family="PingFang SC, Microsoft YaHei, Open Sans, sans-serif" font-size="24">粮</text><use xmlns:xlink="http://www.w3.org/1999/xlink" xlink:href="#g" x="701.307" y="384"/><use xmlns:xlink="http://www.w3.org/1999/xlink" xlink:href="#e" x="739.78" y="384"/><use xmlns:xlink="http://www.w3.org/1999/xlink" xlink:href="#h" x="778.252" y="384"/><text x="766.252" y="422" fill="#101010" dy="8.052" font-family="PingFang SC, Microsoft YaHei, Open Sans, sans-serif" font-size="24">食</text><text x="790.252" y="422" fill="#101010" dy="8.052" font-family="PingFang SC, Microsoft YaHei, Open Sans, sans-serif" font-size="24">。</text><use xmlns:xlink="http://www.w3.org/1999/xlink" xlink:href="#j" x="819.472" y="384"/><use xmlns:xlink="http://www.w3.org/1999/xlink" xlink:href="#j" x="860.693" y="384"/><use xmlns:xlink="http://www.w3.org/1999/xlink" xlink:href="#j" x="901.913" y="384"/><use xmlns:xlink="http://www.w3.org/1999/xlink" xlink:href="#h" x="943.134" y="384"/><use xmlns:xlink="http://www.w3.org/1999/xlink" xlink:href="#j" x="984.354" y="384"/><use xmlns:xlink="http://www.w3.org/1999/xlink" xlink:href="#j" x="1025.575" y="384"/><use xmlns:xlink="http://www.w3.org/1999/xlink" xlink:href="#j" x="1066.795" y="384"/><use xmlns:xlink="http://www.w3.org/1999/xlink" xlink:href="#e" x="1116" y="384"/><path stroke="#1b1b1b" stroke-width="2" d="M122.664 285h44.616M778.262 285h44.617M115.472 397h39.481M667.827 397h39.48" data-type="jianshixian"/><use xmlns:xlink="http://www.w3.org/1999/xlink" xlink:href="#l" x="637.486" y="272"/><path stroke="#1b1b1b" stroke-width=".5" d="M129.664 256c8.785-10 21.831-10 30.616 0m0 0c-8.785-9-21.831-9-30.616 0M785.262 256c8.785-10 21.831-10 30.617 0m0 0c-8.786-9-21.832-9-30.617 0M122.472 368c7.245-10 18.237-10 25.48 0m0 0c-7.243-9-18.235-9-25.48 0M674.827 368c7.244-10 18.236-10 25.48 0m0 0c-7.244-9-18.236-9-25.48 0"/><use xmlns:xlink="http://www.w3.org/1999/xlink" xlink:href="#m" x="790.252" y="358.05"/><use xmlns:xlink="http://www.w3.org/1999/xlink" xlink:href="#n" x="931.134" y="358.05"/><path fill="none" stroke="#1b1b1b" stroke-width="1.2" d="M791.052 358.8h141.082"/></svg>