<svg xmlns="http://www.w3.org/2000/svg" width="1200" height="675"><rect width="100%" height="100%" fill="#fff"/><defs><g id="a" fill="#1b1b1b"><path d="M13.9 7.812H5.081v-1.7h3.455V-5.645L5-4.6v-1.802L10.466-8V6.112H13.9z"/><path stroke-width="33" d="M18-3.141h11v2H18zM18 1.325h11v2H18z"/></g><g id="e"><path fill="#fff" stroke-width="0" d="M-4.95-14.15h9.9v28.4h-9.9z"/><path fill="#1b1b1b" stroke-width="null" d="M-.75-14.5h1.5v29h-1.5z"/></g><g id="f"><path fill="#fff" stroke-width="0" d="M-5.55-8.95h11.1v17.9h-11.1z"/><path d="M1.674 8.969h-3.22v-12.76q-1.428.517-3.954.517V-5.98q3.966 0 4.538-2.99h2.636z"/></g><g id="g"><path fill="#fff" stroke-width="0" d="M-5.55-8.95h11.1v17.9h-11.1z"/><path d="M5.88-6.864-.292 8.953h-3.527L2.313-5.968h-8.194v-2.985H5.881z"/></g><g id="h"><path fill="#fff" stroke-width="0" d="M-5.55-8.95h11.1v17.9h-11.1z"/><path d="M.3-6.276q-.533 0-.981.311-.448.312-.799.883-.35.57-.61 1.389c-.26.819-.303 1.155-.39 1.83q.675-.48 1.41-.779A4.1 4.1 0 0 1 .48-2.94q1.195 0 2.155.467.96.468 1.642 1.279.68.81 1.045 1.882.363 1.07.363 2.278c0 1.208-.13 1.566-.389 2.284q-.39 1.078-1.103 1.876c-.713.798-1.05.954-1.72 1.266q-1.006.467-2.24.467-1.414 0-2.518-.571A5.14 5.14 0 0 1-4.14 6.646Q-4.894 5.575-5.29 4.03q-.395-1.545-.395-3.504 0-2.285.383-4.037t1.142-2.94q.759-1.187 1.902-1.798 1.141-.61 2.66-.61.987 0 1.837.311a4.6 4.6 0 0 1 1.519.922q.668.61 1.116 1.538.447.929.63 2.149H2.335Q2.066-6.277.3-6.276M.117-.241q-1.35 0-2.739 1.389.039 1.194.253 2.142.214.947.571 1.61.357.66.864 1.018.506.357 1.13.357.544 0 .98-.246.434-.247.739-.682c.305-.435.36-.627.467-1.012q.163-.578.163-1.24 0-.675-.17-1.279A3.6 3.6 0 0 0 1.89.752a2.5 2.5 0 0 0-.766-.727A1.94 1.94 0 0 0 .118-.241"/></g><g id="i"><path fill="#fff" stroke-width="0" d="M-5.55-8.95h11.1v17.9h-11.1z"/><path fill="#1b1b1b" stroke-width="null" d="M-5.5-1.6h11v3.2h-11z"/></g><g id="j"><path fill="#fff" stroke-width="0" d="M-5.55-8.95h11.1v17.9h-11.1z"/><path d="M-1.99-3.011q.975-.46 2.345-.461 1.08 0 2.076.395.994.395 1.76 1.166.764.771 1.211 1.91.448 1.14.448 2.63 0 1.317-.428 2.457c-.428 1.14-.687 1.418-1.206 1.976s-1.148.995-1.89 1.312q-1.114.474-2.47.474a6.4 6.4 0 0 1-2.083-.336A5 5 0 0 1-3.959 7.49q-.759-.686-1.259-1.713c-.5-1.027-.545-1.49-.632-2.412h3.188q.08.725.304 1.265.224.541.56.896.336.356.757.527.422.172.896.172.633 0 1.147-.264t.883-.731.573-1.087c.204-.619.204-.856.204-1.33q0-.87-.21-1.53a3.2 3.2 0 0 0-.587-1.1 2.5 2.5 0 0 0-.896-.672 2.8 2.8 0 0 0-1.153-.23q-1.463 0-2.649 1.33H-5.27l.764-9.46h9.593v2.899h-6.852z"/></g><g id="k"><path fill="#fff" stroke-width="0" d="M-5.55-8.95h11.1v17.9h-11.1z"/><path d="M4.932-4.304q0 .457-.098.934a4.7 4.7 0 0 1-.294.927q-.195.451-.49.85a3.5 3.5 0 0 1-.686.699q.575.3 1.02.764.442.465.744 1.039.3.575.457 1.228.157.654.157 1.333 0 1.202-.444 2.208c-.444 1.006-.702 1.246-1.215 1.724q-.771.72-1.83 1.117c-1.059.397-1.463.399-2.273.399q-1.228 0-2.247-.392a5.3 5.3 0 0 1-1.77-1.104 5.25 5.25 0 0 1-1.195-1.725q-.445-1.012-.51-2.254h3.2q0 .588.164 1.11.163.524.483.915.32.393.79.621.471.229 1.085.229.588 0 1.072-.21.483-.209.823-.58.339-.374.523-.89a3.4 3.4 0 0 0 .183-1.13q0-.626-.19-1.15a2.4 2.4 0 0 0-.562-.894A2.6 2.6 0 0 0 .915.882 3.5 3.5 0 0 0-.346.673h-1.307v-2.6h.993q1.228 0 1.836-.647.607-.646.607-1.757 0-.98-.51-1.483-.508-.503-1.45-.503-1.946 0-2.22 2.508H-5.56q.144-1.254.601-2.208a5.2 5.2 0 0 1 1.163-1.6 4.7 4.7 0 0 1 1.62-.974 5.8 5.8 0 0 1 1.96-.327q1.176 0 2.124.34a4.75 4.75 0 0 1 1.62.954q.673.615 1.038 1.457.366.844.366 1.863"/></g><g id="l"><path fill="#fff" stroke-width="0" d="M-5.55-8.95h11.1v17.9h-11.1z"/><path d="M5.876 8.92H-5.876q0-2.272.944-3.695.518-.758 1.382-1.662a23 23 0 0 1 2.14-1.94A40 40 0 0 0 .5-.013q.777-.717 1.25-1.35.471-.63.678-1.242c.207-.612.206-.847.206-1.317q0-1.116-.618-1.735-.62-.618-1.789-.618-.479 0-.917.193a2.2 2.2 0 0 0-.778.578 3.3 3.3 0 0 0-.565.95q-.226.567-.28 1.324H-5.53q.106-1.29.559-2.347c.453-1.057.702-1.303 1.203-1.795a5.3 5.3 0 0 1 1.775-1.143q1.023-.405 2.26-.406 1.33 0 2.373.386 1.044.385 1.749 1.063.705.679 1.077 1.596t.372 1.994q0 .998-.266 1.835a5.9 5.9 0 0 1-.798 1.596q-.504.69-1.502 1.728Q2.274 2.314.825 3.524q-.426.359-1.09.964A9.5 9.5 0 0 0-1.57 5.984h7.445z"/></g><g id="m"><path fill="#fff" stroke-width="0" d="M-5.55-8.95h11.1v17.9h-11.1z"/><path d="M-.006-8.92q1.424 0 2.49.588 1.065.588 1.777 1.739c.712 1.15.832 1.71 1.072 2.829q.36 1.68.359 3.862 0 4.34-1.431 6.58Q2.83 8.92-.006 8.92q-2.85 0-4.268-2.242-1.418-2.24-1.418-6.58 0-2.182.353-3.862t1.065-2.83c.712-1.15 1.067-1.346 1.778-1.738q1.065-.588 2.49-.588m0 15.24q.626 0 1.098-.327.47-.327.79-1.066.32-.738.484-1.921T2.53.098c0-1.725-.054-2.13-.163-2.94s-.27-1.473-.484-1.987q-.32-.77-.79-1.13t-1.098-.36q-.614 0-1.085.353-.47.353-.797 1.124t-.49 1.986Q-2.541-1.64-2.541.098q0 1.725.163 2.915t.49 1.92q.326.733.797 1.06.47.327 1.085.326"/></g><path id="b" fill="#1b1b1b" d="M56.3 56.673q-2.296 1.33-5.182 1.33-3.333 0-5.376-2.128t-2.042-5.67q0-3.583 2.256-5.896t5.771-2.313q2.48 0 4.207.798v2.15q-1.829-1.167-4.39-1.167-2.5 0-4.135 1.73t-1.636 4.554q0 2.928 1.504 4.545t4.044 1.617q1.768 0 2.987-.676v-4.196h-3.333v-1.76H56.3z" transform="translate(-50 -50)"/><path id="c" fill="#1b1b1b" stroke-linecap="null" stroke-linejoin="null" stroke-width="33" d="M51 49h21v2H51z" transform="translate(-50 -50)"/><path id="d" d="M54.966 54.053h-1.772v3.135h-2.551v-3.135h-5.61v-2.021l6.161-9.22h2v8.928h1.773zm-4.323-2.313V47.31l-2.81 4.431z" transform="translate(-50 -50)"/><circle id="n" cx="49.3" cy="63" r="1.9" fill="#1b1b1b" transform="translate(-50 -50)"/></defs><text x="596.5" y="110" fill="#1b1b1b" dy="35.091" font-family="PingFang SC, Microsoft YaHei, Open Sans, sans-serif" font-size="42" style="font-weight:700" text-anchor="middle">咏八四</text><use xmlns:xlink="http://www.w3.org/1999/xlink" xlink:href="#a" x="80" y="182"/><use xmlns:xlink="http://www.w3.org/1999/xlink" xlink:href="#b" x="120" y="182" data-diaohao="true"/><use xmlns:xlink="http://www.w3.org/1999/xlink" xlink:href="#c" x="130" y="182"/><use xmlns:xlink="http://www.w3.org/1999/xlink" xlink:href="#d" x="140" y="170"/><use xmlns:xlink="http://www.w3.org/1999/xlink" xlink:href="#d" x="140" y="194" fill="#414141"/><text x="80" y="223" fill="#1b1b1b" dy="5.368" font-family="PingFang SC, Microsoft YaHei, Open Sans, sans-serif" font-size="16">虔敬</text><text x="1113" y="232" fill="#1b1b1b" dy="-2.632" font-family="PingFang SC, Microsoft YaHei, Open Sans, sans-serif" font-size="16" text-anchor="end">朱健仁 曲</text><use xmlns:xlink="http://www.w3.org/1999/xlink" xlink:href="#e" x="83" y="272"/><use xmlns:xlink="http://www.w3.org/1999/xlink" xlink:href="#f" x="127.284" y="272"/><text x="115.284" y="310" fill="#101010" dy="8.052" font-family="PingFang SC, Microsoft YaHei, Open Sans, sans-serif" font-size="24">上</text><use xmlns:xlink="http://www.w3.org/1999/xlink" xlink:href="#g" x="174.731" y="272"/><use xmlns:xlink="http://www.w3.org/1999/xlink" xlink:href="#h" x="222.178" y="272"/><text x="210.178" y="310" fill="#101010" dy="8.052" font-family="PingFang SC, Microsoft YaHei, Open Sans, sans-serif" font-size="24">主</text><text x="234.178" y="310" fill="#101010" dy="8.052" font-family="PingFang SC, Microsoft YaHei, Open Sans, sans-serif" font-size="24">，</text><use xmlns:xlink="http://www.w3.org/1999/xlink" xlink:href="#i" x="269.625" y="272"/><use xmlns:xlink="http://www.w3.org/1999/xlink" xlink:href="#e" x="313.909" y="272"/><use xmlns:xlink="http://www.w3.org/1999/xlink" xlink:href="#h" x="358.193" y="272"/><text x="346.193" y="310" fill="#101010" dy="8.052" font-family="PingFang SC, Microsoft YaHei, Open Sans, sans-serif" font-size="24">求</text><use xmlns:xlink="http://www.w3.org/1999/xlink" xlink:href="#j" x="389.825" y="272"/><text x="377.825" y="310" fill="#101010" dy="8.052" font-family="PingFang SC, Microsoft YaHei, Open Sans, sans-serif" font-size="24">祢</text><use xmlns:xlink="http://www.w3.org/1999/xlink" xlink:href="#h" x="437.272" y="272"/><text x="425.272" y="310" fill="#101010" dy="8.052" font-family="PingFang SC, Microsoft YaHei, Open Sans, sans-serif" font-size="24">大</text><use xmlns:xlink="http://www.w3.org/1999/xlink" xlink:href="#f" x="468.903" y="272"/><text x="456.903" y="310" fill="#101010" dy="8.052" font-family="PingFang SC, Microsoft YaHei, Open Sans, sans-serif" font-size="24">发</text><use xmlns:xlink="http://www.w3.org/1999/xlink" xlink:href="#j" x="516.35" y="272"/><text x="504.35" y="310" fill="#101010" dy="8.052" font-family="PingFang SC, Microsoft YaHei, Open Sans, sans-serif" font-size="24">慈</text><use xmlns:xlink="http://www.w3.org/1999/xlink" xlink:href="#h" x="547.982" y="272"/><use xmlns:xlink="http://www.w3.org/1999/xlink" xlink:href="#h" x="595.429" y="272"/><text x="583.429" y="310" fill="#101010" dy="8.052" font-family="PingFang SC, Microsoft YaHei, Open Sans, sans-serif" font-size="24">悲</text><text x="607.429" y="310" fill="#101010" dy="8.052" font-family="PingFang SC, Microsoft YaHei, Open Sans, sans-serif" font-size="24">，</text><use xmlns:xlink="http://www.w3.org/1999/xlink" xlink:href="#e" x="639.713" y="272"/><use xmlns:xlink="http://www.w3.org/1999/xlink" xlink:href="#g" x="683.997" y="272"/><text x="671.997" y="310" fill="#101010" dy="8.052" font-family="PingFang SC, Microsoft YaHei, Open Sans, sans-serif" font-size="24">赐</text><use xmlns:xlink="http://www.w3.org/1999/xlink" xlink:href="#j" x="715.628" y="272"/><text x="703.628" y="310" fill="#101010" dy="8.052" font-family="PingFang SC, Microsoft YaHei, Open Sans, sans-serif" font-size="24">给</text><use xmlns:xlink="http://www.w3.org/1999/xlink" xlink:href="#k" x="763.076" y="272"/><text x="751.076" y="310" fill="#101010" dy="8.052" font-family="PingFang SC, Microsoft YaHei, Open Sans, sans-serif" font-size="24">我</text><use xmlns:xlink="http://www.w3.org/1999/xlink" xlink:href="#j" x="794.707" y="272"/><text x="782.707" y="310" fill="#101010" dy="8.052" font-family="PingFang SC, Microsoft YaHei, Open Sans, sans-serif" font-size="24">们</text><use xmlns:xlink="http://www.w3.org/1999/xlink" xlink:href="#g" x="842.154" y="272"/><text x="830.154" y="310" fill="#101010" dy="8.052" font-family="PingFang SC, Microsoft YaHei, Open Sans, sans-serif" font-size="24">救</text><use xmlns:xlink="http://www.w3.org/1999/xlink" xlink:href="#h" x="873.785" y="272"/><use xmlns:xlink="http://www.w3.org/1999/xlink" xlink:href="#h" x="921.233" y="272"/><text x="909.233" y="310" fill="#101010" dy="8.052" font-family="PingFang SC, Microsoft YaHei, Open Sans, sans-serif" font-size="24">恩</text><text x="933.233" y="310" fill="#101010" dy="8.052" font-family="PingFang SC, Microsoft YaHei, Open Sans, sans-serif" font-size="24">。</text><use xmlns:xlink="http://www.w3.org/1999/xlink" xlink:href="#e" x="965.517" y="272"/><use xmlns:xlink="http://www.w3.org/1999/xlink" xlink:href="#h" x="1009.801" y="272"/><use xmlns:xlink="http://www.w3.org/1999/xlink" xlink:href="#i" x="1057.248" y="272"/><use xmlns:xlink="http://www.w3.org/1999/xlink" xlink:href="#e" x="1116" y="272"/><use xmlns:xlink="http://www.w3.org/1999/xlink" xlink:href="#e" x="83" y="384"/><use xmlns:xlink="http://www.w3.org/1999/xlink" xlink:href="#k" x="123.604" y="384"/><text x="111.604" y="422" fill="#101010" dy="8.052" font-family="PingFang SC, Microsoft YaHei, Open Sans, sans-serif" font-size="24">上</text><use xmlns:xlink="http://www.w3.org/1999/xlink" xlink:href="#l" x="167.108" y="384"/><use xmlns:xlink="http://www.w3.org/1999/xlink" xlink:href="#f" x="210.612" y="384"/><text x="198.612" y="422" fill="#101010" dy="8.052" font-family="PingFang SC, Microsoft YaHei, Open Sans, sans-serif" font-size="24">主</text><text x="222.612" y="422" fill="#101010" dy="8.052" font-family="PingFang SC, Microsoft YaHei, Open Sans, sans-serif" font-size="24">，</text><use xmlns:xlink="http://www.w3.org/1999/xlink" xlink:href="#i" x="254.116" y="384"/><use xmlns:xlink="http://www.w3.org/1999/xlink" xlink:href="#e" x="294.72" y="384"/><use xmlns:xlink="http://www.w3.org/1999/xlink" xlink:href="#l" x="335.324" y="384"/><text x="323.324" y="422" fill="#101010" dy="8.052" font-family="PingFang SC, Microsoft YaHei, Open Sans, sans-serif" font-size="24">求</text><use xmlns:xlink="http://www.w3.org/1999/xlink" xlink:href="#f" x="364.327" y="384"/><text x="352.327" y="422" fill="#101010" dy="8.052" font-family="PingFang SC, Microsoft YaHei, Open Sans, sans-serif" font-size="24">祢</text><use xmlns:xlink="http://www.w3.org/1999/xlink" xlink:href="#l" x="407.831" y="384"/><text x="395.831" y="422" fill="#101010" dy="8.052" font-family="PingFang SC, Microsoft YaHei, Open Sans, sans-serif" font-size="24">大</text><use xmlns:xlink="http://www.w3.org/1999/xlink" xlink:href="#k" x="436.834" y="384"/><text x="424.834" y="422" fill="#101010" dy="8.052" font-family="PingFang SC, Microsoft YaHei, Open Sans, sans-serif" font-size="24">发</text><use xmlns:xlink="http://www.w3.org/1999/xlink" xlink:href="#l" x="480.338" y="384"/><text x="468.338" y="422" fill="#101010" dy="8.052" font-family="PingFang SC, Microsoft YaHei, Open Sans, sans-serif" font-size="24">慈</text><use xmlns:xlink="http://www.w3.org/1999/xlink" xlink:href="#k" x="509.341" y="384"/><use xmlns:xlink="http://www.w3.org/1999/xlink" xlink:href="#k" x="552.845" y="384"/><text x="540.845" y="422" fill="#101010" dy="8.052" font-family="PingFang SC, Microsoft YaHei, Open Sans, sans-serif" font-size="24">悲</text><text x="564.845" y="422" fill="#101010" dy="8.052" font-family="PingFang SC, Microsoft YaHei, Open Sans, sans-serif" font-size="24">，</text><use xmlns:xlink="http://www.w3.org/1999/xlink" xlink:href="#e" x="593.449" y="384"/><use xmlns:xlink="http://www.w3.org/1999/xlink" xlink:href="#l" x="634.053" y="384"/><text x="622.053" y="422" fill="#101010" dy="8.052" font-family="PingFang SC, Microsoft YaHei, Open Sans, sans-serif" font-size="24">赐</text><use xmlns:xlink="http://www.w3.org/1999/xlink" xlink:href="#f" x="663.055" y="384"/><text x="651.055" y="422" fill="#101010" dy="8.052" font-family="PingFang SC, Microsoft YaHei, Open Sans, sans-serif" font-size="24">给</text><use xmlns:xlink="http://www.w3.org/1999/xlink" xlink:href="#h" x="706.56" y="384"/><text x="694.56" y="422" fill="#101010" dy="8.052" font-family="PingFang SC, Microsoft YaHei, Open Sans, sans-serif" font-size="24">我</text><use xmlns:xlink="http://www.w3.org/1999/xlink" xlink:href="#f" x="735.562" y="384"/><text x="723.562" y="422" fill="#101010" dy="8.052" font-family="PingFang SC, Microsoft YaHei, Open Sans, sans-serif" font-size="24">们</text><use xmlns:xlink="http://www.w3.org/1999/xlink" xlink:href="#l" x="779.066" y="384"/><text x="767.066" y="422" fill="#101010" dy="8.052" font-family="PingFang SC, Microsoft YaHei, Open Sans, sans-serif" font-size="24">救</text><use xmlns:xlink="http://www.w3.org/1999/xlink" xlink:href="#f" x="808.069" y="384"/><use xmlns:xlink="http://www.w3.org/1999/xlink" xlink:href="#f" x="851.573" y="384"/><text x="839.573" y="422" fill="#101010" dy="8.052" font-family="PingFang SC, Microsoft YaHei, Open Sans, sans-serif" font-size="24">恩</text><text x="863.573" y="422" fill="#101010" dy="8.052" font-family="PingFang SC, Microsoft YaHei, Open Sans, sans-serif" font-size="24">。</text><use xmlns:xlink="http://www.w3.org/1999/xlink" xlink:href="#e" x="892.177" y="384"/><use xmlns:xlink="http://www.w3.org/1999/xlink" xlink:href="#f" x="932.781" y="384"/><use xmlns:xlink="http://www.w3.org/1999/xlink" xlink:href="#i" x="976.285" y="384"/><use xmlns:xlink="http://www.w3.org/1999/xlink" xlink:href="#m" x="1019.789" y="384"/><use xmlns:xlink="http://www.w3.org/1999/xlink" xlink:href="#m" x="1063.294" y="384"/><use xmlns:xlink="http://www.w3.org/1999/xlink" xlink:href="#e" x="1116" y="384"/><path stroke="#1b1b1b" stroke-width="2" d="M352.193 285h43.632M431.272 285h43.631M510.35 285h43.632M677.997 285h43.631M757.076 285h43.631M836.154 285h43.631M329.324 397h41.003M401.831 397h41.003M474.338 397h41.003M628.053 397h41.002M700.56 397h41.002M773.066 397h41.003" data-type="jianshixian"/><use xmlns:xlink="http://www.w3.org/1999/xlink" xlink:href="#n" x="174.731" y="273"/><use xmlns:xlink="http://www.w3.org/1999/xlink" xlink:href="#n" x="358.193" y="277"/><use xmlns:xlink="http://www.w3.org/1999/xlink" xlink:href="#n" x="389.825" y="277"/><use xmlns:xlink="http://www.w3.org/1999/xlink" xlink:href="#n" x="437.272" y="277"/><use xmlns:xlink="http://www.w3.org/1999/xlink" xlink:href="#n" x="516.35" y="277"/><use xmlns:xlink="http://www.w3.org/1999/xlink" xlink:href="#n" x="547.982" y="277"/><use xmlns:xlink="http://www.w3.org/1999/xlink" xlink:href="#n" x="595.429" y="273"/><use xmlns:xlink="http://www.w3.org/1999/xlink" xlink:href="#n" x="683.997" y="277"/><use xmlns:xlink="http://www.w3.org/1999/xlink" xlink:href="#n" x="715.628" y="277"/><use xmlns:xlink="http://www.w3.org/1999/xlink" xlink:href="#n" x="763.076" y="277"/><use xmlns:xlink="http://www.w3.org/1999/xlink" xlink:href="#n" x="794.707" y="277"/><use xmlns:xlink="http://www.w3.org/1999/xlink" xlink:href="#n" x="842.154" y="277"/><use xmlns:xlink="http://www.w3.org/1999/xlink" xlink:href="#n" x="873.785" y="277"/><use xmlns:xlink="http://www.w3.org/1999/xlink" xlink:href="#n" x="921.233" y="273"/><use xmlns:xlink="http://www.w3.org/1999/xlink" xlink:href="#n" x="1009.801" y="273"/><use xmlns:xlink="http://www.w3.org/1999/xlink" xlink:href="#n" x="706.56" y="389"/><path stroke="#1b1b1b" stroke-width=".5" d="M128.284 256c13.234-10 32.213-10 45.447 0m0 0c-13.234-9-32.213-9-45.447 0M517.35 256c8.49-10 21.142-10 29.632 0m0 0c-8.49-9-21.142-9-29.632 0M843.154 256c8.49-10 21.142-10 29.631 0m0 0c-8.489-9-21.141-9-29.63 0M922.233 256c25.57-10 60.997-10 86.568 0m0 0c-25.57-9-60.998-9-86.568 0M124.604 368a32.46 32.46 0 0 1 41.504 0m0 0c-12.051-9-29.453-9-41.504 0M481.338 368c7.7-10 19.302-10 27.003 0m0 0c-7.701-9-19.302-9-27.003 0M780.066 368c7.701-10 19.302-10 27.003 0m0 0c-7.7-9-19.302-9-27.003 0M852.573 368c23.363-10 55.846-10 79.208 0m0 0c-23.362-9-55.845-9-79.208 0"/></svg>