<svg width="840" height="630" xmlns="http://www.w3.org/2000/svg"><rect height="100%" width="100%" fill="#fff"/><defs><g id="i"><path stroke-width="0" fill="#fff" d="M44.45 41.05h11.1v17.9h-11.1z" transform="translate(-50 -50)"/><path d="M50.3 43.724c-.355 0-.682.103-.981.311-.299.208-.565.502-.799.883-.233.38-.437.844-.61 1.389s-.303 1.155-.39 1.83c.45-.32.92-.58 1.41-.779a4.074 4.074 0 011.55-.298c.797 0 1.515.156 2.155.467.64.312 1.188.738 1.642 1.279.454.54.802 1.168 1.045 1.882.242.714.363 1.473.363 2.278s-.13 1.566-.389 2.284c-.26.719-.627 1.344-1.103 1.876s-1.05.954-1.72 1.266c-.671.311-1.417.467-2.24.467-.943 0-1.782-.19-2.518-.571a5.143 5.143 0 01-1.856-1.642c-.502-.714-.885-1.586-1.149-2.616-.263-1.03-.395-2.198-.395-3.504 0-1.523.127-2.869.383-4.037.255-1.168.636-2.148 1.142-2.94.506-.792 1.14-1.39 1.902-1.798.76-.407 1.648-.61 2.66-.61.658 0 1.27.104 1.837.311a4.57 4.57 0 011.519.922c.445.407.818.92 1.116 1.538.298.62.507 1.335.63 2.149h-3.168c-.18-1.559-.86-2.337-2.037-2.337zm-.182 6.035c-.9 0-1.814.463-2.739 1.389.026.796.11 1.51.253 2.142.143.631.333 1.168.571 1.61.238.44.526.78.864 1.018.337.238.714.357 1.13.357.363 0 .689-.082.98-.246.289-.165.536-.392.74-.682s.358-.627.466-1.012c.109-.385.163-.799.163-1.24 0-.45-.057-.876-.17-1.279a3.559 3.559 0 00-.486-1.064 2.458 2.458 0 00-.766-.727 1.94 1.94 0 00-1.006-.266z" transform="translate(-50 -50)"/></g><g id="a" fill="#1b1b1b"><path d="M63.9 57.812h-8.819v-1.7h3.455V44.355L55 45.4v-1.802L60.466 42v14.112H63.9v1.7z" transform="translate(-50 -50)"/><path stroke-width="33" d="M68 46.859h11v2H68zM68 51.325h11v2H68z" transform="translate(-50 -50)"/></g><g id="m"><path fill="#fff" stroke-width="0" d="M42.45 35.65h11.7v28.4h-11.7z" transform="translate(-50 -50)"/><path stroke-width="null" fill="#1b1b1b" d="M45.65 35.5h1v29h-1zM48.35 35.5h2.4v29h-2.4z" transform="translate(-50 -50)"/></g><g id="l"><path stroke-width="0" fill="#fff" d="M44.45 41.05h11.1v17.9h-11.1z" transform="translate(-50 -50)"/><path d="M49.994 41.08c.949 0 1.78.196 2.49.588.71.392 1.302.972 1.777 1.739s.832 1.71 1.072 2.829c.24 1.12.359 2.407.359 3.862 0 2.893-.477 5.086-1.431 6.58-.954 1.495-2.376 2.242-4.267 2.242-1.9 0-3.322-.747-4.268-2.242-.945-1.494-1.418-3.687-1.418-6.58 0-1.455.118-2.742.353-3.862s.59-2.063 1.065-2.83 1.067-1.346 1.778-1.738c.71-.392 1.54-.588 2.49-.588zm0 15.24c.418 0 .783-.11 1.098-.327.313-.218.577-.573.79-1.066.214-.492.375-1.132.484-1.921.109-.789.163-1.758.163-2.908s-.054-2.13-.163-2.94-.27-1.473-.484-1.987c-.214-.514-.477-.89-.79-1.13-.314-.24-.68-.36-1.098-.36-.41 0-.771.118-1.085.353-.313.235-.58.61-.797 1.124-.218.514-.382 1.176-.49 1.986-.109.81-.163 1.795-.163 2.954 0 1.15.054 2.122.163 2.915.108.792.272 1.433.49 1.92.217.489.484.842.797 1.06.314.218.675.326 1.085.326z" transform="translate(-50 -50)"/></g><g id="k"><path stroke-width="0" fill="#fff" d="M44.45 41.05h11.1v17.9h-11.1z" transform="translate(-50 -50)"/><path d="M55.876 58.92H44.124c0-1.515.314-2.746.944-3.695.345-.505.806-1.06 1.382-1.662a23.24 23.24 0 012.14-1.94 40.302 40.302 0 001.909-1.636c.518-.478.935-.928 1.25-1.35.314-.42.54-.835.678-1.242s.206-.847.206-1.317c0-.744-.206-1.323-.618-1.735-.413-.412-1.009-.618-1.789-.618a2.219 2.219 0 00-1.695.771 3.255 3.255 0 00-.565.95c-.15.378-.244.819-.28 1.324H44.47c.071-.86.257-1.642.559-2.347s.702-1.303 1.203-1.795a5.272 5.272 0 011.775-1.143c.682-.27 1.436-.406 2.26-.406.887 0 1.677.129 2.373.386.696.257 1.279.611 1.749 1.063.47.452.829.984 1.077 1.596.248.612.372 1.276.372 1.994 0 .665-.089 1.277-.266 1.835a5.85 5.85 0 01-.798 1.596c-.336.46-.837 1.037-1.502 1.728-.665.691-1.48 1.44-2.446 2.247-.284.24-.647.56-1.09.964a9.469 9.469 0 00-1.304 1.496h7.445v2.937z" transform="translate(-50 -50)"/></g><g id="f"><path fill="#fff" stroke-width="0" d="M45.05 35.85h9.9v28.4h-9.9z" transform="translate(-50 -50)"/><path stroke-width="null" fill="#1b1b1b" d="M49.25 35.5h1.5v29h-1.5z" transform="translate(-50 -50)"/></g><g id="g"><path stroke-width="0" fill="#fff" d="M44.45 41.05h11.1v17.9h-11.1z" transform="translate(-50 -50)"/><path d="M51.674 58.969h-3.22v-12.76c-.952.344-2.27.516-3.954.516v-2.704c2.644 0 4.157-.996 4.538-2.99h2.636v17.937z" transform="translate(-50 -50)"/></g><g id="h"><path stroke-width="0" fill="#fff" d="M44.45 41.05h11.1v17.9h-11.1z" transform="translate(-50 -50)"/><path d="M48.01 46.989c.65-.307 1.432-.461 2.345-.461.72 0 1.413.132 2.076.395.663.264 1.249.652 1.76 1.166.509.514.913 1.151 1.211 1.91.299.76.448 1.637.448 2.63 0 .878-.142 1.697-.428 2.457s-.687 1.418-1.206 1.976-1.148.995-1.89 1.312c-.743.316-1.566.474-2.47.474a6.347 6.347 0 01-2.083-.336 4.97 4.97 0 01-1.732-1.021c-.506-.457-.925-1.028-1.259-1.713s-.545-1.49-.632-2.412h3.188c.053.483.154.905.304 1.265.149.36.336.66.56.896.224.237.476.413.757.527.281.115.58.172.896.172.422 0 .804-.088 1.147-.264.342-.176.637-.42.883-.731.246-.312.437-.674.573-1.087s.204-.856.204-1.33c0-.58-.07-1.09-.21-1.53a3.168 3.168 0 00-.587-1.1 2.492 2.492 0 00-.896-.672 2.815 2.815 0 00-1.153-.23c-.975 0-1.858.443-2.649 1.33H44.73l.764-9.46h9.593v2.899h-6.852l-.225 2.938z" transform="translate(-50 -50)"/></g><g id="j"><path stroke-width="0" fill="#fff" d="M44.45 41.05h11.1v17.9h-11.1z" transform="translate(-50 -50)"/><path stroke-width="null" fill="#1b1b1b" d="M44.5 48.4h11v3.2h-11z" transform="translate(-50 -50)"/></g><path fill="#1b1b1b" d="M55.85 42.827q-1.716-.91-4.32-.91-3.37 0-5.375 2.14t-2.005 5.654q0 3.762 2.264 6.067t5.736 2.305q2.232 0 3.7-.641v-2.109q-1.674.93-3.68.93-2.604 0-4.258-1.736t-1.654-4.692q0-2.812 1.54-4.465t4.021-1.654q2.315 0 4.031 1.054v-1.943z" transform="translate(-50 -50)" id="b"/><path d="M54.966 54.053h-1.772v3.135h-2.551v-3.135h-5.61v-2.021l6.161-9.22h2v8.928h1.773v2.313zm-4.323-2.313V47.31l-2.81 4.431h2.81z" transform="translate(-50 -50)" id="e"/><path d="M54.732 57.184h-9.464c0-1.22.253-2.212.76-2.976.278-.407.65-.853 1.114-1.339a18.715 18.715 0 011.723-1.562 32.463 32.463 0 001.537-1.317 8.17 8.17 0 001.006-1.087c.254-.34.436-.673.546-1.001s.166-.682.166-1.06c0-.6-.166-1.065-.498-1.397-.332-.332-.863-.498-1.44-.498a1.787 1.787 0 00-1.365.621 2.622 2.622 0 00-.455.765 3.533 3.533 0 00-.225 1.066h-2.59c.056-.693.206-1.323.449-1.89s.566-1.05.969-1.445c.403-.397.88-.704 1.43-.921a4.9 4.9 0 011.82-.327c.713 0 1.35.104 1.91.31.56.208 1.03.493 1.408.857.379.364.668.793.868 1.285.2.493.3 1.028.3 1.606 0 .535-.072 1.028-.215 1.478a4.71 4.71 0 01-.642 1.284c-.271.372-.675.836-1.21 1.392a24.791 24.791 0 01-1.97 1.81c-.228.192-.521.451-.878.776a7.625 7.625 0 00-1.05 1.204h5.996v2.366z" transform="translate(-50 -50)" id="d"/><path fill="#1b1b1b" stroke-width="33" stroke-linejoin="null" stroke-linecap="null" d="M51 49h21v2H51z" transform="translate(-50 -50)" id="c"/><path stroke="#1b1b1b" d="M.75.75s-8.394.57-12.219 8.884" stroke-linecap="round" stroke-linejoin="null" stroke-width="1.2" fill="none" id="o"/><path stroke="#1b1b1b" d="M.75.75s7.642.57 11.124 8.884" stroke-linecap="round" stroke-linejoin="null" stroke-width="1.2" fill="none" id="p"/><circle cy="36" cx="49.3" fill="#1b1b1b" r="1.9" id="n" transform="translate(-50 -50)"/></defs><text x="420" y="46" dy="35.091" text-anchor="middle" fill="#1b1b1b" font-size="42" font-family="PingFang SC, Microsoft YaHei, Open Sans, sans-serif" font-weight="700">咏九五</text><use x="16" y="118" xlink:href="#a" xmlns:xlink="http://www.w3.org/1999/xlink"/><use x="56" y="118" xlink:href="#b" xmlns:xlink="http://www.w3.org/1999/xlink"/><use x="66" y="118" xlink:href="#c" xmlns:xlink="http://www.w3.org/1999/xlink"/><use x="76" y="106" xlink:href="#d" xmlns:xlink="http://www.w3.org/1999/xlink"/><use x="76" y="130" xlink:href="#e" fill="#414141" xmlns:xlink="http://www.w3.org/1999/xlink"/><text x="16" y="159" dy="5.368" fill="#1b1b1b" font-size="16" font-family="PingFang SC, Microsoft YaHei, Open Sans, sans-serif">欢庆、悠扬</text><text x="824" y="168" dy="-2.632" text-anchor="end" fill="#1b1b1b" font-size="16" font-family="PingFang SC, Microsoft YaHei, Open Sans, sans-serif">朱健仁 曲</text><use x="19" y="208" xlink:href="#f" xmlns:xlink="http://www.w3.org/1999/xlink"/><use x="68.818" y="208" xlink:href="#g" xmlns:xlink="http://www.w3.org/1999/xlink"/><text x="56.818" y="246" dy="8.052" fill="#101010" font-size="24" font-family="PingFang SC, Microsoft YaHei, Open Sans, sans-serif">救</text><use x="122.195" y="208" xlink:href="#g" xmlns:xlink="http://www.w3.org/1999/xlink"/><text x="110.195" y="246" dy="8.052" fill="#101010" font-size="24" font-family="PingFang SC, Microsoft YaHei, Open Sans, sans-serif">世</text><use x="175.571" y="208" xlink:href="#h" xmlns:xlink="http://www.w3.org/1999/xlink"/><text x="163.571" y="246" dy="8.052" fill="#101010" font-size="24" font-family="PingFang SC, Microsoft YaHei, Open Sans, sans-serif">主</text><use x="225.39" y="208" xlink:href="#f" xmlns:xlink="http://www.w3.org/1999/xlink"/><use x="275.208" y="208" xlink:href="#i" xmlns:xlink="http://www.w3.org/1999/xlink"/><text x="263.208" y="246" dy="8.052" fill="#101010" font-size="24" font-family="PingFang SC, Microsoft YaHei, Open Sans, sans-serif">今</text><use x="328.584" y="208" xlink:href="#h" xmlns:xlink="http://www.w3.org/1999/xlink"/><text x="316.584" y="246" dy="8.052" fill="#101010" font-size="24" font-family="PingFang SC, Microsoft YaHei, Open Sans, sans-serif">天</text><use x="381.961" y="208" xlink:href="#h" xmlns:xlink="http://www.w3.org/1999/xlink"/><text x="369.961" y="246" dy="8.052" fill="#101010" font-size="24" font-family="PingFang SC, Microsoft YaHei, Open Sans, sans-serif">为</text><use x="431.779" y="208" xlink:href="#f" xmlns:xlink="http://www.w3.org/1999/xlink"/><use x="481.597" y="208" xlink:href="#i" xmlns:xlink="http://www.w3.org/1999/xlink"/><text x="469.597" y="246" dy="8.052" fill="#101010" font-size="24" font-family="PingFang SC, Microsoft YaHei, Open Sans, sans-serif">我</text><use x="517.182" y="208" xlink:href="#i" xmlns:xlink="http://www.w3.org/1999/xlink"/><text x="505.182" y="246" dy="8.052" fill="#101010" font-size="24" font-family="PingFang SC, Microsoft YaHei, Open Sans, sans-serif">们</text><use x="570.558" y="208" xlink:href="#i" xmlns:xlink="http://www.w3.org/1999/xlink"/><text x="558.558" y="246" dy="8.052" fill="#101010" font-size="24" font-family="PingFang SC, Microsoft YaHei, Open Sans, sans-serif">诞</text><use x="606.143" y="208" xlink:href="#g" xmlns:xlink="http://www.w3.org/1999/xlink"/><text x="594.143" y="246" dy="8.052" fill="#101010" font-size="24" font-family="PingFang SC, Microsoft YaHei, Open Sans, sans-serif">生</text><use x="655.961" y="208" xlink:href="#f" xmlns:xlink="http://www.w3.org/1999/xlink"/><use x="705.779" y="208" xlink:href="#h" xmlns:xlink="http://www.w3.org/1999/xlink"/><text x="693.779" y="246" dy="8.052" fill="#101010" font-size="24" font-family="PingFang SC, Microsoft YaHei, Open Sans, sans-serif">了</text><use x="759.156" y="208" xlink:href="#j" xmlns:xlink="http://www.w3.org/1999/xlink"/><use x="827" y="208" xlink:href="#f" xmlns:xlink="http://www.w3.org/1999/xlink"/><use x="19" y="320" xlink:href="#f" xmlns:xlink="http://www.w3.org/1999/xlink"/><use x="77.714" y="320" xlink:href="#i" xmlns:xlink="http://www.w3.org/1999/xlink"/><text x="65.714" y="358" dy="8.052" fill="#101010" font-size="24" font-family="PingFang SC, Microsoft YaHei, Open Sans, sans-serif">他</text><use x="140.622" y="320" xlink:href="#g" xmlns:xlink="http://www.w3.org/1999/xlink"/><text x="128.622" y="358" dy="8.052" fill="#101010" font-size="24" font-family="PingFang SC, Microsoft YaHei, Open Sans, sans-serif">就</text><use x="203.531" y="320" xlink:href="#i" xmlns:xlink="http://www.w3.org/1999/xlink"/><text x="191.531" y="358" dy="8.052" fill="#101010" font-size="24" font-family="PingFang SC, Microsoft YaHei, Open Sans, sans-serif">是</text><use x="262.245" y="320" xlink:href="#f" xmlns:xlink="http://www.w3.org/1999/xlink"/><use x="320.959" y="320" xlink:href="#h" xmlns:xlink="http://www.w3.org/1999/xlink"/><text x="308.959" y="358" dy="8.052" fill="#101010" font-size="24" font-family="PingFang SC, Microsoft YaHei, Open Sans, sans-serif">主</text><use x="383.867" y="320" xlink:href="#k" xmlns:xlink="http://www.w3.org/1999/xlink"/><text x="371.867" y="358" dy="8.052" fill="#101010" font-size="24" font-family="PingFang SC, Microsoft YaHei, Open Sans, sans-serif">基</text><use x="442.582" y="320" xlink:href="#f" xmlns:xlink="http://www.w3.org/1999/xlink"/><use x="501.296" y="320" xlink:href="#g" xmlns:xlink="http://www.w3.org/1999/xlink"/><text x="489.296" y="358" dy="8.052" fill="#101010" font-size="24" font-family="PingFang SC, Microsoft YaHei, Open Sans, sans-serif">督</text><text x="513.296" y="358" dy="8.052" fill="#101010" font-size="24" font-family="PingFang SC, Microsoft YaHei, Open Sans, sans-serif">。</text><use x="564.204" y="320" xlink:href="#j" xmlns:xlink="http://www.w3.org/1999/xlink"/><use x="622.918" y="320" xlink:href="#f" xmlns:xlink="http://www.w3.org/1999/xlink"/><use x="681.633" y="320" xlink:href="#g" xmlns:xlink="http://www.w3.org/1999/xlink"/><use x="744.541" y="320" xlink:href="#l" xmlns:xlink="http://www.w3.org/1999/xlink"/><use x="827" y="320" xlink:href="#m" xmlns:xlink="http://www.w3.org/1999/xlink"/><path data-type="jianshixian" stroke-width="2" stroke="#1b1b1b" d="M62.818 221h12M169.571 221h12M269.208 221h12M375.961 221h12M475.597 221h47.585M564.558 221h47.585M71.714 333h12M197.531 333h12"/><use x="68.818" y="208" xlink:href="#n" xmlns:xlink="http://www.w3.org/1999/xlink"/><use x="122.195" y="208" xlink:href="#n" xmlns:xlink="http://www.w3.org/1999/xlink"/><use x="606.143" y="208" xlink:href="#n" xmlns:xlink="http://www.w3.org/1999/xlink"/><use x="140.622" y="320" xlink:href="#n" xmlns:xlink="http://www.w3.org/1999/xlink"/><use x="383.867" y="320" xlink:href="#n" xmlns:xlink="http://www.w3.org/1999/xlink"/><use x="501.296" y="320" xlink:href="#n" xmlns:xlink="http://www.w3.org/1999/xlink"/><use x="681.633" y="320" xlink:href="#n" xmlns:xlink="http://www.w3.org/1999/xlink"/><use x="513.296" y="289.05" xlink:href="#o" xmlns:xlink="http://www.w3.org/1999/xlink"/><use x="669.633" y="289.05" xlink:href="#p" xmlns:xlink="http://www.w3.org/1999/xlink"/><path stroke-width="1.2" stroke="#1b1b1b" fill="none" d="M514.096 289.8h156.537"/></svg>